<svg width="56" height="42" viewBox="0 0 56 42" fill="none" xmlns="http://www.w3.org/2000/svg">
<path d="M1 1C1.20778 4.89639 1.41556 8.79277 1.52259 13.4161C1.62963 18.0395 1.62963 23.2718 4.64241 25.9672C7.65519 28.6627 13.6807 28.6627 17.0965 28.7183C20.5122 28.774 21.1356 28.8853 26.4433 28.9427C31.7511 29 41.7244 29 52 29" stroke="#FFFEFB" stroke-width="2" stroke-linecap="round" stroke-dasharray="4 4"/>
<path d="M42.0781 17.5156C47.0897 24.4792 49.3092 25.7289 50.886 26.6735C52.0781 27.3877 53.1483 28.032 53.9508 28.5879C54.9657 29.2909 51.6331 31.1585 49.9225 32.6956C47.0412 35.2847 45.7062 36.3205 44.3822 37.5734C43.6873 38.2683 43.1941 38.8305 42.9162 39.2474C42.7762 39.4574 42.6382 39.6643 42.0781 40.2955" stroke="#FFFEFB" stroke-width="2" stroke-linecap="round" stroke-dasharray="4 4"/>
</svg>
