<svg width="118" height="106" viewBox="0 0 118 106" fill="none" xmlns="http://www.w3.org/2000/svg">
<path d="M88.0962 1.00021C82.9971 4.82009 77.898 8.63997 73.8204 12.224C69.7428 15.808 66.8412 19.0403 64.858 21.446C61.7504 25.2157 59.8804 29.1179 58.0186 33.9067C56.0356 39.0074 55.7993 43.1909 55.7785 45.1762C55.7541 47.5195 56.4886 50.303 57.5285 53.386C58.1821 55.3239 59.4016 56.8208 60.3503 57.813C61.9307 59.466 66.6244 60.0137 71.4169 58.878C77.9875 57.3208 79.5212 53.0734 81.4287 49.4008C82.9012 46.5656 81.852 41.9993 79.5999 37.1819C77.6756 33.0655 74.8481 32.4224 72.8735 31.4591C68.2457 29.2015 61.6961 31.3915 59.8226 31.9111C57.2454 32.6258 52.9692 34.2294 48.0825 37.2878C42.9014 40.5305 40.7944 44.115 40.0449 45.2121C39.2679 46.3495 37.8178 50.235 35.8543 55.7958C33.7824 61.6636 33.8367 65.1425 33.5575 67.8158C33.3516 69.7864 33.2152 72.0498 33.1761 74.4348C33.1189 77.9366 32.6697 81.665 32.4569 85.722C32.2985 88.7441 31.8613 90.7566 31.5354 96.5105C31.0857 99.2847 30.9392 101.547 30.8692 103.13C30.7865 103.394 30.573 103.613 30.3529 103.838" stroke="#FFFEFB" stroke-width="2" stroke-linecap="round" stroke-dasharray="4 4"/>
<path d="M23.2569 89.2859C24.4192 91.8354 25.5814 94.385 26.5054 96.3304C28.0391 99.5596 28.9151 101.357 29.2278 102.404C29.3859 102.934 29.5009 103.472 29.6062 103.826C29.7115 104.181 29.7928 104.339 31.5838 102.771C33.3748 101.203 36.873 97.9033 38.9392 95.8429C41.6326 93.1571 42.3336 92.1361 42.8397 91.75C43.7253 90.9157 44.2807 90.4269 44.7679 90.1512C45.0181 89.9975 45.2743 89.8157 45.5382 89.6284" stroke="#FFFEFB" stroke-width="2" stroke-linecap="round" stroke-dasharray="4 4"/>
</svg>
