<svg width="47" height="38" viewBox="0 0 47 38" fill="none" xmlns="http://www.w3.org/2000/svg">
<path d="M45.2448 1C42.6688 10.9944 41.7336 13.1789 39.7835 15.64C38.9677 16.6695 37.831 17.9464 36.1938 19.3504C34.7949 20.55 31.5189 22.0061 27.4592 23.6855C25.3302 24.5662 23.0714 24.9031 20.2634 25.6836C18.1059 26.2834 14.6428 26.8556 10.6991 27.792C8.21343 28.6581 7.43291 28.7354 6.84811 28.8526C6.5727 28.8925 6.34066 28.8925 5.86719 28.8925" stroke="#FFFEFB" stroke-width="2" stroke-linecap="round" stroke-dasharray="4 4"/>
<path d="M13.8384 18.5801C8.91859 23.7343 7.98337 24.8242 6.81142 25.6481C5.44599 26.608 3.99873 27.4822 2.82678 28.2264C2.18849 28.6317 1.34309 29.1253 1.14152 29.7476C0.000781134 33.2693 6.01918 32.17 9.76122 33.9655C11.4445 34.7731 13.2853 35.0624 15.2764 35.8054C15.7112 35.925 15.9433 35.925 16.1788 35.9636C16.4144 36.0023 16.6464 36.0797 17.1199 36.3937" stroke="#FFFEFB" stroke-width="2" stroke-linecap="round" stroke-dasharray="4 4"/>
</svg>
