<svg width="65" height="23" viewBox="0 0 65 23" fill="none" xmlns="http://www.w3.org/2000/svg">
<path d="M4.6875 11.0591C13.3893 10.8918 22.091 10.7244 32.8491 10.5546C43.6071 10.3847 56.1578 10.2173 61.4519 10.1311C66.746 10.0449 64.4032 10.0449 61.9894 10.0449" stroke="#FFFEFB" stroke-width="2" stroke-linecap="round" stroke-dasharray="4 4"/>
<path d="M16.5163 1C11.4441 5.10253 9.95497 5.99828 8.83192 6.81902C7.50776 7.78672 5.62849 8.68106 4.01838 9.54433C2.8193 10.1872 2.03878 10.6271 1.36808 11.0369C1.06506 11.222 0.845188 11.3728 1.13743 11.8184C2.7609 14.2941 4.19529 14.4318 7.21061 16.3319C9.1482 17.5529 10.1655 18.5388 11.1385 19.1367C12.1092 19.8085 13.005 20.702 13.8257 21.1902C14.0508 21.3022 14.2725 21.45 14.7248 21.8262" stroke="#FFFEFB" stroke-width="2" stroke-linecap="round" stroke-dasharray="4 4"/>
</svg>
