<svg width="71" height="112" viewBox="0 0 71 112" fill="none" xmlns="http://www.w3.org/2000/svg">
<path d="M70 1C60.0143 12.421 50.0285 23.8421 44.7206 30.8516C38.1652 39.5088 38.748 46.1333 39.4028 52.6237C39.6904 55.4736 41.3672 57.1838 42.2874 58.1758C43.5238 59.5086 46.1691 59.8161 49.5548 60.2231C51.7792 60.4905 53.2926 59.4992 54.4484 58.3659C55.0363 57.7895 55.2769 56.9109 55.2818 56.1748C55.2868 55.4388 54.9594 54.7953 54.3815 54.3834C50.1393 51.3599 40.266 54.2884 36.4463 55.5899C34.184 56.3607 30.5035 58.0174 25.5577 62.3825C22.5951 64.9973 19.9572 69.6431 17.2933 75.2586C14.6294 80.8741 12.3376 87.6302 10.9115 92.2366C7.99709 103.024 7 107.094 7 107.991C7 108.084 7 107.44 7 106.777" stroke="#FFFEFB" stroke-width="2" stroke-linecap="round" stroke-dasharray="4 4"/>
<path d="M1.96875 89.7871C4.09217 102.174 5.0091 109.263 5.0949 110.246C6.06545 110.346 12.2802 107.863 20.9455 104.201C24.1253 102.839 24.8331 102.485 25.5623 102.12" stroke="#FFFEFB" stroke-width="2" stroke-linecap="round" stroke-dasharray="4 4"/>
</svg>
