<svg width="170" height="185" viewBox="0 0 170 185" fill="none" xmlns="http://www.w3.org/2000/svg">
<path d="M41.5172 30.8171C19.7678 47.2496 13.1851 77.6243 27.1578 101.826L68.675 77.8558L64.3257 70.3225C59.6027 70.3602 55.0042 67.8743 52.4699 63.4849L45.6206 51.6214C43.0863 47.2319 43.2326 42.0066 45.6269 37.9352L41.5172 30.8171ZM80.5371 71.0072L76.1878 63.4739C78.582 59.4025 78.7283 54.1772 76.1941 49.7877L69.3447 37.9242C66.8104 33.5348 62.212 31.0488 57.489 31.0866L53.3793 23.9685C78.4257 13.3834 108.082 22.8357 122.054 47.0372L80.5371 71.0072ZM47.7059 137.416C54.9663 149.991 66.9347 159.216 80.9683 162.977C95.0019 166.738 109.978 164.735 122.552 157.476C135.126 150.216 144.348 138.248 148.108 124.214C151.867 110.18 149.863 95.2029 142.602 82.6276L128.904 58.9007L34.0072 113.689L47.7059 137.416ZM70.263 53.212L63.4137 41.3485C61.5301 38.0861 57.32 36.9577 54.0579 38.8411C50.7959 40.7244 49.668 44.9346 51.5516 48.1971L58.401 60.0606C60.2845 63.323 64.4946 64.4514 67.7567 62.568C71.0188 60.6847 72.1466 56.4745 70.263 53.212Z" fill="#FFFEFB"/>
<path d="M34.1328 4.7793L42.169 18.6985" stroke="#FFFEFB" stroke-width="5" stroke-linecap="round"/>
<path d="M55.9766 6.30078V14.1255" stroke="#FFFEFB" stroke-width="4" stroke-linecap="round"/>
<path d="M25.2578 21.8457L31.8149 26.1156" stroke="#FFFEFB" stroke-width="4" stroke-linecap="round"/>
</svg>
