<svg width="16" height="16" viewBox="0 0 16 16" fill="none" xmlns="http://www.w3.org/2000/svg">
<path d="M8.80046 7.99987L6.20046 10.5999C6.07823 10.7221 6.01712 10.8776 6.01712 11.0665C6.01712 11.2554 6.07823 11.411 6.20046 11.5332C6.32268 11.6554 6.47823 11.7165 6.66712 11.7165C6.85601 11.7165 7.01157 11.6554 7.13379 11.5332L10.2005 8.46654C10.2671 8.39987 10.3143 8.32765 10.3421 8.24987C10.3699 8.17209 10.3838 8.08876 10.3838 7.99987C10.3838 7.91098 10.3699 7.82765 10.3421 7.74987C10.3143 7.67209 10.2671 7.59987 10.2005 7.5332L7.13379 4.46654C7.01157 4.34431 6.85601 4.2832 6.66712 4.2832C6.47823 4.2832 6.32268 4.34431 6.20046 4.46654C6.07823 4.58876 6.01712 4.74431 6.01712 4.9332C6.01712 5.12209 6.07823 5.27765 6.20046 5.39987L8.80046 7.99987Z" fill="#030712"/>
</svg>
