<svg width="48" height="48" viewBox="0 0 48 48" fill="none" xmlns="http://www.w3.org/2000/svg">
<path d="M23.9921 4.5C12.3999 4.5 3 11.9577 3 21.1608C3 27.111 6.92715 32.3233 12.8415 35.2827L10.7124 42.9387C10.7124 42.9387 10.6729 43.2957 10.9016 43.4305C11.1303 43.5654 11.4063 43.4623 11.4063 43.4623C12.0687 43.3671 19.0556 38.4244 20.2779 37.5675C21.4844 37.7421 22.7382 37.8294 24.0079 37.8294C35.6001 37.8294 45 30.3717 45 21.1686C45 11.9656 35.5844 4.5 23.9921 4.5Z" fill="black"/>
<path d="M12.3876 26.9696C11.7172 26.9696 11.1731 26.446 11.1731 25.8034V18.5599H9.28053C8.626 18.5599 8.09766 18.0284 8.09766 17.3699C8.09766 16.7114 8.63389 16.1798 9.28053 16.1798H15.4867C16.1413 16.1798 16.6696 16.7114 16.6696 17.3699C16.6696 18.0284 16.1333 18.5599 15.4867 18.5599H13.5941V25.8034C13.5941 26.438 13.0421 26.9696 12.3797 26.9696H12.3876ZM23.0098 26.9537C22.5052 26.9537 22.1186 26.7475 22.0004 26.4143L21.401 24.8275H17.7106L17.1112 26.4143C16.9928 26.7475 16.6064 26.9537 16.1018 26.9537C15.8336 26.9537 15.5734 26.8982 15.329 26.795C14.9978 26.6365 14.6744 26.2159 15.0451 25.0655L17.9392 17.3936C18.1442 16.8065 18.7672 16.2037 19.5557 16.1878C20.3444 16.1719 20.9752 16.8065 21.1724 17.3936L24.0665 25.0655C24.4372 26.2159 24.1138 26.6522 23.7826 26.795C23.546 26.9062 23.278 26.9537 23.0098 26.9537ZM20.7623 22.6696L19.5557 19.2104L18.3493 22.6696H20.7623ZM26.0143 26.795C25.3834 26.795 24.8551 26.2952 24.8551 25.6844V17.3936C24.8551 16.7194 25.4071 16.1719 26.0932 16.1719C26.7793 16.1719 27.3313 16.7273 27.3313 17.3936V24.5498H29.902C30.5329 24.5498 31.0612 25.0496 31.0612 25.6606C31.0612 26.2715 30.5408 26.7713 29.902 26.7713L26.0143 26.795ZM31.5265 25.732V17.4016C31.5265 16.7273 32.0785 16.1798 32.7409 16.1798C33.4033 16.1798 33.9553 16.7351 33.9553 17.4016V20.0197L37.3463 16.6082C37.7195 16.2328 38.4251 16.2656 38.8525 16.6955C39.2539 17.0993 39.3581 17.7818 38.9392 18.2108L36.1634 20.9876L39.1442 24.9545C39.5447 25.4702 39.4475 26.2736 38.9077 26.6522C38.3753 27.049 37.5934 26.9167 37.2122 26.4143L34.3733 22.63L33.9553 23.0504V25.7081C33.9553 27.2912 31.5265 27.3523 31.5265 25.732Z" fill="#FFE812"/>
</svg>
