<svg width="20" height="20" viewBox="0 0 20 20" fill="none" xmlns="http://www.w3.org/2000/svg">
<path d="M9.99669 1.875C5.16664 1.875 1.25 4.98236 1.25 8.817C1.25 11.2962 2.88631 13.4681 5.35064 14.7011L4.46348 17.8911C4.46348 17.8911 4.44705 18.0399 4.54234 18.0961C4.63762 18.1523 4.75263 18.1093 4.75263 18.1093C5.02863 18.0696 7.93981 16.0102 8.44913 15.6531C8.95181 15.7259 9.47425 15.7623 10.0033 15.7623C14.8334 15.7623 18.75 12.6549 18.75 8.82025C18.75 4.98566 14.8268 1.875 9.99669 1.875Z" fill="black"/>
<path d="M5.16148 11.2373C4.88219 11.2373 4.65547 11.0192 4.65547 10.7514V7.73328H3.86689C3.59417 7.73328 3.37402 7.51184 3.37402 7.23747C3.37402 6.96309 3.59745 6.74159 3.86689 6.74159H6.45277C6.72552 6.74159 6.94565 6.96309 6.94565 7.23747C6.94565 7.51184 6.72221 7.73328 6.45277 7.73328H5.6642V10.7514C5.6642 11.0158 5.4342 11.2373 5.15819 11.2373H5.16148ZM9.5874 11.2307C9.37715 11.2307 9.21609 11.1448 9.16684 11.006L8.91709 10.3448H7.3794L7.12965 11.006C7.08034 11.1448 6.91934 11.2307 6.70909 11.2307C6.59734 11.2307 6.4889 11.2076 6.38709 11.1646C6.24907 11.0985 6.11435 10.9233 6.26877 10.444L7.47465 7.24734C7.56009 7.00272 7.81965 6.75153 8.14821 6.74491C8.47684 6.73828 8.73965 7.00272 8.82184 7.24734L10.0277 10.444C10.1821 10.9233 10.0474 11.1051 9.9094 11.1646C9.81084 11.2109 9.69915 11.2307 9.5874 11.2307ZM8.65096 9.44566L8.14821 8.00434L7.64552 9.44566H8.65096ZM10.8393 11.1646C10.5764 11.1646 10.3563 10.9563 10.3563 10.7018V7.24734C10.3563 6.96641 10.5863 6.73828 10.8721 6.73828C11.158 6.73828 11.388 6.96972 11.388 7.24734V10.2291H12.4591C12.722 10.2291 12.9421 10.4373 12.9421 10.6919C12.9421 10.9465 12.7253 11.1547 12.4591 11.1547L10.8393 11.1646ZM13.136 10.7217V7.25066C13.136 6.96972 13.366 6.74159 13.642 6.74159C13.918 6.74159 14.148 6.97297 14.148 7.25066V8.34153L15.561 6.92009C15.7165 6.76366 16.0105 6.77734 16.1885 6.95647C16.3558 7.12472 16.3992 7.40909 16.2246 7.58784L15.0681 8.74484L16.3101 10.3977C16.477 10.6126 16.4365 10.9473 16.2115 11.1051C15.9897 11.2704 15.6639 11.2153 15.5051 11.006L14.3222 9.42916L14.148 9.60434V10.7117C14.148 11.3713 13.136 11.3968 13.136 10.7217Z" fill="#FFE812"/>
</svg>
