<svg width="20" height="20" viewBox="0 0 20 20" fill="none" xmlns="http://www.w3.org/2000/svg">
<path d="M5.83171 14.1654C4.67893 14.1654 3.69629 13.7591 2.88379 12.9466C2.07129 12.1341 1.66504 11.1515 1.66504 9.9987C1.66504 8.84592 2.07129 7.86328 2.88379 7.05078C3.69629 6.23828 4.67893 5.83203 5.83171 5.83203H8.33171C8.56782 5.83203 8.76573 5.91189 8.92546 6.07161C9.08518 6.23134 9.16504 6.42925 9.16504 6.66536C9.16504 6.90148 9.08518 7.09939 8.92546 7.25911C8.76573 7.41884 8.56782 7.4987 8.33171 7.4987H5.83171C5.13726 7.4987 4.54698 7.74175 4.06087 8.22786C3.57476 8.71398 3.33171 9.30425 3.33171 9.9987C3.33171 10.6931 3.57476 11.2834 4.06087 11.7695C4.54698 12.2556 5.13726 12.4987 5.83171 12.4987H8.33171C8.56782 12.4987 8.76573 12.5786 8.92546 12.7383C9.08518 12.898 9.16504 13.0959 9.16504 13.332C9.16504 13.5681 9.08518 13.7661 8.92546 13.9258C8.76573 14.0855 8.56782 14.1654 8.33171 14.1654H5.83171ZM7.49837 10.832C7.26226 10.832 7.06434 10.7522 6.90462 10.5924C6.7449 10.4327 6.66504 10.2348 6.66504 9.9987C6.66504 9.76259 6.7449 9.56467 6.90462 9.40495C7.06434 9.24523 7.26226 9.16536 7.49837 9.16536H12.4984C12.7345 9.16536 12.9324 9.24523 13.0921 9.40495C13.2518 9.56467 13.3317 9.76259 13.3317 9.9987C13.3317 10.2348 13.2518 10.4327 13.0921 10.5924C12.9324 10.7522 12.7345 10.832 12.4984 10.832H7.49837ZM11.665 14.1654C11.4289 14.1654 11.231 14.0855 11.0713 13.9258C10.9116 13.7661 10.8317 13.5681 10.8317 13.332C10.8317 13.0959 10.9116 12.898 11.0713 12.7383C11.231 12.5786 11.4289 12.4987 11.665 12.4987H14.165C14.8595 12.4987 15.4498 12.2556 15.9359 11.7695C16.422 11.2834 16.665 10.6931 16.665 9.9987C16.665 9.30425 16.422 8.71398 15.9359 8.22786C15.4498 7.74175 14.8595 7.4987 14.165 7.4987H11.665C11.4289 7.4987 11.231 7.41884 11.0713 7.25911C10.9116 7.09939 10.8317 6.90148 10.8317 6.66536C10.8317 6.42925 10.9116 6.23134 11.0713 6.07161C11.231 5.91189 11.4289 5.83203 11.665 5.83203H14.165C15.3178 5.83203 16.3005 6.23828 17.113 7.05078C17.9255 7.86328 18.3317 8.84592 18.3317 9.9987C18.3317 11.1515 17.9255 12.1341 17.113 12.9466C16.3005 13.7591 15.3178 14.1654 14.165 14.1654H11.665Z" fill="#030712"/>
</svg>
