<svg width="24" height="24" viewBox="0 0 24 24" fill="none" xmlns="http://www.w3.org/2000/svg">
<path d="M3.99927 20C3.44927 20 2.97843 19.8042 2.58677 19.4125C2.1951 19.0208 1.99927 18.55 1.99927 18V6C1.99927 5.45 2.1951 4.97917 2.58677 4.5875C2.97843 4.19583 3.44927 4 3.99927 4H19.9993C20.5493 4 21.0201 4.19583 21.4118 4.5875C21.8034 4.97917 21.9993 5.45 21.9993 6V18C21.9993 18.55 21.8034 19.0208 21.4118 19.4125C21.0201 19.8042 20.5493 20 19.9993 20H3.99927ZM19.9993 8L12.5243 12.675C12.4409 12.725 12.3534 12.7625 12.2618 12.7875C12.1701 12.8125 12.0826 12.825 11.9993 12.825C11.9159 12.825 11.8284 12.8125 11.7368 12.7875C11.6451 12.7625 11.5576 12.725 11.4743 12.675L3.99927 8V18H19.9993V8ZM11.9993 11L19.9993 6H3.99927L11.9993 11ZM3.99927 8.25V6.775V6.8V6.7875V8.25Z" fill="#374151"/>
</svg>
