<svg width="32" height="12" viewBox="0 0 32 12" fill="none" xmlns="http://www.w3.org/2000/svg">
<g clip-path="url(#clip0_3299_34257)">
<path d="M25.9448 0C29.2884 0 32 2.68686 32 6C32 9.31314 29.2884 12 25.9448 12H6.05514C2.71156 12 0 9.31314 0 6C0 2.68686 2.71156 0 6.05514 0H25.9448Z" fill="#00DE5A"/>
<path d="M6.06478 10.3498C3.63648 10.3498 1.66797 8.40239 1.66797 6.0001C1.66797 3.59782 3.63648 1.65039 6.06478 1.65039C8.49308 1.65039 10.4616 3.59782 10.4616 6.0001C10.4628 8.40239 8.49424 10.3498 6.06478 10.3498ZM6.91388 3.8241V6.21612L5.21454 3.8241H3.86637V8.17383H5.21685V5.78183L6.91619 8.17383H8.26436V3.8241H6.91388Z" fill="black"/>
<path d="M27.8312 3.23698L26.5281 6.19241L25.0886 3.23698H23.774L25.9528 7.43126L25.0771 9.37412H26.319L29.0719 3.23698H27.8312ZM21.9406 7.93984H23.1178V3.23584H21.9406V3.62212C21.5363 3.29984 21.0788 3.13184 20.5243 3.13184C19.1854 3.13184 18.1364 4.21984 18.1364 5.58669C18.1364 6.95355 19.1854 8.04155 20.5243 8.04155C21.0788 8.04155 21.5363 7.87355 21.9406 7.55126V7.93984ZM20.6953 7.08955C19.9074 7.08955 19.3148 6.44498 19.3148 5.58898C19.3148 4.73298 19.9086 4.08841 20.6953 4.08841C21.482 4.08841 22.0758 4.73298 22.0758 5.58898C22.0769 6.44384 21.4832 7.08955 20.6953 7.08955ZM13.7627 7.57641C14.159 7.88384 14.6026 8.04384 15.1374 8.04384C16.4764 8.04384 17.5253 6.95584 17.5253 5.58898C17.5253 4.22212 16.4764 3.13412 15.1374 3.13412C14.5829 3.13412 14.1255 3.30212 13.7211 3.62441V3.23812H12.5439V9.37526H13.7616V7.57641H13.7627ZM13.586 5.58898C13.586 4.73298 14.1798 4.08841 14.9665 4.08841C15.7532 4.08841 16.347 4.73298 16.347 5.58898C16.347 6.44498 15.7532 7.08955 14.9665 7.08955C14.1798 7.08955 13.586 6.44384 13.586 5.58898Z" fill="black"/>
</g>
<defs>
<clipPath id="clip0_3299_34257">
<rect width="32" height="12" fill="white"/>
</clipPath>
</defs>
</svg>
