<svg width="120" height="120" viewBox="0 0 120 120" fill="none" xmlns="http://www.w3.org/2000/svg">
<g clip-path="url(#clip0_9134_99838)">
<path d="M120 60C120 26.8629 93.1371 0 60 0C26.8629 0 0 26.8629 0 60C0 93.1371 26.8629 120 60 120C93.1371 120 120 93.1371 120 60Z" fill="#9CA3AF"/>
<path d="M60 72C73.26 72 84 61.26 84 48C84 34.74 73.26 24 60 24C46.74 24 36 34.74 36 48C36 61.26 46.74 72 60 72ZM60 84C43.98 84 12 92.04 12 108V116C12 118.209 13.7909 120 16 120H104C106.209 120 108 118.209 108 116V108C108 92.04 76.02 84 60 84Z" fill="#FFFEFB"/>
</g>
<defs>
<clipPath id="clip0_9134_99838">
<rect width="120" height="120" fill="white"/>
</clipPath>
</defs>
</svg>
