<svg width="357" height="94" viewBox="0 0 357 94" fill="none" xmlns="http://www.w3.org/2000/svg">
<path d="M11.1377 49.7959L9.9375 58.9268C9.93747 61.6594 7.70137 63.8954 4.96875 63.8955C2.23605 63.8955 3.36817e-05 61.6595 0 58.9268L4.08496 29.2949C4.08496 26.5622 6.32099 24.3262 9.05371 24.3262H11.1377V49.7959Z" fill="url(#paint0_linear_6414_62004)"/>
<path d="M29.6416 20C33.2506 20 36.3377 21.4923 38.8545 24.4766C41.4186 27.4055 42.7002 30.9983 42.7002 35.1982C42.7001 39.3429 41.4659 42.9353 38.9492 45.8643C36.4325 48.7931 33.3933 50.3401 29.832 50.3955H16.583L15.3955 58.4453C14.9162 61.8089 13.259 63.9715 10.6475 63.9717C8.03577 63.9717 5.89857 61.4847 5.89844 58.4453L8.74121 38.7402H10.332V31.5391C10.3229 31.5386 10.1151 31.5279 9.7793 31.5381L10.6475 25.5264C10.6475 22.4869 12.7838 20.0001 15.3955 20H29.6416ZM10.3359 38.7432H19.7607V38.7373C19.7607 38.7373 23.3652 38.9404 25.167 36.918C26.9684 34.8955 26.9688 31.5352 26.9688 31.5352H10.3359V38.7432Z" fill="#FFFEFB"/>
<path fill-rule="evenodd" clip-rule="evenodd" d="M349.46 12.8489C348.981 10.7078 345.968 10.7204 345.504 12.8665L345.487 12.9546L345.45 13.1257C345.179 14.3552 344.554 15.4756 343.655 16.3449C342.757 17.2142 341.624 17.7934 340.4 18.0091C338.2 18.3966 338.2 21.6019 340.4 21.9893C341.628 22.206 342.903 22.9228 343.665 23.6636C344.565 24.5383 345.188 25.6651 345.454 26.9004L345.504 27.1344C345.968 29.278 348.979 29.2931 349.46 27.152L349.522 26.8803C349.8 25.6498 350.43 24.5298 351.332 23.6607C352.235 22.7916 353.37 22.212 354.596 21.9944C356.801 21.6044 356.801 18.3966 354.596 18.0066C353.376 17.7908 352.245 17.2163 351.344 16.3545C350.443 15.4926 349.811 14.3813 349.527 13.1584L349.482 12.9521L349.46 12.8489Z" fill="#FFFEFB"/>
<path d="M55.82 62.94C55.42 63.06 54.78 63.18 53.9 63.3C53.06 63.42 52.18 63.48 51.26 63.48C50.38 63.48 49.58 63.42 48.86 63.3C48.18 63.18 47.6 62.94 47.12 62.58C46.64 62.22 46.26 61.74 45.98 61.14C45.74 60.5 45.62 59.68 45.62 58.68V40.68C45.62 39.76 45.78 38.98 46.1 38.34C46.46 37.66 46.96 37.06 47.6 36.54C48.24 36.02 49.02 35.56 49.94 35.16C50.9 34.72 51.92 34.34 53 34.02C54.08 33.7 55.2 33.46 56.36 33.3C57.52 33.1 58.68 33 59.84 33C61.76 33 63.28 33.38 64.4 34.14C65.52 34.86 66.08 36.06 66.08 37.74C66.08 38.3 66 38.86 65.84 39.42C65.68 39.94 65.48 40.42 65.24 40.86C64.4 40.86 63.54 40.9 62.66 40.98C61.78 41.06 60.92 41.18 60.08 41.34C59.24 41.5 58.44 41.68 57.68 41.88C56.96 42.04 56.34 42.24 55.82 42.48V62.94ZM97.5547 48.42C97.5547 50.9 97.1747 53.12 96.4147 55.08C95.6547 57 94.5747 58.62 93.1747 59.94C91.8147 61.26 90.1747 62.26 88.2547 62.94C86.3347 63.62 84.1947 63.96 81.8347 63.96C79.4747 63.96 77.3347 63.6 75.4147 62.88C73.4947 62.16 71.8347 61.14 70.4347 59.82C69.0747 58.46 68.0147 56.82 67.2547 54.9C66.4947 52.98 66.1147 50.82 66.1147 48.42C66.1147 46.06 66.4947 43.92 67.2547 42C68.0147 40.08 69.0747 38.46 70.4347 37.14C71.8347 35.78 73.4947 34.74 75.4147 34.02C77.3347 33.3 79.4747 32.94 81.8347 32.94C84.1947 32.94 86.3347 33.32 88.2547 34.08C90.1747 34.8 91.8147 35.84 93.1747 37.2C94.5747 38.52 95.6547 40.14 96.4147 42.06C97.1747 43.98 97.5547 46.1 97.5547 48.42ZM76.5547 48.42C76.5547 50.86 77.0147 52.74 77.9347 54.06C78.8947 55.34 80.2147 55.98 81.8947 55.98C83.5747 55.98 84.8547 55.32 85.7347 54C86.6547 52.68 87.1147 50.82 87.1147 48.42C87.1147 46.02 86.6547 44.18 85.7347 42.9C84.8147 41.58 83.5147 40.92 81.8347 40.92C80.1547 40.92 78.8547 41.58 77.9347 42.9C77.0147 44.18 76.5547 46.02 76.5547 48.42ZM114.711 32.94C116.351 32.94 117.951 33.18 119.511 33.66C121.111 34.1 122.491 34.78 123.651 35.7C124.851 34.9 126.191 34.24 127.671 33.72C129.191 33.2 131.011 32.94 133.131 32.94C134.651 32.94 136.131 33.14 137.571 33.54C139.051 33.94 140.351 34.58 141.471 35.46C142.631 36.3 143.551 37.44 144.231 38.88C144.911 40.28 145.251 42 145.251 44.04V62.94C144.851 63.06 144.211 63.18 143.331 63.3C142.491 63.42 141.611 63.48 140.691 63.48C139.811 63.48 139.011 63.42 138.291 63.3C137.611 63.18 137.031 62.94 136.551 62.58C136.071 62.22 135.691 61.74 135.411 61.14C135.171 60.5 135.051 59.68 135.051 58.68V44.34C135.051 43.14 134.711 42.28 134.031 41.76C133.351 41.2 132.431 40.92 131.271 40.92C130.711 40.92 130.111 41.06 129.471 41.34C128.831 41.58 128.351 41.84 128.031 42.12C128.071 42.28 128.091 42.44 128.091 42.6C128.091 42.72 128.091 42.84 128.091 42.96V62.94C127.651 63.06 126.991 63.18 126.111 63.3C125.271 63.42 124.411 63.48 123.531 63.48C122.651 63.48 121.851 63.42 121.131 63.3C120.451 63.18 119.871 62.94 119.391 62.58C118.911 62.22 118.531 61.74 118.251 61.14C118.011 60.5 117.891 59.68 117.891 58.68V44.34C117.891 43.14 117.511 42.28 116.751 41.76C116.031 41.2 115.151 40.92 114.111 40.92C113.391 40.92 112.771 41.04 112.251 41.28C111.731 41.48 111.291 41.68 110.931 41.88V62.94C110.531 63.06 109.891 63.18 109.011 63.3C108.171 63.42 107.291 63.48 106.371 63.48C105.491 63.48 104.691 63.42 103.971 63.3C103.291 63.18 102.711 62.94 102.231 62.58C101.751 62.22 101.371 61.74 101.091 61.14C100.851 60.5 100.731 59.68 100.731 58.68V40.56C100.731 39.48 100.951 38.62 101.391 37.98C101.871 37.34 102.511 36.74 103.311 36.18C104.671 35.22 106.351 34.44 108.351 33.84C110.391 33.24 112.511 32.94 114.711 32.94ZM163.053 32.94C165.453 32.94 167.673 33.26 169.713 33.9C171.793 34.5 173.573 35.44 175.053 36.72C176.533 38 177.693 39.62 178.533 41.58C179.373 43.5 179.793 45.8 179.793 48.48C179.793 51.04 179.433 53.28 178.713 55.2C177.993 57.12 176.973 58.74 175.653 60.06C174.333 61.34 172.733 62.3 170.853 62.94C169.013 63.58 166.953 63.9 164.673 63.9C162.953 63.9 161.353 63.64 159.873 63.12V73.08C159.473 73.2 158.833 73.32 157.953 73.44C157.073 73.6 156.173 73.68 155.253 73.68C154.373 73.68 153.573 73.62 152.853 73.5C152.173 73.38 151.593 73.14 151.113 72.78C150.633 72.42 150.273 71.92 150.033 71.28C149.793 70.68 149.673 69.88 149.673 68.88V40.08C149.673 39 149.893 38.12 150.333 37.44C150.813 36.76 151.453 36.14 152.253 35.58C153.493 34.78 155.033 34.14 156.873 33.66C158.713 33.18 160.773 32.94 163.053 32.94ZM163.173 55.86C167.293 55.86 169.353 53.4 169.353 48.48C169.353 45.92 168.833 44.02 167.793 42.78C166.793 41.54 165.333 40.92 163.413 40.92C162.653 40.92 161.973 41.02 161.373 41.22C160.773 41.38 160.253 41.58 159.813 41.82V55.02C160.293 55.26 160.813 55.46 161.373 55.62C161.933 55.78 162.533 55.86 163.173 55.86ZM193.171 52.98C193.171 54.02 193.491 54.76 194.131 55.2C194.811 55.64 195.751 55.86 196.951 55.86C197.551 55.86 198.171 55.82 198.811 55.74C199.451 55.62 200.011 55.48 200.491 55.32C200.851 55.76 201.151 56.26 201.391 56.82C201.671 57.34 201.811 57.98 201.811 58.74C201.811 60.26 201.231 61.5 200.071 62.46C198.951 63.42 196.951 63.9 194.071 63.9C190.551 63.9 187.831 63.1 185.911 61.5C184.031 59.9 183.091 57.3 183.091 53.7V28.02C183.531 27.9 184.151 27.78 184.951 27.66C185.791 27.5 186.671 27.42 187.591 27.42C189.351 27.42 190.711 27.74 191.671 28.38C192.671 28.98 193.171 30.28 193.171 32.28V36.12H201.031C201.271 36.56 201.491 37.12 201.691 37.8C201.931 38.44 202.051 39.16 202.051 39.96C202.051 41.36 201.731 42.38 201.091 43.02C200.491 43.62 199.671 43.92 198.631 43.92H193.171V52.98ZM219.594 43.5C221.274 43.5 222.554 43.12 223.434 42.36C224.354 41.56 224.814 40.36 224.814 38.76C224.814 37.24 224.334 36.08 223.374 35.28C222.454 34.44 221.094 34.02 219.294 34.02C218.654 34.02 218.114 34.04 217.674 34.08C217.274 34.08 216.854 34.12 216.414 34.2V43.5H219.594ZM216.474 62.76C216.034 62.88 215.334 63 214.374 63.12C213.454 63.24 212.534 63.3 211.614 63.3C210.694 63.3 209.874 63.22 209.154 63.06C208.474 62.94 207.894 62.7 207.414 62.34C206.934 61.98 206.574 61.48 206.334 60.84C206.094 60.2 205.974 59.36 205.974 58.32V30.06C205.974 29.22 206.194 28.58 206.634 28.14C207.114 27.66 207.754 27.28 208.554 27C209.914 26.52 211.454 26.18 213.174 25.98C214.934 25.74 216.694 25.62 218.454 25.62C223.974 25.62 228.194 26.8 231.114 29.16C234.034 31.52 235.494 34.72 235.494 38.76C235.494 40.72 235.174 42.5 234.534 44.1C233.934 45.66 233.014 47.02 231.774 48.18C230.574 49.3 229.034 50.18 227.154 50.82C225.314 51.42 223.174 51.72 220.734 51.72H216.474V62.76ZM248.637 62.94C248.197 63.02 247.537 63.12 246.657 63.24C245.817 63.4 244.957 63.48 244.077 63.48C243.197 63.48 242.397 63.42 241.677 63.3C240.997 63.18 240.417 62.94 239.937 62.58C239.457 62.22 239.077 61.74 238.797 61.14C238.557 60.5 238.437 59.68 238.437 58.68V23.88C238.877 23.8 239.517 23.7 240.357 23.58C241.237 23.42 242.117 23.34 242.997 23.34C243.877 23.34 244.657 23.4 245.337 23.52C246.057 23.64 246.657 23.88 247.137 24.24C247.617 24.6 247.977 25.1 248.217 25.74C248.497 26.34 248.637 27.14 248.637 28.14V62.94ZM265.754 56.52C266.434 56.52 267.174 56.46 267.974 56.34C268.814 56.18 269.434 55.98 269.834 55.74V50.94L265.514 51.3C264.394 51.38 263.474 51.62 262.754 52.02C262.034 52.42 261.674 53.02 261.674 53.82C261.674 54.62 261.974 55.28 262.574 55.8C263.214 56.28 264.274 56.52 265.754 56.52ZM265.274 32.94C267.434 32.94 269.394 33.16 271.154 33.6C272.954 34.04 274.474 34.72 275.714 35.64C276.994 36.52 277.974 37.66 278.654 39.06C279.334 40.42 279.674 42.04 279.674 43.92V57.36C279.674 58.4 279.374 59.26 278.774 59.94C278.214 60.58 277.534 61.14 276.734 61.62C274.134 63.18 270.474 63.96 265.754 63.96C263.634 63.96 261.714 63.76 259.994 63.36C258.314 62.96 256.854 62.36 255.614 61.56C254.414 60.76 253.474 59.74 252.794 58.5C252.154 57.26 251.834 55.82 251.834 54.18C251.834 51.42 252.654 49.3 254.294 47.82C255.934 46.34 258.474 45.42 261.914 45.06L269.774 44.22V43.8C269.774 42.64 269.254 41.82 268.214 41.34C267.214 40.82 265.754 40.56 263.834 40.56C262.314 40.56 260.834 40.72 259.394 41.04C257.954 41.36 256.654 41.76 255.494 42.24C254.974 41.88 254.534 41.34 254.174 40.62C253.814 39.86 253.634 39.08 253.634 38.28C253.634 37.24 253.874 36.42 254.354 35.82C254.874 35.18 255.654 34.64 256.694 34.2C257.854 33.76 259.214 33.44 260.774 33.24C262.374 33.04 263.874 32.94 265.274 32.94ZM300.551 40.98C299.551 40.98 298.591 41.14 297.671 41.46C296.791 41.78 296.011 42.26 295.331 42.9C294.691 43.5 294.171 44.26 293.771 45.18C293.371 46.1 293.171 47.18 293.171 48.42C293.171 50.9 293.871 52.76 295.271 54C296.711 55.24 298.451 55.86 300.491 55.86C301.691 55.86 302.731 55.72 303.611 55.44C304.491 55.16 305.271 54.86 305.951 54.54C306.751 55.1 307.351 55.72 307.751 56.4C308.151 57.04 308.351 57.82 308.351 58.74C308.351 60.38 307.571 61.66 306.011 62.58C304.451 63.46 302.291 63.9 299.531 63.9C297.011 63.9 294.731 63.54 292.691 62.82C290.651 62.06 288.891 61.02 287.411 59.7C285.971 58.34 284.851 56.72 284.051 54.84C283.251 52.96 282.851 50.88 282.851 48.6C282.851 45.96 283.271 43.66 284.111 41.7C284.991 39.7 286.171 38.06 287.651 36.78C289.131 35.5 290.831 34.54 292.751 33.9C294.711 33.26 296.771 32.94 298.931 32.94C301.811 32.94 304.031 33.46 305.591 34.5C307.151 35.54 307.931 36.88 307.931 38.52C307.931 39.28 307.751 40 307.391 40.68C307.031 41.32 306.611 41.88 306.131 42.36C305.451 42.04 304.631 41.74 303.671 41.46C302.711 41.14 301.671 40.98 300.551 40.98ZM326.207 63.96C323.847 63.96 321.647 63.64 319.607 63C317.607 62.32 315.847 61.32 314.327 60C312.847 58.68 311.667 57.02 310.787 55.02C309.947 53.02 309.527 50.68 309.527 48C309.527 45.36 309.947 43.1 310.787 41.22C311.667 39.3 312.807 37.74 314.207 36.54C315.607 35.3 317.207 34.4 319.007 33.84C320.807 33.24 322.647 32.94 324.527 32.94C326.647 32.94 328.567 33.26 330.287 33.9C332.047 34.54 333.547 35.42 334.787 36.54C336.067 37.66 337.047 39 337.727 40.56C338.447 42.12 338.807 43.82 338.807 45.66C338.807 47.02 338.427 48.06 337.667 48.78C336.907 49.5 335.847 49.96 334.487 50.16L319.667 52.38C320.107 53.7 321.007 54.7 322.367 55.38C323.727 56.02 325.287 56.34 327.047 56.34C328.687 56.34 330.227 56.14 331.667 55.74C333.147 55.3 334.347 54.8 335.267 54.24C335.907 54.64 336.447 55.2 336.887 55.92C337.327 56.64 337.547 57.4 337.547 58.2C337.547 60 336.707 61.34 335.027 62.22C333.747 62.9 332.307 63.36 330.707 63.6C329.107 63.84 327.607 63.96 326.207 63.96ZM324.527 40.38C323.567 40.38 322.727 40.54 322.007 40.86C321.327 41.18 320.767 41.6 320.327 42.12C319.887 42.6 319.547 43.16 319.307 43.8C319.107 44.4 318.987 45.02 318.947 45.66L329.207 43.98C329.087 43.18 328.647 42.38 327.887 41.58C327.127 40.78 326.007 40.38 324.527 40.38Z" fill="#FFFEFB"/>
<defs>
<linearGradient id="paint0_linear_6414_62004" x1="5.56885" y1="24.3262" x2="-17.1554" y2="36.6891" gradientUnits="userSpaceOnUse">
<stop stop-color="#FFFEFB" stop-opacity="0"/>
<stop offset="1" stop-color="#FFFEFB"/>
</linearGradient>
</defs>
</svg>
