<svg width="28" height="28" viewBox="0 0 28 28" fill="none" xmlns="http://www.w3.org/2000/svg">
<g clip-path="url(#clip0_6902_7547)">
<path d="M23.7331 8.71256C23.4194 7.98605 22.9669 7.3277 22.4012 6.77436C21.835 6.21936 21.1675 5.77832 20.4349 5.4752C19.6753 5.15964 18.8605 4.99812 18.0379 5.00002C16.8839 5.00002 15.7579 5.31603 14.7795 5.91294C14.5454 6.05573 14.323 6.21256 14.1123 6.38344C13.9017 6.21256 13.6793 6.05573 13.4452 5.91294C12.4667 5.31603 11.3408 5.00002 10.1868 5.00002C9.3558 5.00002 8.55056 5.15919 7.78979 5.4752C7.05477 5.77951 6.39232 6.21724 5.8235 6.77436C5.25701 7.32708 4.80449 7.98559 4.49157 8.71256C4.1662 9.46864 4 10.2715 4 11.0979C4 11.8773 4.15918 12.6896 4.47519 13.5159C4.7397 14.2065 5.11891 14.9228 5.60346 15.6461C6.37125 16.7907 7.42696 17.9846 8.73782 19.1948C10.9101 21.2008 13.0613 22.5866 13.1526 22.6428L13.7074 22.9986C13.9532 23.1554 14.2692 23.1554 14.515 22.9986L15.0697 22.6428C15.161 22.5843 17.3099 21.2008 19.4845 19.1948C20.7954 17.9846 21.8511 16.7907 22.6189 15.6461C23.1034 14.9228 23.485 14.2065 23.7472 13.5159C24.0632 12.6896 24.2224 11.8773 24.2224 11.0979C24.2247 10.2715 24.0585 9.46864 23.7331 8.71256ZM14.1123 21.147C14.1123 21.147 5.77902 15.8076 5.77902 11.0979C5.77902 8.71256 7.75234 6.77904 10.1868 6.77904C11.8979 6.77904 13.382 7.7341 14.1123 9.12922C14.8427 7.7341 16.3268 6.77904 18.0379 6.77904C20.4724 6.77904 22.4457 8.71256 22.4457 11.0979C22.4457 15.8076 14.1123 21.147 14.1123 21.147Z" fill="#D1D5DB"/>
</g>
<defs>
<clipPath id="clip0_6902_7547">
<rect width="20.2224" height="18.1162" fill="white" transform="translate(4 5)"/>
</clipPath>
</defs>
</svg>
