<svg width="28" height="28" viewBox="0 0 28 28" fill="none" xmlns="http://www.w3.org/2000/svg">
<path d="M13.6667 24.6208C13.3944 24.6208 13.1174 24.5722 12.8354 24.475C12.5535 24.3778 12.3056 24.2222 12.0917 24.0083L10.0792 22.1708C8.01806 20.2847 6.15625 18.4132 4.49375 16.5563C2.83125 14.6993 2 12.6528 2 10.4167C2 8.58889 2.6125 7.0625 3.8375 5.8375C5.0625 4.6125 6.58889 4 8.41667 4C9.44722 4 10.4194 4.21875 11.3333 4.65625C12.2472 5.09375 13.025 5.69167 13.6667 6.45C14.3083 5.69167 15.0861 5.09375 16 4.65625C16.9139 4.21875 17.8861 4 18.9167 4C20.7444 4 22.2708 4.6125 23.4958 5.8375C24.7208 7.0625 25.3333 8.58889 25.3333 10.4167C25.3333 12.6528 24.5069 14.7042 22.8542 16.5708C21.2014 18.4375 19.325 20.3139 17.225 22.2L15.2417 24.0083C15.0278 24.2222 14.7799 24.3778 14.4979 24.475C14.216 24.5722 13.9389 24.6208 13.6667 24.6208Z" fill="url(#paint0_linear_7058_71150)"/>
<defs>
<linearGradient id="paint0_linear_7058_71150" x1="21.8222" y1="7.11116" x2="-8.55469" y2="20.2696" gradientUnits="userSpaceOnUse">
<stop stop-color="#94D2FF"/>
<stop offset="1" stop-color="#6198FF"/>
</linearGradient>
</defs>
</svg>
