<svg width="144" height="144" viewBox="0 0 144 144" fill="none" xmlns="http://www.w3.org/2000/svg">
<rect width="144" height="144" rx="30" fill="url(#paint0_linear_6414_62023)"/>
<path d="M52.6572 86.2627L50.4307 103.197C50.4306 108.265 46.284 112.412 41.2158 112.412C36.1474 112.412 32.0001 108.266 32 103.197L39.5771 48.2383C39.5773 43.17 43.7237 39.0225 48.792 39.0225H52.6572V86.2627Z" fill="url(#paint1_linear_6414_62023)"/>
<rect width="11.587" height="15.1523" transform="matrix(0 -1 -1 0 99.2979 113)" fill="#FFFEFB"/>
<path d="M84.1416 101.422C84.1416 101.422 78.3481 101.095 75.4513 104.346C72.5546 107.597 72.5546 113 72.5546 113L84.1416 113L84.1416 101.422Z" fill="#FFFEFB"/>
<path d="M99.2939 112.991C99.2939 112.991 105.087 113.318 107.984 110.067C110.881 106.816 110.881 101.413 110.881 101.413L99.2939 101.413L99.2939 112.991Z" fill="#FFFEFB"/>
<path d="M86.9658 31C93.6592 31.0001 99.3839 33.7679 104.052 39.3027C108.808 44.7352 111.186 51.3976 111.187 59.1875C111.187 66.875 108.896 73.5382 104.229 78.9707C99.5608 84.403 93.9236 87.2723 87.3184 87.375H62.7461L60.5439 102.305C59.655 108.544 56.5801 112.554 51.7363 112.555C46.8922 112.555 42.9287 107.942 42.9287 102.305L48.2002 65.7598H51.1621V52.4033C51.152 52.4028 50.7608 52.3808 50.126 52.4004L51.7354 41.25C51.7354 35.6126 55.699 31.0002 60.543 31H86.9658ZM51.1699 65.7598H68.6504V65.75C68.8125 65.7586 75.3723 66.0811 78.6729 62.377C82.0148 58.626 82.0146 52.3926 82.0146 52.3926H51.1699V65.7598Z" fill="url(#paint2_linear_6414_62023)"/>
<path fill-rule="evenodd" clip-rule="evenodd" d="M114.344 23.0964C114.016 21.6282 111.949 21.6369 111.631 23.1085L111.619 23.1688L111.594 23.2862C111.408 24.1293 110.98 24.8975 110.364 25.4937C109.747 26.0898 108.97 26.4869 108.131 26.6348C106.623 26.9005 106.623 29.0984 108.131 29.3641C108.974 29.5127 109.847 30.0042 110.37 30.5122C110.988 31.1119 111.415 31.8847 111.597 32.7317L111.631 32.8922C111.949 34.3621 114.014 34.3724 114.344 32.9043L114.386 32.7179C114.577 31.8741 115.009 31.1062 115.628 30.5102C116.247 29.9142 117.025 29.5168 117.866 29.3676C119.378 29.1001 119.378 26.9005 117.866 26.6331C117.029 26.4851 116.254 26.0912 115.636 25.5002C115.018 24.9092 114.585 24.1471 114.39 23.3086L114.359 23.1671L114.344 23.0964Z" fill="#FFFEFB"/>
<defs>
<linearGradient id="paint0_linear_6414_62023" x1="115" y1="111" x2="8" y2="3.68887e-06" gradientUnits="userSpaceOnUse">
<stop stop-color="#2979FF"/>
<stop offset="1" stop-color="#55BBFF"/>
</linearGradient>
<linearGradient id="paint1_linear_6414_62023" x1="47.4019" y1="88.6652" x2="47.4019" y2="111.524" gradientUnits="userSpaceOnUse">
<stop stop-color="#FFFEFB" stop-opacity="0.2"/>
<stop offset="1" stop-color="#FFFEFB"/>
</linearGradient>
<linearGradient id="paint2_linear_6414_62023" x1="53.3731" y1="44.8052" x2="53.3731" y2="96.0734" gradientUnits="userSpaceOnUse">
<stop offset="1" stop-color="#FFFEFB"/>
</linearGradient>
</defs>
</svg>
