<svg width="28" height="28" viewBox="0 0 28 28" fill="none" xmlns="http://www.w3.org/2000/svg">
<path d="M15.75 10.5C15.2859 10.5 14.8408 10.3156 14.5126 9.98744C14.1844 9.65925 14 9.21413 14 8.75C14 8.28587 14.1844 7.84075 14.5126 7.51256C14.8408 7.18437 15.2859 7 15.75 7C16.2141 7 16.6592 7.18437 16.9874 7.51256C17.3156 7.84075 17.5 8.28587 17.5 8.75C17.5 9.21413 17.3156 9.65925 16.9874 9.98744C16.6592 10.3156 16.2141 10.5 15.75 10.5Z" fill="#D8EFFF"/>
<path d="M22.1673 2.33203H5.83398C4.90658 2.3348 4.01795 2.70444 3.36217 3.36022C2.70639 4.016 2.33675 4.90463 2.33398 5.83203V16.1687L6.86065 11.642C7.52764 11.0072 8.41318 10.6531 9.33398 10.6531C10.2548 10.6531 11.1403 11.0072 11.8073 11.642L15.1568 15.0102L16.1928 13.9742C16.8504 13.3203 17.74 12.9533 18.6673 12.9533C19.5946 12.9533 20.4843 13.3203 21.1418 13.9742L25.6673 18.502V5.83203C25.6645 4.90463 25.2949 4.016 24.6391 3.36022C23.9834 2.70444 23.0947 2.3348 22.1673 2.33203ZM15.7507 10.4987C15.2865 10.4987 14.8414 10.3143 14.5132 9.98614C14.185 9.65795 14.0007 9.21283 14.0007 8.7487C14.0007 8.28457 14.185 7.83945 14.5132 7.51126C14.8414 7.18307 15.2865 6.9987 15.7507 6.9987C16.2148 6.9987 16.6599 7.18307 16.9881 7.51126C17.3163 7.83945 17.5007 8.28457 17.5007 8.7487C17.5007 9.21283 17.3163 9.65795 16.9881 9.98614C16.6599 10.3143 16.2148 10.4987 15.7507 10.4987Z" fill="url(#paint0_linear_7181_93992)"/>
<path d="M11.8073 11.6442C11.1403 11.0093 10.2548 10.6553 9.33398 10.6553C8.41318 10.6553 7.52764 11.0093 6.86065 11.6442L2.33398 16.1708V22.1675C2.33675 23.0949 2.70639 23.9835 3.36217 24.6393C4.01795 25.2951 4.90658 25.6647 5.83398 25.6675H22.1673C23.1182 25.6675 24.0282 25.279 24.6873 24.5942L11.8073 11.6442Z" fill="#6198FF"/>
<path d="M25.6658 18.502L21.1403 13.9765C20.4827 13.3226 19.5931 12.9556 18.6658 12.9556C17.7385 12.9556 16.8488 13.3226 16.1913 13.9765L15.1553 15.0125L24.6811 24.5896C25.3134 23.9421 25.6669 23.073 25.6658 22.1676V18.502Z" fill="#D8EFFF"/>
<defs>
<linearGradient id="paint0_linear_7181_93992" x1="22.1562" y1="4.77168" x2="-5.48566" y2="20.0411" gradientUnits="userSpaceOnUse">
<stop stop-color="#94D2FF"/>
<stop offset="1" stop-color="#6198FF"/>
</linearGradient>
</defs>
</svg>
