<svg width="28" height="28" viewBox="0 0 28 28" fill="none" xmlns="http://www.w3.org/2000/svg">
<path d="M23.3333 2.625H4.66667C4.12613 2.62806 3.6086 2.84415 3.22637 3.22637C2.84415 3.6086 2.62806 4.12613 2.625 4.66667V23.3333C2.62806 23.8739 2.84415 24.3914 3.22637 24.7736C3.6086 25.1559 4.12613 25.3719 4.66667 25.375H23.3333C23.8739 25.3719 24.3914 25.1559 24.7736 24.7736C25.1559 24.3914 25.3719 23.8739 25.375 23.3333V4.66667C25.3719 4.12613 25.1559 3.6086 24.7736 3.22637C24.3914 2.84415 23.8739 2.62806 23.3333 2.625ZM20.7083 9.33333C20.7083 9.5654 20.6161 9.78796 20.4521 9.95205C20.288 10.1161 20.0654 10.2083 19.8333 10.2083C19.6013 10.2083 19.3787 10.1161 19.2146 9.95205C19.0505 9.78796 18.9583 9.5654 18.9583 9.33333V9.04167H14.875V18.9583H16.3333C16.5654 18.9583 16.788 19.0505 16.9521 19.2146C17.1161 19.3787 17.2083 19.6013 17.2083 19.8333C17.2083 20.0654 17.1161 20.288 16.9521 20.4521C16.788 20.6161 16.5654 20.7083 16.3333 20.7083H11.6667C11.4346 20.7083 11.212 20.6161 11.0479 20.4521C10.8839 20.288 10.7917 20.0654 10.7917 19.8333C10.7917 19.6013 10.8839 19.3787 11.0479 19.2146C11.212 19.0505 11.4346 18.9583 11.6667 18.9583H13.125V9.04167H9.04167V9.33333C9.04167 9.5654 8.94948 9.78796 8.78539 9.95205C8.62129 10.1161 8.39873 10.2083 8.16667 10.2083C7.9346 10.2083 7.71204 10.1161 7.54795 9.95205C7.38385 9.78796 7.29167 9.5654 7.29167 9.33333V8.16667C7.29469 7.93554 7.38785 7.71473 7.55129 7.55129C7.71473 7.38785 7.93554 7.29469 8.16667 7.29167H19.8333C20.0645 7.29469 20.2853 7.38785 20.4487 7.55129C20.6122 7.71473 20.7053 7.93554 20.7083 8.16667V9.33333ZM23.3333 4.375H4.66667C4.58931 4.375 4.51513 4.40573 4.46043 4.46043C4.40573 4.51513 4.375 4.58931 4.375 4.66667V23.3333C4.375 23.4107 4.40573 23.4849 4.46043 23.5396C4.51513 23.5943 4.58931 23.625 4.66667 23.625H23.3333C23.4107 23.625 23.4849 23.5943 23.5396 23.5396C23.5943 23.4849 23.625 23.4107 23.625 23.3333V4.66667C23.625 4.58931 23.5943 4.51513 23.5396 4.46043C23.4849 4.40573 23.4107 4.375 23.3333 4.375ZM20.7083 9.33333C20.7083 9.5654 20.6161 9.78796 20.4521 9.95205C20.288 10.1161 20.0654 10.2083 19.8333 10.2083C19.6013 10.2083 19.3787 10.1161 19.2146 9.95205C19.0505 9.78796 18.9583 9.5654 18.9583 9.33333V9.04167H14.875V18.9583H16.3333C16.5654 18.9583 16.788 19.0505 16.9521 19.2146C17.1161 19.3787 17.2083 19.6013 17.2083 19.8333C17.2083 20.0654 17.1161 20.288 16.9521 20.4521C16.788 20.6161 16.5654 20.7083 16.3333 20.7083H11.6667C11.4346 20.7083 11.212 20.6161 11.0479 20.4521C10.8839 20.288 10.7917 20.0654 10.7917 19.8333C10.7917 19.6013 10.8839 19.3787 11.0479 19.2146C11.212 19.0505 11.4346 18.9583 11.6667 18.9583H13.125V9.04167H9.04167V9.33333C9.04167 9.5654 8.94948 9.78796 8.78539 9.95205C8.62129 10.1161 8.39873 10.2083 8.16667 10.2083C7.9346 10.2083 7.71204 10.1161 7.54795 9.95205C7.38385 9.78796 7.29167 9.5654 7.29167 9.33333V8.16667C7.29469 7.93554 7.38785 7.71473 7.55129 7.55129C7.71473 7.38785 7.93554 7.29469 8.16667 7.29167H19.8333C20.0645 7.29469 20.2853 7.38785 20.4487 7.55129C20.6122 7.71473 20.7053 7.93554 20.7083 8.16667V9.33333Z" fill="url(#paint0_linear_7181_93983)"/>
<defs>
<linearGradient id="paint0_linear_7181_93983" x1="3.22" y1="24.7683" x2="24.78" y2="3.22" gradientUnits="userSpaceOnUse">
<stop stop-color="#6198FF"/>
<stop offset="1" stop-color="#94D2FF"/>
</linearGradient>
</defs>
</svg>
