<svg width="20" height="20" viewBox="0 0 20 20" fill="none" xmlns="http://www.w3.org/2000/svg">
<path d="M9.6 10.875L12.5 13.775C12.6833 13.9583 12.8958 14.0458 13.1375 14.0375C13.3792 14.0292 13.5917 13.9333 13.775 13.75C13.9583 13.5667 14.05 13.3542 14.05 13.1125C14.05 12.8708 13.9583 12.6587 13.775 12.476L10.875 9.5875L13.775 6.699C13.9583 6.51633 14.05 6.30417 14.05 6.0625C14.05 5.82083 13.9583 5.60833 13.775 5.425C13.5917 5.24167 13.3792 5.15 13.1375 5.15C12.8958 5.15 12.6833 5.24167 12.5 5.425L9.6 8.325L6.7 5.425C6.51667 5.24167 6.30833 5.15 6.075 5.15C5.84167 5.15 5.63333 5.24167 5.45 5.425C5.26667 5.60833 5.175 5.82083 5.175 6.0625C5.175 6.30417 5.26592 6.51667 5.44775 6.7L8.325 9.6L5.425 12.5C5.24167 12.6833 5.15417 12.8917 5.1625 13.125C5.17083 13.3583 5.26667 13.5667 5.45 13.75C5.63333 13.9333 5.84583 14.025 6.0875 14.025C6.32917 14.025 6.54092 13.9341 6.72275 13.7522L9.6 10.875ZM9.607 19.2C8.28567 19.2 7.04167 18.95 5.875 18.45C4.70833 17.95 3.6875 17.2625 2.8125 16.3875C1.9375 15.5125 1.25 14.492 0.75 13.326C0.25 12.16 0 10.9142 0 9.5885C0 8.26283 0.25 7.02083 0.75 5.8625C1.25 4.70417 1.9375 3.6875 2.8125 2.8125C3.6875 1.9375 4.708 1.25 5.874 0.75C7.04 0.25 8.28583 0 9.6115 0C10.9372 0 12.1792 0.25 13.3375 0.75C14.4958 1.25 15.5125 1.9375 16.3875 2.8125C17.2625 3.6875 17.95 4.706 18.45 5.868C18.95 7.03017 19.2 8.27183 19.2 9.593C19.2 10.9143 18.95 12.1583 18.45 13.325C17.95 14.4917 17.2625 15.5125 16.3875 16.3875C15.5125 17.2625 14.494 17.95 13.332 18.45C12.1698 18.95 10.9282 19.2 9.607 19.2ZM9.6 17.4C11.7667 17.4 13.6083 16.6417 15.125 15.125C16.6417 13.6083 17.4 11.7667 17.4 9.6C17.4 7.43333 16.6417 5.59167 15.125 4.075C13.6083 2.55833 11.7667 1.8 9.6 1.8C7.43333 1.8 5.59167 2.55833 4.075 4.075C2.55833 5.59167 1.8 7.43333 1.8 9.6C1.8 11.7667 2.55833 13.6083 4.075 15.125C5.59167 16.6417 7.43333 17.4 9.6 17.4Z" fill="#F87171"/>
</svg>
