<svg width="210" height="210" viewBox="0 0 210 210" fill="none" xmlns="http://www.w3.org/2000/svg">
<g clip-path="url(#clip0_7181_94023)">
<path fill-rule="evenodd" clip-rule="evenodd" d="M54.2773 36.5052C50.5788 11.4689 83.0818 -0.855906 96.9504 20.3375L97.5015 21.214L98.6095 22.9026C106.61 35.0238 117.967 44.5072 131.242 50.152C144.516 55.7968 159.112 57.349 173.181 54.6121C198.474 49.6881 211.728 84.2058 189.639 97.4748C177.31 104.887 166.549 117.876 161.402 129.005C155.324 142.147 153.275 156.858 155.514 171.263L155.948 173.988C159.817 198.989 127.455 211.602 113.42 190.535L111.629 187.865C103.546 175.763 92.1327 166.307 78.8185 160.68C65.5043 155.053 50.881 153.505 36.7798 156.231C11.4233 161.148 -1.84095 126.603 20.2905 113.287C32.5378 105.918 42.3402 95.0554 48.4813 82.0475C54.6224 69.0397 56.832 54.459 54.8357 40.1147L54.4634 37.7084L54.2773 36.5052Z" fill="url(#paint0_linear_7181_94023)"/>
</g>
<defs>
<linearGradient id="paint0_linear_7181_94023" x1="37.0809" y1="52.5436" x2="198.614" y2="177.568" gradientUnits="userSpaceOnUse">
<stop stop-color="white"/>
<stop offset="1" stop-color="white" stop-opacity="0.2"/>
</linearGradient>
<clipPath id="clip0_7181_94023">
<rect width="210" height="210" fill="white"/>
</clipPath>
</defs>
</svg>
