<svg width="151" height="130" viewBox="0 0 151 130" fill="none" xmlns="http://www.w3.org/2000/svg">
<path fill-rule="evenodd" clip-rule="evenodd" d="M25.1135 9.75624C26.0458 1.84684 36.9318 0.771703 39.4046 8.34881L39.5 8.66033L39.698 9.26428C41.1331 13.6035 43.8044 17.417 47.3736 20.2219C50.9428 23.0267 55.2494 24.6968 59.7481 25.0207C67.836 25.6017 69.028 37.1761 61.2282 39.3933C56.8741 40.6325 52.5384 43.6948 50.0609 46.6531C47.1355 50.1463 45.3048 54.4471 44.8024 59.0069L44.7103 59.8703C43.8327 67.7832 32.9659 68.9574 30.4323 61.4049L30.1073 60.4468C28.6455 56.1067 25.9548 52.2968 22.3722 49.4941C18.7896 46.6913 14.4743 45.0204 9.96672 44.6905C1.85995 44.1022 0.667081 32.5188 8.48382 30.2907C12.8095 29.0577 16.6793 26.5628 19.613 23.1155C22.5467 19.6681 24.4153 15.4201 24.9867 10.8986L25.0712 10.137L25.1135 9.75624Z" fill="url(#paint0_linear_7181_94011)"/>
<path fill-rule="evenodd" clip-rule="evenodd" d="M86.9196 21.0959C93.2935 9.70152 110.456 14.9026 109.447 27.9298L109.396 28.4615L109.317 29.5004C108.769 36.9727 110.422 44.4243 114.068 50.9117C117.714 57.399 123.189 62.6302 129.8 65.9429C141.685 71.8969 136.229 90.1748 123.025 88.6396C115.653 87.7849 107.165 89.703 101.557 92.6292C94.9347 96.0846 89.464 101.45 85.8425 108.041L85.1614 109.291C78.868 120.725 61.673 115.686 62.5737 102.658L62.6827 101.003C63.1914 93.5123 61.5063 86.0539 57.8385 79.5614C54.1707 73.0689 48.6832 67.831 42.0632 64.5035C30.1541 58.5267 35.6142 40.2345 48.8509 41.7638C56.1759 42.6102 63.6021 41.2592 70.208 37.8785C76.814 34.4978 82.3089 29.2362 86.011 22.7466L86.6167 21.6461L86.9196 21.0959Z" fill="url(#paint1_linear_7181_94011)"/>
<defs>
<linearGradient id="paint0_linear_7181_94011" x1="32.5344" y1="22.1583" x2="59.1244" y2="78.2927" gradientUnits="userSpaceOnUse">
<stop offset="0.00157268" stop-color="white"/>
<stop offset="1" stop-color="#C0DEFF"/>
</linearGradient>
<linearGradient id="paint1_linear_7181_94011" x1="55.2083" y1="23.4551" x2="150.835" y2="116.52" gradientUnits="userSpaceOnUse">
<stop offset="0.000639323" stop-color="#94D2FF"/>
<stop offset="1" stop-color="#6198FF"/>
</linearGradient>
</defs>
</svg>
