<svg width="36" height="36" viewBox="0 0 36 36" fill="none" xmlns="http://www.w3.org/2000/svg">
<path d="M3.8702 28.5149L3.8402 28.5449C3.4352 27.6599 3.1802 26.6549 3.0752 25.5449C3.1802 26.6399 3.4652 27.6299 3.8702 28.5149Z" fill="#6198FF"/>
<path d="M13.4997 15.5697C15.4713 15.5697 17.0697 13.9713 17.0697 11.9997C17.0697 10.028 15.4713 8.42969 13.4997 8.42969C11.528 8.42969 9.92969 10.028 9.92969 11.9997C9.92969 13.9713 11.528 15.5697 13.4997 15.5697Z" fill="#6198FF"/>
<path d="M24.285 3H11.715C6.255 3 3 6.255 3 11.715V24.285C3 25.92 3.285 27.345 3.84 28.545C5.13 31.395 7.89 33 11.715 33H24.285C29.745 33 33 29.745 33 24.285V20.85V11.715C33 6.255 29.745 3 24.285 3ZM30.555 18.75C29.385 17.745 27.495 17.745 26.325 18.75L20.085 24.105C18.915 25.11 17.025 25.11 15.855 24.105L15.345 23.685C14.28 22.755 12.585 22.665 11.385 23.475L5.775 27.24C5.445 26.4 5.25 25.425 5.25 24.285V11.715C5.25 7.485 7.485 5.25 11.715 5.25H24.285C28.515 5.25 30.75 7.485 30.75 11.715V18.915L30.555 18.75Z" fill="#6198FF"/>
</svg>
