<svg width="32" height="32" viewBox="0 0 32 32" fill="none" xmlns="http://www.w3.org/2000/svg">
<rect x="0.4" y="0.4" width="31.2" height="31.2" rx="15.6" fill="#FFFEFB"/>
<rect x="0.4" y="0.4" width="31.2" height="31.2" rx="15.6" stroke="#9CA3AF" stroke-width="0.8"/>
<path d="M15.3992 16.0008L19.2992 12.1008C19.4826 11.9174 19.5742 11.6841 19.5742 11.4008C19.5742 11.1174 19.4826 10.8841 19.2992 10.7008C19.1159 10.5174 18.8826 10.4258 18.5992 10.4258C18.3159 10.4258 18.0826 10.5174 17.8992 10.7008L13.2992 15.3008C13.1992 15.4008 13.1284 15.5091 13.0867 15.6258C13.0451 15.7424 13.0242 15.8674 13.0242 16.0008C13.0242 16.1341 13.0451 16.2591 13.0867 16.3758C13.1284 16.4924 13.1992 16.6008 13.2992 16.7008L17.8992 21.3008C18.0826 21.4841 18.3159 21.5758 18.5992 21.5758C18.8826 21.5758 19.1159 21.4841 19.2992 21.3008C19.4826 21.1174 19.5742 20.8841 19.5742 20.6008C19.5742 20.3174 19.4826 20.0841 19.2992 19.9008L15.3992 16.0008Z" fill="#9CA3AF"/>
</svg>
