<svg width="18" height="18" viewBox="0 0 18 18" fill="none" xmlns="http://www.w3.org/2000/svg">
<path d="M3.75 9.7487H12.1275L8.4675 13.4087C8.175 13.7012 8.175 14.1812 8.4675 14.4737C8.76 14.7662 9.2325 14.7662 9.525 14.4737L14.4675 9.5312C14.537 9.46182 14.5922 9.3794 14.6298 9.28867C14.6675 9.19794 14.6868 9.10068 14.6868 9.00245C14.6868 8.90423 14.6675 8.80696 14.6298 8.71623C14.5922 8.6255 14.537 8.54309 14.4675 8.4737L9.5325 3.5237C9.46306 3.45427 9.38063 3.39919 9.28991 3.36161C9.19918 3.32403 9.10195 3.30469 9.00375 3.30469C8.90555 3.30469 8.80832 3.32403 8.71759 3.36161C8.62687 3.39919 8.54444 3.45427 8.475 3.5237C8.40556 3.59314 8.35048 3.67557 8.3129 3.7663C8.27533 3.85702 8.25598 3.95426 8.25598 4.05245C8.25598 4.15065 8.27533 4.24789 8.3129 4.33861C8.35048 4.42933 8.40556 4.51177 8.475 4.5812L12.1275 8.2487H3.75C3.3375 8.2487 3 8.5862 3 8.9987C3 9.4112 3.3375 9.7487 3.75 9.7487Z" fill="#030712"/>
</svg>
