<svg width="32" height="32" viewBox="0 0 32 32" fill="none" xmlns="http://www.w3.org/2000/svg">
<rect width="32" height="32" rx="16" fill="#9CA3AF"/>
<path d="M16.6008 16.0008L12.7008 12.1008C12.5174 11.9174 12.4258 11.6841 12.4258 11.4008C12.4258 11.1174 12.5174 10.8841 12.7008 10.7008C12.8841 10.5174 13.1174 10.4258 13.4008 10.4258C13.6841 10.4258 13.9174 10.5174 14.1008 10.7008L18.7008 15.3008C18.8008 15.4008 18.8716 15.5091 18.9133 15.6258C18.9549 15.7424 18.9758 15.8674 18.9758 16.0008C18.9758 16.1341 18.9549 16.2591 18.9133 16.3758C18.8716 16.4924 18.8008 16.6008 18.7008 16.7008L14.1008 21.3008C13.9174 21.4841 13.6841 21.5758 13.4008 21.5758C13.1174 21.5758 12.8841 21.4841 12.7008 21.3008C12.5174 21.1174 12.4258 20.8841 12.4258 20.6008C12.4258 20.3174 12.5174 20.0841 12.7008 19.9008L16.6008 16.0008Z" fill="#FFFEFB"/>
</svg>
