<svg width="32" height="32" viewBox="0 0 32 32" fill="none" xmlns="http://www.w3.org/2000/svg">
<rect width="32" height="32" fill="url(#paint0_linear_794_1992)"/>
<path d="M8 26.0488L11.2182 6.84881H15.0364L14.6455 9.19426H14.8182C15.0485 8.81851 15.3545 8.43669 15.7364 8.04881C16.1242 7.65487 16.6061 7.3276 17.1818 7.06699C17.7576 6.80033 18.4333 6.66699 19.2091 6.66699C20.2333 6.66699 21.1273 6.93366 21.8909 7.46699C22.6545 7.99426 23.2061 8.79124 23.5455 9.8579C23.8909 10.9185 23.9303 12.2488 23.6636 13.8488C23.4091 15.4064 22.9394 16.7215 22.2545 17.7943C21.5758 18.8609 20.7606 19.67 19.8091 20.2215C18.8636 20.767 17.8606 21.0397 16.8 21.0397C16.0485 21.0397 15.4303 20.9155 14.9455 20.667C14.4667 20.4185 14.0939 20.1064 13.8273 19.7306C13.5606 19.3488 13.3727 18.964 13.2636 18.5761H13.1182L11.8818 26.0488H8Z" fill="#F5F5F5"/>
<path d="M23.7329 23.2002L23.3485 26.1335H13.5996L13.9768 23.2002H23.7329Z" fill="#F5F5F5"/>
<defs>
<linearGradient id="paint0_linear_794_1992" x1="16" y1="5.32468e-07" x2="-1.86667" y2="34.5333" gradientUnits="userSpaceOnUse">
<stop stop-color="#2979FF"/>
<stop offset="1" stop-color="#55BBFF"/>
</linearGradient>
</defs>
</svg>
