<svg width="144" height="144" viewBox="0 0 144 144" fill="none" xmlns="http://www.w3.org/2000/svg">
<rect width="144" height="144" rx="30" fill="white"/>
<path d="M52.6553 86.2676L50.4307 103.198C50.4303 108.266 46.2829 112.413 41.2148 112.413C36.1468 112.413 32.0004 108.266 32 103.198L39.5762 48.2393C39.5762 43.1708 43.7236 39.0244 48.792 39.0244H52.6553V86.2676Z" fill="url(#paint0_linear_6414_62067)"/>
<path d="M52.6553 86.2676L50.4307 103.198C50.4303 108.266 46.2829 112.413 41.2148 112.413C36.1468 112.413 32.0004 108.266 32 103.198L39.5762 48.2393C39.5762 43.1708 43.7236 39.0244 48.792 39.0244H52.6553V86.2676Z" fill="url(#paint1_radial_6414_62067)" fill-opacity="0.2"/>
<path d="M75.4473 104.345C78.3369 101.101 84.1095 101.419 84.1377 101.421V112.999H72.5508C72.5508 112.999 72.5508 107.596 75.4473 104.345ZM110.877 101.411C110.877 101.411 110.877 106.814 107.98 110.065C105.122 113.274 99.4409 112.997 99.293 112.989V112.998H84.1406V101.411H110.877Z" fill="url(#paint2_linear_6414_62067)"/>
<path d="M86.9668 31C93.6604 31.0001 99.3848 33.7678 104.053 39.3027C108.809 44.7352 111.187 51.3976 111.187 59.1875C111.186 66.8746 108.897 73.5374 104.229 78.9697C99.5617 84.4019 93.9246 87.2724 87.3193 87.375H62.7471L60.5449 102.305C59.6559 108.543 56.5812 112.555 51.7373 112.555C46.8935 112.555 42.9301 107.942 42.9297 102.305L48.2021 65.7578H51.1611V52.4004C51.1611 52.4004 50.7694 52.3789 50.1289 52.3984L51.7373 41.25C51.7373 35.6126 55.7 31.0002 60.5439 31H86.9668ZM51.165 65.7598H68.6465V65.749C68.7803 65.7562 75.362 66.0885 78.6699 62.376C82.0118 58.625 82.0117 52.3916 82.0117 52.3916H51.165V65.7598Z" fill="url(#paint3_linear_6414_62067)"/>
<path d="M86.9668 31C93.6604 31.0001 99.3848 33.7678 104.053 39.3027C108.809 44.7352 111.187 51.3976 111.187 59.1875C111.186 66.8746 108.897 73.5374 104.229 78.9697C99.5617 84.4019 93.9246 87.2724 87.3193 87.375H62.7471L60.5449 102.305C59.6559 108.543 56.5812 112.555 51.7373 112.555C46.8935 112.555 42.9301 107.942 42.9297 102.305L48.2021 65.7578H51.1611V52.4004C51.1611 52.4004 50.7694 52.3789 50.1289 52.3984L51.7373 41.25C51.7373 35.6126 55.7 31.0002 60.5439 31H86.9668ZM51.165 65.7598H68.6465V65.749C68.7803 65.7562 75.362 66.0885 78.6699 62.376C82.0118 58.625 82.0117 52.3916 82.0117 52.3916H51.165V65.7598Z" fill="url(#paint4_radial_6414_62067)" fill-opacity="0.26"/>
<path fill-rule="evenodd" clip-rule="evenodd" d="M114.344 23.0964C114.016 21.6282 111.949 21.6369 111.631 23.1085L111.619 23.1688L111.594 23.2862C111.408 24.1293 110.98 24.8975 110.364 25.4937C109.747 26.0898 108.97 26.4869 108.131 26.6348C106.623 26.9005 106.623 29.0984 108.131 29.3641C108.974 29.5127 109.847 30.0042 110.37 30.5122C110.988 31.1119 111.415 31.8847 111.597 32.7317L111.631 32.8922C111.949 34.3621 114.014 34.3724 114.344 32.9043L114.386 32.7179C114.577 31.8741 115.009 31.1062 115.628 30.5102C116.247 29.9142 117.025 29.5168 117.866 29.3676C119.378 29.1001 119.378 26.9005 117.866 26.6331C117.029 26.4851 116.254 26.0912 115.636 25.5002C115.018 24.9092 114.585 24.1471 114.39 23.3086L114.359 23.1671L114.344 23.0964Z" fill="url(#paint5_linear_6414_62067)"/>
<defs>
<linearGradient id="paint0_linear_6414_62067" x1="42.3276" y1="39.0244" x2="0.183207" y2="61.9509" gradientUnits="userSpaceOnUse">
<stop stop-color="#FFFEFB" stop-opacity="0"/>
<stop offset="1" stop-color="#55BBFF"/>
</linearGradient>
<radialGradient id="paint1_radial_6414_62067" cx="0" cy="0" r="1" gradientUnits="userSpaceOnUse" gradientTransform="translate(42.3276 75.7188) rotate(90) scale(36.6943 10.3276)">
<stop stop-color="#FFFEFB" stop-opacity="0"/>
<stop offset="1" stop-color="#2979FF"/>
</radialGradient>
<linearGradient id="paint2_linear_6414_62067" x1="91.7139" y1="101.411" x2="89.2933" y2="116.885" gradientUnits="userSpaceOnUse">
<stop stop-color="#2979FF"/>
<stop offset="1" stop-color="#55BBFF"/>
</linearGradient>
<linearGradient id="paint3_linear_6414_62067" x1="77.0581" y1="31" x2="27.1578" y2="111.723" gradientUnits="userSpaceOnUse">
<stop stop-color="#2979FF"/>
<stop offset="0.5" stop-color="#3F9AFF"/>
<stop offset="1" stop-color="#55BBFF"/>
</linearGradient>
<radialGradient id="paint4_radial_6414_62067" cx="0" cy="0" r="1" gradientUnits="userSpaceOnUse" gradientTransform="translate(77.0581 71.7773) rotate(90.077) scale(43.2227 36.175)">
<stop stop-color="white" stop-opacity="0"/>
<stop offset="1" stop-color="#0D47A1"/>
</radialGradient>
<linearGradient id="paint5_linear_6414_62067" x1="113" y1="22" x2="106.3" y2="34.95" gradientUnits="userSpaceOnUse">
<stop stop-color="#2979FF"/>
<stop offset="1" stop-color="#55BBFF"/>
</linearGradient>
</defs>
</svg>
