<svg width="24" height="24" viewBox="0 0 24 24" fill="none" xmlns="http://www.w3.org/2000/svg">
<path d="M10.5625 20.8473V17.1436C10.5625 16.889 10.6636 16.6448 10.8437 16.4648C11.0237 16.2847 11.2679 16.1836 11.5225 16.1836C11.7771 16.1836 12.0213 16.2847 12.2013 16.4648C12.3814 16.6448 12.4825 16.889 12.4825 17.1436V20.8473L12.4777 20.9442C12.4539 21.1811 12.343 21.4006 12.1665 21.5603C11.99 21.7199 11.7605 21.8084 11.5225 21.8084C11.2845 21.8084 11.055 21.7199 10.8785 21.5603C10.702 21.4006 10.5911 21.1811 10.5673 20.9442L10.5625 20.8473Z" fill="#2979FF"/>
<path d="M15.0825 7.17217L15.502 5.70337C15.5733 5.45388 15.5858 5.19123 15.5383 4.93612C15.4909 4.681 15.3849 4.44038 15.2286 4.23322C15.0724 4.02605 14.8701 3.858 14.6379 3.74228C14.4056 3.62657 14.1497 3.56637 13.8902 3.56641H9.8188C9.48918 3.56637 9.16366 3.6395 8.86572 3.78052C8.56779 3.92154 8.30487 4.12693 8.09594 4.38187C7.887 4.63682 7.73726 4.93496 7.65752 5.2548C7.57777 5.57463 7.57002 5.90817 7.6348 6.23137C7.6636 6.37537 7.678 6.52097 7.678 6.66817V10.392C7.678 11.255 7.3756 12.0912 6.8236 12.7536L5.98456 13.7597C5.77937 14.0061 5.64862 14.3058 5.60761 14.6239C5.5666 14.9419 5.61704 15.265 5.75302 15.5554C5.889 15.8458 6.10489 16.0914 6.37542 16.2636C6.64595 16.4357 6.95991 16.5272 7.28056 16.5274H15.8937C16.1207 16.5273 16.3435 16.4656 16.5383 16.3488C16.7331 16.2321 16.8925 16.0647 16.9996 15.8645C17.1067 15.6643 17.1575 15.4387 17.1465 15.2119C17.1355 14.9851 17.0632 14.7656 16.9372 14.5766L15.9964 13.1645C15.5764 12.5363 15.314 11.8161 15.2313 11.065L14.9596 8.62561C14.9047 8.13813 14.9461 7.64462 15.0815 7.17313L15.0825 7.17217Z" fill="#2979FF"/>
<path d="M6.89586 10.9027V7.20675C6.89586 6.88515 6.78258 6.52515 6.57426 6.08547C6.45503 5.83637 6.35553 5.5783 6.27666 5.31363C6.02226 4.45059 6.35346 3.70083 6.91314 3.23235C7.4277 2.80131 8.11794 2.60547 8.76018 2.60547H12.1327L12.2296 2.61027C12.4664 2.63404 12.686 2.74493 12.8457 2.92144C13.0053 3.09794 13.0937 3.32746 13.0937 3.56547C13.0937 3.80348 13.0053 4.033 12.8457 4.2095C12.686 4.386 12.4664 4.4969 12.2296 4.52067L12.1327 4.52547H8.76018C8.4693 4.52547 8.24466 4.62051 8.14578 4.70403C8.1325 4.71397 8.12056 4.72558 8.11026 4.73859C8.11026 4.74499 8.1125 4.75587 8.11698 4.77123C8.16498 4.93443 8.23218 5.10147 8.30706 5.26083C8.55858 5.78883 8.81586 6.45795 8.81586 7.20675V10.9027C8.81586 11.8915 8.39154 12.7949 7.75122 13.4631C7.34649 13.8812 6.9715 14.327 6.62898 14.7975C6.51954 14.9511 6.5013 15.0567 6.49938 15.1066C6.498 15.1617 6.51563 15.2156 6.5493 15.2592C6.63474 15.3802 6.88722 15.5664 7.3461 15.5664H12.1327L12.2296 15.5703C12.4664 15.594 12.686 15.7049 12.8457 15.8814C13.0053 16.0579 13.0937 16.2875 13.0937 16.5255C13.0937 16.7635 13.0053 16.993 12.8457 17.1695C12.686 17.346 12.4664 17.4569 12.2296 17.4807L12.1327 17.4855H7.34514C6.39858 17.4855 5.4933 17.0995 4.97682 16.3623C4.42002 15.5693 4.44306 14.5507 5.06706 13.6791C5.40882 13.2039 5.83506 12.6855 6.36498 12.1335C6.70866 11.7754 6.89586 11.3338 6.89586 10.9027Z" fill="#2979FF"/>
<path d="M16.1432 10.9027V7.20675C16.1432 6.88515 16.2555 6.52515 16.4648 6.08547C16.5762 5.85315 16.6818 5.59107 16.7624 5.31363C17.0168 4.45059 16.6856 3.70083 16.1259 3.23235C15.6114 2.80131 14.9211 2.60547 14.2789 2.60547H10.9064L10.8094 2.61027C10.5726 2.63404 10.3531 2.74493 10.1934 2.92144C10.0337 3.09794 9.94531 3.32746 9.94531 3.56547C9.94531 3.80348 10.0337 4.033 10.1934 4.2095C10.3531 4.386 10.5726 4.4969 10.8094 4.52067L10.9064 4.52547H14.2789C14.5698 4.52547 14.7944 4.62051 14.8933 4.70403C14.9112 4.71939 14.923 4.73091 14.9288 4.73859C14.9288 4.74499 14.9266 4.75587 14.9221 4.77123C14.8741 4.93443 14.8069 5.10147 14.732 5.26083C14.4805 5.78883 14.2232 6.45795 14.2232 7.20675V10.9027C14.2232 11.8915 14.6475 12.7949 15.2878 13.4631C15.7582 13.9536 16.1259 14.4019 16.4101 14.7975C16.5195 14.9511 16.5378 15.0567 16.5387 15.1066C16.5404 15.1616 16.5231 15.2155 16.4898 15.2592C16.4043 15.3802 16.1518 15.5664 15.693 15.5664H10.9064L10.8094 15.5703C10.5726 15.594 10.3531 15.7049 10.1934 15.8814C10.0337 16.0579 9.94531 16.2875 9.94531 16.5255C9.94531 16.7635 10.0337 16.993 10.1934 17.1695C10.3531 17.346 10.5726 17.4569 10.8094 17.4807L10.9064 17.4855H15.693C16.6395 17.4855 17.5448 17.0995 18.0613 16.3623C18.6181 15.5693 18.595 14.5507 17.971 13.6791C17.5751 13.1341 17.1414 12.6177 16.6731 12.1335C16.3294 11.7754 16.1432 11.3338 16.1432 10.9027Z" fill="#2979FF"/>
</svg>
