<svg width="24" height="24" viewBox="0 0 24 24" fill="none" xmlns="http://www.w3.org/2000/svg">
<path fill-rule="evenodd" clip-rule="evenodd" d="M12 16.1445C12.2652 16.1445 12.5196 16.2499 12.7071 16.4374C12.8946 16.625 13 16.8793 13 17.1445V21.0015C13 21.2667 12.8946 21.5211 12.7071 21.7086C12.5196 21.8962 12.2652 22.0015 12 22.0015C11.7348 22.0015 11.4804 21.8962 11.2929 21.7086C11.1054 21.5211 11 21.2667 11 21.0015V17.1445C11 16.8793 11.1054 16.625 11.2929 16.4374C11.4804 16.2499 11.7348 16.1445 12 16.1445Z" fill="#030712"/>
<path fill-rule="evenodd" clip-rule="evenodd" d="M8.44383 4.223C8.44383 4.22967 8.44616 4.24067 8.45083 4.256C8.50083 4.426 8.57083 4.6 8.64883 4.766C8.91083 5.315 9.17883 6.012 9.17883 6.793V10.643C9.17883 11.673 8.73683 12.613 8.06983 13.309C7.57983 13.821 7.19683 14.288 6.90083 14.7C6.78683 14.86 6.76783 14.969 6.76583 15.021C6.76416 15.0787 6.78253 15.1353 6.81783 15.181C6.90683 15.307 7.16983 15.5 7.64783 15.5H12.6328C12.7642 15.5 12.8942 15.5259 13.0155 15.5761C13.1368 15.6264 13.2471 15.7 13.3399 15.7929C13.4328 15.8858 13.5065 15.996 13.5567 16.1173C13.607 16.2386 13.6328 16.3687 13.6328 16.5C13.6328 16.6313 13.607 16.7614 13.5567 16.8827C13.5065 17.004 13.4328 17.1142 13.3399 17.2071C13.2471 17.3 13.1368 17.3736 13.0155 17.4239C12.8942 17.4741 12.7642 17.5 12.6328 17.5H7.64883C6.66183 17.5 5.71883 17.097 5.18083 16.33C4.60083 15.503 4.62483 14.443 5.27583 13.535C5.63083 13.04 6.07583 12.5 6.62583 11.925C6.98383 11.552 7.17883 11.092 7.17883 10.643V6.793C7.17883 6.458 7.06083 6.083 6.84283 5.625C6.71858 5.3652 6.61493 5.09604 6.53283 4.82C6.26783 3.922 6.61383 3.14 7.19683 2.652C7.73283 2.204 8.45183 2 9.12083 2H12.6328C12.898 2 13.1524 2.10536 13.3399 2.29289C13.5275 2.48043 13.6328 2.73478 13.6328 3C13.6328 3.26522 13.5275 3.51957 13.3399 3.70711C13.1524 3.89464 12.898 4 12.6328 4H9.12083C8.81783 4 8.58483 4.099 8.48083 4.186C8.46693 4.19666 8.45449 4.2091 8.44383 4.223Z" fill="#030712"/>
<path fill-rule="evenodd" clip-rule="evenodd" d="M15.5484 4.223C15.4949 4.40939 15.426 4.59102 15.3424 4.766C15.0824 5.315 14.8134 6.012 14.8134 6.793V10.643C14.8134 11.673 15.2554 12.613 15.9224 13.309C16.4124 13.821 16.7954 14.288 17.0914 14.7C17.2054 14.86 17.2244 14.969 17.2264 15.021C17.228 15.0787 17.2097 15.1353 17.1744 15.181C17.0854 15.307 16.8224 15.5 16.3444 15.5H11.3594C11.2281 15.5 11.098 15.5259 10.9767 15.5761C10.8554 15.6264 10.7451 15.7 10.6523 15.7929C10.5594 15.8858 10.4858 15.996 10.4355 16.1173C10.3852 16.2386 10.3594 16.3687 10.3594 16.5C10.3594 16.6313 10.3852 16.7614 10.4355 16.8827C10.4858 17.004 10.5594 17.1142 10.6523 17.2071C10.7451 17.3 10.8554 17.3736 10.9767 17.4239C11.098 17.4741 11.2281 17.5 11.3594 17.5H16.3444C17.3304 17.5 18.2724 17.097 18.8114 16.33C19.3914 15.503 19.3674 14.443 18.7164 13.535C18.3614 13.04 17.9164 12.5 17.3664 11.925C17.0084 11.552 16.8134 11.092 16.8134 10.643V6.793C16.8134 6.458 16.9314 6.083 17.1484 5.625C17.2644 5.382 17.3744 5.11 17.4594 4.82C17.7244 3.922 17.3784 3.14 16.7954 2.652C16.2594 2.204 15.5404 2 14.8714 2H11.3594C11.0942 2 10.8398 2.10536 10.6523 2.29289C10.4647 2.48043 10.3594 2.73478 10.3594 3C10.3594 3.26522 10.4647 3.51957 10.6523 3.70711C10.8398 3.89464 11.0942 4 11.3594 4H14.8714C15.1744 4 15.4074 4.099 15.5114 4.186C15.5307 4.20333 15.543 4.21567 15.5484 4.223Z" fill="#030712"/>
</svg>
