<svg width="24" height="24" viewBox="0 0 24 24" fill="none" xmlns="http://www.w3.org/2000/svg">
<path d="M18 15.7539C18 17.4872 17.3917 18.9622 16.175 20.1789C14.9583 21.3956 13.4833 22.0039 11.75 22.0039C10.0167 22.0039 8.54167 21.3956 7.325 20.1789C6.10833 18.9622 5.5 17.4872 5.5 15.7539V6.50391C5.5 5.25391 5.9375 4.19141 6.8125 3.31641C7.6875 2.44141 8.75 2.00391 10 2.00391C11.25 2.00391 12.3125 2.44141 13.1875 3.31641C14.0625 4.19141 14.5 5.25391 14.5 6.50391V15.2539C14.5 16.0206 14.2333 16.6706 13.7 17.2039C13.1667 17.7372 12.5167 18.0039 11.75 18.0039C10.9833 18.0039 10.3333 17.7372 9.8 17.2039C9.26667 16.6706 9 16.0206 9 15.2539V7.00391C9 6.72057 9.09583 6.48307 9.2875 6.29141C9.47917 6.09974 9.71667 6.00391 10 6.00391C10.2833 6.00391 10.5208 6.09974 10.7125 6.29141C10.9042 6.48307 11 6.72057 11 7.00391V15.2539C11 15.4706 11.0708 15.6497 11.2125 15.7914C11.3542 15.9331 11.5333 16.0039 11.75 16.0039C11.9667 16.0039 12.1458 15.9331 12.2875 15.7914C12.4292 15.6497 12.5 15.4706 12.5 15.2539V6.50391C12.4833 5.80391 12.2375 5.21224 11.7625 4.72891C11.2875 4.24557 10.7 4.00391 10 4.00391C9.3 4.00391 8.70833 4.24557 8.225 4.72891C7.74167 5.21224 7.5 5.80391 7.5 6.50391V15.7539C7.48333 16.9372 7.89167 17.9414 8.725 18.7664C9.55833 19.5914 10.5667 20.0039 11.75 20.0039C12.9167 20.0039 13.9083 19.5914 14.725 18.7664C15.5417 17.9414 15.9667 16.9372 16 15.7539V7.00391C16 6.72057 16.0958 6.48307 16.2875 6.29141C16.4792 6.09974 16.7167 6.00391 17 6.00391C17.2833 6.00391 17.5208 6.09974 17.7125 6.29141C17.9042 6.48307 18 6.72057 18 7.00391V15.7539Z" fill="#6B7280"/>
</svg>
