<svg width="17" height="17" viewBox="0 0 17 17" fill="none" xmlns="http://www.w3.org/2000/svg">
<rect x="0.5" y="0.5" width="15.4" height="15.4" rx="7.7" fill="#999898"/>
<rect x="0.5" y="0.5" width="15.4" height="15.4" rx="7.7" stroke="#FFFEFB"/>
<path d="M4.9 12.4C4.6525 12.4 4.44062 12.3104 4.26437 12.1312C4.08812 11.9521 4 11.7417 4 11.5V4.9C4 4.65833 4.08812 4.44792 4.26437 4.26875C4.44062 4.08958 4.6525 4 4.9 4H11.5C11.7475 4 11.9594 4.08958 12.1356 4.26875C12.3119 4.44792 12.4 4.65833 12.4 4.9V11.5C12.4 11.7417 12.3119 11.9521 12.1356 12.1312C11.9594 12.3104 11.7475 12.4 11.5 12.4H4.9ZM4.9 11.5H11.5V4.9H4.9V11.5ZM5.95 10.6H10.4524C10.5425 10.6 10.6083 10.5583 10.65 10.475C10.6917 10.3917 10.6833 10.3125 10.625 10.2375L9.275 8.4375C9.23125 8.37083 9.17292 8.3375 9.1 8.3375C9.02708 8.3375 8.96875 8.37083 8.925 8.4375L7.75 10L7.025 9.0375C6.98125 8.97083 6.92292 8.9375 6.85 8.9375C6.77708 8.9375 6.71875 8.97083 6.675 9.0375L5.77725 10.2379C5.71742 10.3126 5.70937 10.3917 5.75312 10.475C5.79687 10.5583 5.8625 10.6 5.95 10.6Z" fill="#FFFEFB"/>
</svg>
