<svg width="20" height="20" viewBox="0 0 20 20" fill="none" xmlns="http://www.w3.org/2000/svg">
<rect x="0.25" y="0.25" width="19.5" height="19.5" rx="9.75" fill="white"/>
<rect x="0.25" y="0.25" width="19.5" height="19.5" rx="9.75" stroke="#999898" stroke-width="0.5"/>
<path d="M6.67986 8.66087C6.67344 8.76764 6.67023 8.87841 6.67023 8.99316C6.67023 11.2497 6.19783 11.6663 5.52934 12.4848C5.25226 12.8239 5.49471 13.333 5.9796 13.333H11.6666V13.7497C11.6666 14.1917 11.491 14.6156 11.1784 14.9282C10.8659 15.2407 10.4419 15.4163 9.99991 15.4163C9.55789 15.4163 9.13396 15.2407 8.8214 14.9282C8.50884 14.6156 8.33325 14.1917 8.33325 13.7497V13.333M14.1275 12.0648C13.6463 11.4541 13.3301 10.8395 13.3301 8.99186C13.3301 6.92676 12.2749 6.19056 11.4062 5.83301C11.2908 5.78561 11.1822 5.67676 11.147 5.55827C10.995 5.03978 10.5681 4.58301 9.99991 4.58301C9.43169 4.58301 9.00512 5.04004 8.85408 5.55879C8.81893 5.67858 8.71033 5.78561 8.59366 5.83301C8.43248 5.89875 8.27587 5.97522 8.12491 6.06191" stroke="#999898" stroke-linecap="round" stroke-linejoin="round"/>
<path d="M15 15L5 5" stroke="#999898" stroke-miterlimit="10" stroke-linecap="round"/>
</svg>
