<svg width="24" height="24" viewBox="0 0 24 24" fill="none" xmlns="http://www.w3.org/2000/svg">
<g clip-path="url(#clip0_7978_66981)">
<path d="M24 12.0002C24 5.37283 18.6274 0.000244141 12 0.000244141C5.37258 0.000244141 0 5.37283 0 12.0002C0 18.6277 5.37258 24.0002 12 24.0002C18.6274 24.0002 24 18.6277 24 12.0002Z" fill="#9CA3AF"/>
<path d="M11.9975 14.4003C14.6495 14.4003 16.7975 12.2523 16.7975 9.60029C16.7975 6.94829 14.6495 4.80029 11.9975 4.80029C9.34546 4.80029 7.19746 6.94829 7.19746 9.60029C7.19746 12.2523 9.34546 14.4003 11.9975 14.4003ZM11.9975 16.8003C8.79346 16.8003 2.39746 18.4083 2.39746 21.6003V22.8003C2.39746 23.463 2.93472 24.0003 3.59746 24.0003H20.3975C21.0602 24.0003 21.5975 23.463 21.5975 22.8003V21.6003C21.5975 18.4083 15.2015 16.8003 11.9975 16.8003Z" fill="#FFFEFB"/>
</g>
<defs>
<clipPath id="clip0_7978_66981">
<rect width="24" height="24" fill="white"/>
</clipPath>
</defs>
</svg>
