<svg width="18" height="18" viewBox="0 0 18 18" fill="none" xmlns="http://www.w3.org/2000/svg">
<g clip-path="url(#clip0_6986_71042)">
<path d="M3.75 9.75066H12.1275L8.4675 13.4107C8.175 13.7032 8.175 14.1832 8.4675 14.4757C8.76 14.7682 9.2325 14.7682 9.525 14.4757L14.4675 9.53316C14.537 9.46377 14.5922 9.38135 14.6298 9.29062C14.6675 9.19989 14.6868 9.10263 14.6868 9.00441C14.6868 8.90618 14.6675 8.80892 14.6298 8.71819C14.5922 8.62746 14.537 8.54504 14.4675 8.47566L9.5325 3.52566C9.46306 3.45622 9.38063 3.40114 9.28991 3.36356C9.19918 3.32598 9.10195 3.30664 9.00375 3.30664C8.90555 3.30664 8.80832 3.32598 8.71759 3.36356C8.62687 3.40114 8.54444 3.45622 8.475 3.52566C8.40556 3.59509 8.35048 3.67753 8.3129 3.76825C8.27533 3.85897 8.25598 3.95621 8.25598 4.05441C8.25598 4.1526 8.27533 4.24984 8.3129 4.34056C8.35048 4.43129 8.40556 4.51372 8.475 4.58316L12.1275 8.25066H3.75C3.3375 8.25066 3 8.58816 3 9.00066C3 9.41316 3.3375 9.75066 3.75 9.75066Z" fill="#030712"/>
</g>
<defs>
<clipPath id="clip0_6986_71042">
<rect width="18" height="18" fill="white"/>
</clipPath>
</defs>
</svg>
