<svg width="32" height="32" viewBox="0 0 32 32" fill="none" xmlns="http://www.w3.org/2000/svg">
<path d="M15.2424 8.48644L17.8708 5.85817C18.9838 4.84498 20.4442 4.29936 21.9488 4.33462C23.4535 4.36987 24.8867 4.98328 25.951 6.04749C27.0152 7.11169 27.6287 8.54492 27.6641 10.0496C27.6994 11.5542 27.1539 13.0146 26.1408 14.1276L22.384 17.8709C21.2932 18.9658 19.8121 19.5825 18.2665 19.5854C16.721 19.5883 15.2375 18.9772 14.1426 17.8864L14.127 17.8709" stroke="black" stroke-width="2" stroke-linecap="round" stroke-linejoin="round"/>
<path d="M16.7573 23.5131L14.1289 26.1413C13.0159 27.1545 11.5555 27.7001 10.0509 27.6649C8.54622 27.6296 7.11297 27.0162 6.0487 25.952C4.98443 24.8878 4.37094 23.4546 4.3356 21.9499C4.30026 20.4453 4.8458 18.9849 5.85893 17.8719L9.61566 14.1286C10.7065 13.0337 12.1876 12.417 13.7332 12.4141C15.2787 12.4112 16.7621 13.0223 17.8571 14.1131L17.8727 14.1286" stroke="black" stroke-width="2" stroke-linecap="round" stroke-linejoin="round"/>
</svg>
