<svg width="12" height="12" viewBox="0 0 12 12" fill="none" xmlns="http://www.w3.org/2000/svg">
<path d="M6.00039 6.70039L3.55039 9.15039C3.45872 9.24206 3.34206 9.28789 3.20039 9.28789C3.05872 9.28789 2.94206 9.24206 2.85039 9.15039C2.75872 9.05872 2.71289 8.94206 2.71289 8.80039C2.71289 8.65872 2.75872 8.54206 2.85039 8.45039L5.30039 6.00039L2.85039 3.55039C2.75872 3.45872 2.71289 3.34206 2.71289 3.20039C2.71289 3.05872 2.75872 2.94206 2.85039 2.85039C2.94206 2.75872 3.05872 2.71289 3.20039 2.71289C3.34206 2.71289 3.45872 2.75872 3.55039 2.85039L6.00039 5.30039L8.45039 2.85039C8.54206 2.75872 8.65872 2.71289 8.80039 2.71289C8.94206 2.71289 9.05872 2.75872 9.15039 2.85039C9.24206 2.94206 9.28789 3.05872 9.28789 3.20039C9.28789 3.34206 9.24206 3.45872 9.15039 3.55039L6.70039 6.00039L9.15039 8.45039C9.24206 8.54206 9.28789 8.65872 9.28789 8.80039C9.28789 8.94206 9.24206 9.05872 9.15039 9.15039C9.05872 9.24206 8.94206 9.28789 8.80039 9.28789C8.65872 9.28789 8.54206 9.24206 8.45039 9.15039L6.00039 6.70039Z" fill="#2979FF"/>
</svg>
