<svg width="18" height="18" viewBox="0 0 18 18" fill="none" xmlns="http://www.w3.org/2000/svg">
<path d="M15.1875 2.8125H2.8125C2.51413 2.8125 2.22798 2.93103 2.017 3.142C1.80603 3.35298 1.6875 3.63913 1.6875 3.9375V14.0625C1.6875 14.3609 1.80603 14.647 2.017 14.858C2.22798 15.069 2.51413 15.1875 2.8125 15.1875H15.1875C15.4859 15.1875 15.772 15.069 15.983 14.858C16.194 14.647 16.3125 14.3609 16.3125 14.0625V3.9375C16.3125 3.63913 16.194 3.35298 15.983 3.142C15.772 2.93103 15.4859 2.8125 15.1875 2.8125ZM6.525 10.2375C6.64435 10.327 6.72325 10.4603 6.74435 10.6079C6.76544 10.7556 6.72701 10.9057 6.6375 11.025C6.54799 11.1443 6.41473 11.2232 6.26705 11.2443C6.11936 11.2654 5.96935 11.227 5.85 11.1375L3.6 9.45C3.53014 9.3976 3.47344 9.32966 3.43438 9.25156C3.39533 9.17345 3.375 9.08733 3.375 9C3.375 8.91267 3.39533 8.82655 3.43438 8.74844C3.47344 8.67034 3.53014 8.6024 3.6 8.55L5.85 6.8625C5.96935 6.77299 6.11936 6.73456 6.26705 6.75565C6.41473 6.77675 6.54799 6.85565 6.6375 6.975C6.72701 7.09435 6.76544 7.24436 6.74435 7.39205C6.72325 7.53973 6.64435 7.67299 6.525 7.7625L4.87477 9L6.525 10.2375ZM10.6657 5.21719L8.4157 13.0922C8.39653 13.1645 8.36313 13.2322 8.31747 13.2914C8.2718 13.3506 8.21479 13.4002 8.14975 13.4371C8.08472 13.474 8.01298 13.4976 7.93873 13.5065C7.86447 13.5154 7.78919 13.5093 7.71729 13.4888C7.64539 13.4682 7.57832 13.4335 7.51999 13.3867C7.46166 13.3399 7.41325 13.2819 7.37759 13.2162C7.34193 13.1505 7.31973 13.0783 7.3123 13.0039C7.30486 12.9294 7.31234 12.8543 7.3343 12.7828L9.5843 4.90781C9.62754 4.767 9.7243 4.64877 9.85377 4.57853C9.98324 4.50828 10.1351 4.49163 10.2767 4.53215C10.4183 4.57266 10.5384 4.66711 10.6112 4.79521C10.6839 4.9233 10.7035 5.07481 10.6657 5.21719ZM14.4 9.45L12.15 11.1375C12.0307 11.227 11.8806 11.2654 11.7329 11.2443C11.5853 11.2232 11.452 11.1443 11.3625 11.025C11.273 10.9057 11.2346 10.7556 11.2557 10.6079C11.2768 10.4603 11.3557 10.327 11.475 10.2375L13.1252 9L11.475 7.7625C11.4159 7.71818 11.3661 7.66265 11.3285 7.59909C11.2908 7.53553 11.2661 7.46518 11.2557 7.39205C11.2452 7.31892 11.2493 7.24446 11.2676 7.1729C11.2859 7.10134 11.3182 7.03409 11.3625 6.975C11.4068 6.9159 11.4623 6.86612 11.5259 6.82848C11.5895 6.79085 11.6598 6.7661 11.7329 6.75565C11.8061 6.74521 11.8805 6.74927 11.9521 6.7676C12.0237 6.78593 12.0909 6.81818 12.15 6.8625L14.4 8.55C14.4699 8.6024 14.5266 8.67034 14.5656 8.74844C14.6047 8.82655 14.625 8.91267 14.625 9C14.625 9.08733 14.6047 9.17345 14.5656 9.25156C14.5266 9.32966 14.4699 9.3976 14.4 9.45Z" fill="#2979FF"/>
</svg>
