<svg width="18" height="18" viewBox="0 0 18 18" fill="none" xmlns="http://www.w3.org/2000/svg">
<path d="M9.82633 1.57422C6.71608 1.57422 4.20808 4.00797 4.05133 7.06872L2.46733 9.15597C2.26933 9.41172 2.46733 9.82422 2.81383 9.82422H4.05133V12.2992C4.05133 13.215 4.78558 13.9492 5.70133 13.9492H6.52633V16.4242H12.3013V12.555C14.2566 11.631 15.6013 9.65922 15.6013 7.34922C15.6013 4.16472 13.0273 1.57422 9.82633 1.57422ZM10.6513 10.6492H9.00133V9.82422H10.6513V10.6492ZM11.9713 6.93672C11.7516 7.3077 11.4388 7.61484 11.0638 7.82772V8.99922H8.58883V7.82772C7.40908 7.14297 6.99658 5.63322 7.68133 4.46172C8.36608 3.29022 9.88408 2.86122 11.0638 3.53772C12.2436 4.21422 12.6561 5.74047 11.9713 6.93672Z" fill="#2979FF"/>
</svg>
