<svg width="18" height="18" viewBox="0 0 18 18" fill="none" xmlns="http://www.w3.org/2000/svg">
<path d="M4 5C4 4.20435 4.31607 3.44129 4.87868 2.87868C5.44129 2.31607 6.20435 2 7 2H13C13.7956 2 14.5587 2.31607 15.1213 2.87868C15.6839 3.44129 16 4.20435 16 5V11C16.0012 11.6231 15.8071 12.2309 15.445 12.738L11.21 8.502C10.8893 8.18141 10.4544 8.00131 10.001 8.00131C9.54755 8.00131 9.11267 8.18141 8.792 8.502L4.556 12.738C4.1947 12.2305 4.00037 11.623 4 11V5ZM7.498 6.497C7.63165 6.50123 7.76479 6.47856 7.88951 6.43034C8.01423 6.38211 8.12798 6.30932 8.22402 6.21627C8.32006 6.12323 8.39642 6.01183 8.44856 5.8887C8.50071 5.76557 8.52758 5.63322 8.52758 5.4995C8.52758 5.36578 8.50071 5.23343 8.44856 5.1103C8.39642 4.98717 8.32006 4.87577 8.22402 4.78273C8.12798 4.68968 8.01423 4.61689 7.88951 4.56866C7.76479 4.52044 7.63165 4.49777 7.498 4.502C7.23891 4.5102 6.99318 4.61889 6.81281 4.80507C6.63244 4.99124 6.53159 5.24028 6.53159 5.4995C6.53159 5.75872 6.63244 6.00776 6.81281 6.19394C6.99318 6.38011 7.23891 6.4888 7.498 6.497ZM10.502 9.209L14.738 13.445C14.2309 13.8072 13.6231 14.0013 13 14H7C6.3771 13.9999 5.76966 13.8059 5.262 13.445L9.498 9.209C9.63114 9.07588 9.81172 9.00109 10 9.00109C10.1883 9.00109 10.3688 9.07588 10.502 9.209ZM13.236 15C12.686 15.614 11.888 16 11 16H6.5C5.30652 16 4.16193 15.5259 3.31802 14.682C2.47411 13.8381 2 12.6935 2 11.5V7C2 6.112 2.386 5.313 3 4.764V11.5C3 11.62 3.006 11.7393 3.018 11.858C3.10661 12.7198 3.5117 13.5181 4.15489 14.0985C4.79808 14.6789 5.63366 15.0001 6.5 15H13.236Z" fill="#2979FF"/>
</svg>
