<svg width="18" height="18" viewBox="0 0 18 18" fill="none" xmlns="http://www.w3.org/2000/svg">
<path d="M16.9858 8.62668C16.2401 5.25555 15.1179 3.45625 13.4533 2.96477C13.1034 2.86211 12.7404 2.81084 12.3757 2.81254C11.8938 2.81254 11.474 2.92996 11.03 3.05442C10.4949 3.20453 9.88703 3.37504 9.00074 3.37504C8.11445 3.37504 7.50625 3.20488 6.97012 3.05477C6.52574 2.92996 6.10633 2.81254 5.62574 2.81254C5.24867 2.81122 4.87323 2.86233 4.51024 2.96442C2.85438 3.45379 1.73289 5.25239 0.97633 8.62457C0.162814 12.2534 0.563244 14.5445 2.09922 15.0761C2.30976 15.1503 2.53129 15.1886 2.75453 15.1893C3.80676 15.1893 4.65051 14.3129 5.22707 13.5953C5.87852 12.7832 6.64106 12.3712 9.00074 12.3712C11.1084 12.3712 11.9806 12.657 12.734 13.5953C13.2075 14.1852 13.6551 14.598 14.1016 14.8578C14.6954 15.203 15.2888 15.2796 15.865 15.0817C16.7727 14.772 17.293 13.9532 17.4119 12.6475C17.5022 11.6463 17.363 10.3311 16.9858 8.62668ZM7.31324 8.43754H6.18824V9.56254C6.18824 9.71173 6.12898 9.8548 6.02349 9.96029C5.918 10.0658 5.77493 10.125 5.62574 10.125C5.47656 10.125 5.33349 10.0658 5.228 9.96029C5.12251 9.8548 5.06324 9.71173 5.06324 9.56254V8.43754H3.93824C3.78906 8.43754 3.64599 8.37828 3.5405 8.27279C3.43501 8.1673 3.37574 8.02423 3.37574 7.87504C3.37574 7.72586 3.43501 7.58278 3.5405 7.47729C3.64599 7.3718 3.78906 7.31254 3.93824 7.31254H5.06324V6.18754C5.06324 6.03836 5.12251 5.89528 5.228 5.78979C5.33349 5.6843 5.47656 5.62504 5.62574 5.62504C5.77493 5.62504 5.918 5.6843 6.02349 5.78979C6.12898 5.89528 6.18824 6.03836 6.18824 6.18754V7.31254H7.31324C7.46243 7.31254 7.6055 7.3718 7.71099 7.47729C7.81648 7.58278 7.87574 7.72586 7.87574 7.87504C7.87574 8.02423 7.81648 8.1673 7.71099 8.27279C7.6055 8.37828 7.46243 8.43754 7.31324 8.43754ZM10.2664 8.57817C10.1273 8.57817 9.99136 8.53693 9.87573 8.45967C9.7601 8.38241 9.66998 8.27259 9.61677 8.14412C9.56355 8.01564 9.54962 7.87426 9.57675 7.73787C9.60389 7.60148 9.67085 7.47619 9.76918 7.37786C9.86752 7.27952 9.9928 7.21256 10.1292 7.18543C10.2656 7.1583 10.407 7.17222 10.5354 7.22544C10.6639 7.27866 10.7737 7.36878 10.851 7.48441C10.9283 7.60003 10.9695 7.73598 10.9695 7.87504C10.9695 8.06152 10.8954 8.24036 10.7636 8.37223C10.6317 8.50409 10.4528 8.57817 10.2664 8.57817ZM11.8132 10.125C11.6741 10.125 11.5381 10.0838 11.4224 10.0064C11.3068 9.92908 11.2166 9.81917 11.1635 9.69058C11.1103 9.562 11.0965 9.42054 11.1238 9.2841C11.151 9.14766 11.2182 9.02237 11.3167 8.92411C11.4152 8.82585 11.5406 8.75902 11.6772 8.73209C11.8137 8.70516 11.9551 8.71933 12.0835 8.77282C12.212 8.82631 12.3217 8.9167 12.3987 9.03256C12.4758 9.14842 12.5167 9.28453 12.5164 9.42367C12.5159 9.60985 12.4416 9.78824 12.3098 9.91972C12.178 10.0512 11.9994 10.125 11.8132 10.125ZM11.8132 7.03129C11.6742 7.03129 11.5382 6.99005 11.4226 6.91279C11.307 6.83553 11.2169 6.72572 11.1636 6.59724C11.1104 6.46876 11.0965 6.32739 11.1236 6.19099C11.1508 6.0546 11.2177 5.92932 11.3161 5.83098C11.4144 5.73265 11.5397 5.66568 11.6761 5.63855C11.8125 5.61142 11.9538 5.62535 12.0823 5.67856C12.2108 5.73178 12.3206 5.8219 12.3979 5.93753C12.4751 6.05316 12.5164 6.1891 12.5164 6.32817C12.5164 6.51465 12.4423 6.69349 12.3104 6.82535C12.1786 6.95721 11.9997 7.03129 11.8132 7.03129ZM13.3601 8.57817C13.2211 8.57817 13.0851 8.53693 12.9695 8.45967C12.8539 8.38241 12.7637 8.27259 12.7105 8.14412C12.6573 8.01564 12.6434 7.87426 12.6705 7.73787C12.6976 7.60148 12.7646 7.47619 12.8629 7.37786C12.9613 7.27952 13.0866 7.21256 13.2229 7.18543C13.3593 7.1583 13.5007 7.17222 13.6292 7.22544C13.7577 7.27866 13.8675 7.36878 13.9447 7.48441C14.022 7.60003 14.0632 7.73598 14.0632 7.87504C14.0632 8.06152 13.9892 8.24036 13.8573 8.37223C13.7254 8.50409 13.5466 8.57817 13.3601 8.57817Z" fill="#2979FF"/>
</svg>
