<svg width="18" height="18" viewBox="0 0 18 18" fill="none" xmlns="http://www.w3.org/2000/svg">
<path d="M15 1.5H6C5.175 1.5 4.5 2.175 4.5 3V12C4.5 12.825 5.175 13.5 6 13.5H15C15.825 13.5 16.5 12.825 16.5 12V3C16.5 2.175 15.825 1.5 15 1.5ZM13.5 5.25H11.25V9.375C11.25 9.87228 11.0525 10.3492 10.7008 10.7008C10.3492 11.0525 9.87228 11.25 9.375 11.25C8.87772 11.25 8.40081 11.0525 8.04917 10.7008C7.69754 10.3492 7.5 9.87228 7.5 9.375C7.5 8.87772 7.69754 8.40081 8.04917 8.04917C8.40081 7.69754 8.87772 7.5 9.375 7.5C9.8025 7.5 10.185 7.6425 10.5 7.8825V3.75H13.5V5.25ZM3 4.5H1.5V15C1.5 15.825 2.175 16.5 3 16.5H13.5V15H3V4.5Z" fill="#2979FF"/>
</svg>
