<svg width="18" height="18" viewBox="0 0 18 18" fill="none" xmlns="http://www.w3.org/2000/svg">
<mask id="mask0_6864_5279" style="mask-type:luminance" maskUnits="userSpaceOnUse" x="1" y="1" width="16" height="16">
<path d="M9 15.375C12.5209 15.375 15.375 12.5209 15.375 9C15.375 5.47909 12.5209 2.625 9 2.625C5.47909 2.625 2.625 5.47909 2.625 9C2.625 12.5209 5.47909 15.375 9 15.375Z" fill="white" stroke="white" stroke-width="1.275" stroke-linejoin="round"/>
<path d="M9.00078 7.08828C9.25439 7.08828 9.49762 6.98753 9.67695 6.8082C9.85628 6.62887 9.95703 6.38564 9.95703 6.13203C9.95703 5.87842 9.85628 5.63519 9.67695 5.45586C9.49762 5.27653 9.25439 5.17578 9.00078 5.17578C8.74717 5.17578 8.50394 5.27653 8.32461 5.45586C8.14528 5.63519 8.04453 5.87842 8.04453 6.13203C8.04453 6.38564 8.14528 6.62887 8.32461 6.8082C8.50394 6.98753 8.74717 7.08828 9.00078 7.08828ZM9.00078 12.8258C9.25439 12.8258 9.49762 12.725 9.67695 12.5457C9.85628 12.3664 9.95703 12.1231 9.95703 11.8695C9.95703 11.6159 9.85628 11.3727 9.67695 11.1934C9.49762 11.014 9.25439 10.9133 9.00078 10.9133C8.74717 10.9133 8.50394 11.014 8.32461 11.1934C8.14528 11.3727 8.04453 11.6159 8.04453 11.8695C8.04453 12.1231 8.14528 12.3664 8.32461 12.5457C8.50394 12.725 8.74717 12.8258 9.00078 12.8258ZM6.13203 9.95703C6.38564 9.95703 6.62887 9.85628 6.8082 9.67695C6.98753 9.49762 7.08828 9.25439 7.08828 9.00078C7.08828 8.74717 6.98753 8.50394 6.8082 8.32461C6.62887 8.14528 6.38564 8.04453 6.13203 8.04453C5.87842 8.04453 5.63519 8.14528 5.45586 8.32461C5.27653 8.50394 5.17578 8.74717 5.17578 9.00078C5.17578 9.25439 5.27653 9.49762 5.45586 9.67695C5.63519 9.85628 5.87842 9.95703 6.13203 9.95703ZM11.8695 9.95703C12.1231 9.95703 12.3664 9.85628 12.5457 9.67695C12.725 9.49762 12.8258 9.25439 12.8258 9.00078C12.8258 8.74717 12.725 8.50394 12.5457 8.32461C12.3664 8.14528 12.1231 8.04453 11.8695 8.04453C11.6159 8.04453 11.3727 8.14528 11.1934 8.32461C11.014 8.50394 10.9133 8.74717 10.9133 9.00078C10.9133 9.25439 11.014 9.49762 11.1934 9.67695C11.3727 9.85628 11.6159 9.95703 11.8695 9.95703Z" fill="black" stroke="black" stroke-width="1.275" stroke-linejoin="round"/>
<path d="M9 15.375H15.375" stroke="white" stroke-width="1.275" stroke-linecap="round"/>
</mask>
<g mask="url(#mask0_6864_5279)">
<path d="M1.34961 1.34961H16.6496V16.6496H1.34961V1.34961Z" fill="#2979FF"/>
</g>
</svg>
