<svg width="26" height="26" viewBox="0 0 26 26" fill="none" xmlns="http://www.w3.org/2000/svg">
<path d="M12.2431 5.48667L14.8716 2.8584C15.9845 1.84521 17.4449 1.29959 18.9495 1.33484C20.4542 1.3701 21.8875 1.98351 22.9517 3.04772C24.016 4.11192 24.6295 5.54515 24.6648 7.04979C24.7002 8.55443 24.1546 10.0149 23.1415 11.1279L19.3848 14.8711C18.2939 15.966 16.8128 16.5827 15.2672 16.5857C13.7217 16.5886 12.2383 15.9774 11.1433 14.8867L11.1277 14.8711" stroke="black" stroke-width="2" stroke-linecap="round" stroke-linejoin="round"/>
<path d="M13.757 20.5133L11.1285 23.1416C10.0156 24.1548 8.55514 24.7004 7.0505 24.6652C5.54586 24.6299 4.1126 24.0165 3.04833 22.9523C1.98407 21.8881 1.37057 20.4549 1.33523 18.9502C1.2999 17.4456 1.84543 15.9851 2.85856 14.8721L6.6153 11.1289C7.70616 10.034 9.18726 9.41726 10.7328 9.41435C12.2784 9.41143 13.7618 10.0226 14.8568 11.1133L14.8724 11.1289" stroke="black" stroke-width="2" stroke-linecap="round" stroke-linejoin="round"/>
</svg>
