<svg width="26" height="28" viewBox="0 0 26 28" fill="none" xmlns="http://www.w3.org/2000/svg">
<path d="M19.5333 23.3333H4.66668C4.28891 23.3333 3.97224 23.2055 3.71668 22.95C3.46113 22.6944 3.33335 22.3777 3.33335 22C3.33335 21.6222 3.46113 21.3055 3.71668 21.05C3.97224 20.7944 4.28891 20.6666 4.66668 20.6666H6.00002V11.3333C6.00002 10.6 6.09446 9.87774 6.28335 9.16663C6.47224 8.45552 6.75557 7.77774 7.13335 7.13329L9.13335 9.13329C8.97779 9.48885 8.86113 9.84996 8.78335 10.2166C8.70557 10.5833 8.66668 10.9555 8.66668 11.3333V20.6666H16.9333L0.800016 4.53329C0.555572 4.28885 0.43335 3.97774 0.43335 3.59996C0.43335 3.22218 0.555572 2.91107 0.800016 2.66663C1.04446 2.42218 1.35557 2.29996 1.73335 2.29996C2.11113 2.29996 2.42224 2.42218 2.66668 2.66663L25.3334 25.3333C25.5778 25.5777 25.7056 25.8833 25.7167 26.25C25.7278 26.6166 25.6 26.9333 25.3334 27.2C25.0889 27.4444 24.7778 27.5666 24.4 27.5666C24.0222 27.5666 23.7111 27.4444 23.4667 27.2L19.5333 23.3333ZM16 3.59996C17.7778 4.0444 19.2222 4.98329 20.3334 6.41663C21.4445 7.84996 22 9.48885 22 11.3333V15C22 15.4444 21.8611 15.7777 21.5834 16C21.3056 16.2222 21 16.3333 20.6667 16.3333C20.3334 16.3333 20.0278 16.2166 19.75 15.9833C19.4722 15.75 19.3334 15.4111 19.3334 14.9666V11.3333C19.3334 9.86663 18.8111 8.61107 17.7667 7.56663C16.7222 6.52218 15.4667 5.99996 14 5.99996C13.6445 5.99996 13.2667 6.0444 12.8667 6.13329C12.4667 6.22218 12.1111 6.33329 11.8 6.46663C11.4222 6.62218 11.05 6.65552 10.6834 6.56663C10.3167 6.47774 10.0333 6.26663 9.83335 5.93329C9.65557 5.6444 9.59446 5.33885 9.65002 5.01663C9.70557 4.6944 9.87779 4.45552 10.1667 4.29996C10.4556 4.1444 10.7556 4.01107 11.0667 3.89996C11.3778 3.78885 11.6889 3.68885 12 3.59996V2.66663C12 2.11107 12.1945 1.63885 12.5834 1.24996C12.9722 0.86107 13.4445 0.666626 14 0.666626C14.5556 0.666626 15.0278 0.86107 15.4167 1.24996C15.8056 1.63885 16 2.11107 16 2.66663V3.59996ZM14 27.3333C13.3334 27.3333 12.7389 27.15 12.2167 26.7833C11.6945 26.4166 11.4334 25.9222 11.4334 25.3C11.4334 25.1222 11.5056 24.9722 11.65 24.85C11.7945 24.7277 11.9556 24.6666 12.1334 24.6666H15.8667C16.0445 24.6666 16.2056 24.7277 16.35 24.85C16.4945 24.9722 16.5667 25.1222 16.5667 25.3C16.5667 25.9222 16.3056 26.4166 15.7833 26.7833C15.2611 27.15 14.6667 27.3333 14 27.3333Z" fill="#999898"/>
</svg>
