<svg width="24" height="24" viewBox="0 0 24 24" fill="none" xmlns="http://www.w3.org/2000/svg">
<path d="M12 9.33333C11.6222 9.33333 11.3056 9.46111 11.05 9.71667C10.7944 9.97222 10.6667 10.2889 10.6667 10.6667V14.9333L9.46667 13.7333C9.22222 13.4889 8.91111 13.3667 8.53333 13.3667C8.15556 13.3667 7.84444 13.4889 7.6 13.7333C7.35556 13.9778 7.23333 14.2889 7.23333 14.6667C7.23333 15.0444 7.35556 15.3556 7.6 15.6L11.0667 19.0667C11.3333 19.3333 11.6444 19.4667 12 19.4667C12.3556 19.4667 12.6667 19.3333 12.9333 19.0667L16.4 15.6C16.6444 15.3556 16.7667 15.0444 16.7667 14.6667C16.7667 14.2889 16.6444 13.9778 16.4 13.7333C16.1556 13.4889 15.8444 13.3667 15.4667 13.3667C15.0889 13.3667 14.7778 13.4889 14.5333 13.7333L13.3333 14.9333V10.6667C13.3333 10.2889 13.2056 9.97222 12.95 9.71667C12.6944 9.46111 12.3778 9.33333 12 9.33333ZM2.66667 6.66667V21.3333H21.3333V6.66667H2.66667ZM2.66667 24C1.93333 24 1.30556 23.7389 0.783333 23.2167C0.261111 22.6944 0 22.0667 0 21.3333V4.7C0 4.38889 0.05 4.08889 0.15 3.8C0.25 3.51111 0.4 3.24444 0.6 3L2.26667 0.966667C2.51111 0.655556 2.81667 0.416667 3.18333 0.25C3.55 0.0833333 3.93333 0 4.33333 0H19.6667C20.0667 0 20.45 0.0833333 20.8167 0.25C21.1833 0.416667 21.4889 0.655556 21.7333 0.966667L23.4 3C23.6 3.24444 23.75 3.51111 23.85 3.8C23.95 4.08889 24 4.38889 24 4.7V21.3333C24 22.0667 23.7389 22.6944 23.2167 23.2167C22.6944 23.7389 22.0667 24 21.3333 24H2.66667ZM3.2 4H20.8L19.6667 2.66667H4.33333L3.2 4Z" fill="#1565D8"/>
</svg>
