<svg width="48" height="48" viewBox="0 0 48 48" fill="none" xmlns="http://www.w3.org/2000/svg">
<rect x="0.5" y="0.5" width="47" height="47" rx="23.5" fill="#FFFEFB"/>
<rect x="0.5" y="0.5" width="47" height="47" rx="23.5" stroke="#999898"/>
<path d="M30.4579 33.2167H15.5912C15.2135 33.2167 14.8968 33.0889 14.6412 32.8334C14.3857 32.5778 14.2579 32.2612 14.2579 31.8834C14.2579 31.5056 14.3857 31.1889 14.6412 30.9334C14.8968 30.6778 15.2135 30.5501 15.5912 30.5501H16.9246V21.2167C16.9246 20.4834 17.019 19.7612 17.2079 19.05C17.3968 18.3389 17.6801 17.6612 18.0579 17.0167L20.0579 19.0167C19.9024 19.3723 19.7857 19.7334 19.7079 20.1C19.6301 20.4667 19.5912 20.8389 19.5912 21.2167V30.5501H27.8579L11.7246 14.4167C11.4801 14.1723 11.3579 13.8612 11.3579 13.4834C11.3579 13.1056 11.4801 12.7945 11.7246 12.55C11.969 12.3056 12.2801 12.1834 12.6579 12.1834C13.0357 12.1834 13.3468 12.3056 13.5912 12.55L36.2579 35.2167C36.5024 35.4612 36.6301 35.7667 36.6412 36.1334C36.6524 36.5 36.5246 36.8167 36.2579 37.0834C36.0135 37.3278 35.7024 37.4501 35.3246 37.4501C34.9468 37.4501 34.6357 37.3278 34.3912 37.0834L30.4579 33.2167ZM26.9246 13.4834C28.7024 13.9278 30.1468 14.8667 31.2579 16.3C32.369 17.7334 32.9246 19.3723 32.9246 21.2167V24.8834C32.9246 25.3278 32.7857 25.6612 32.5079 25.8834C32.2301 26.1056 31.9246 26.2167 31.5912 26.2167C31.2579 26.2167 30.9524 26.1 30.6746 25.8667C30.3968 25.6334 30.2579 25.2945 30.2579 24.85V21.2167C30.2579 19.75 29.7357 18.4945 28.6912 17.45C27.6468 16.4056 26.3912 15.8834 24.9246 15.8834C24.569 15.8834 24.1912 15.9278 23.7912 16.0167C23.3912 16.1056 23.0357 16.2167 22.7246 16.35C22.3468 16.5056 21.9746 16.5389 21.6079 16.45C21.2412 16.3612 20.9579 16.15 20.7579 15.8167C20.5801 15.5278 20.519 15.2223 20.5746 14.9C20.6301 14.5778 20.8024 14.3389 21.0912 14.1834C21.3801 14.0278 21.6801 13.8945 21.9912 13.7834C22.3024 13.6723 22.6135 13.5723 22.9246 13.4834V12.55C22.9246 11.9945 23.119 11.5223 23.5079 11.1334C23.8968 10.7445 24.369 10.55 24.9246 10.55C25.4801 10.55 25.9524 10.7445 26.3412 11.1334C26.7301 11.5223 26.9246 11.9945 26.9246 12.55V13.4834ZM24.9246 37.2167C24.2579 37.2167 23.6635 37.0334 23.1412 36.6667C22.619 36.3001 22.3579 35.8056 22.3579 35.1834C22.3579 35.0056 22.4301 34.8556 22.5746 34.7334C22.719 34.6112 22.8801 34.5501 23.0579 34.5501H26.7912C26.969 34.5501 27.1301 34.6112 27.2746 34.7334C27.419 34.8556 27.4912 35.0056 27.4912 35.1834C27.4912 35.8056 27.2301 36.3001 26.7079 36.6667C26.1857 37.0334 25.5912 37.2167 24.9246 37.2167Z" fill="#999898"/>
</svg>
