<svg width="64" height="56" viewBox="0 0 64 56" fill="none" xmlns="http://www.w3.org/2000/svg">
<path fill-rule="evenodd" clip-rule="evenodd" d="M52.7757 4.09944C52.3839 0.776017 47.8097 0.32426 46.7707 3.50806L46.7306 3.63896L46.6474 3.89273C46.0444 5.71601 44.922 7.31839 43.4223 8.49697C41.9225 9.67554 40.1129 10.3773 38.2226 10.5134C34.8242 10.7575 34.3234 15.6209 37.6007 16.5525C39.4303 17.0732 41.2521 18.36 42.2931 19.603C43.5223 21.0708 44.2915 22.878 44.5026 24.7939L44.5413 25.1567C44.9101 28.4816 49.4762 28.975 50.5408 25.8015L50.6773 25.3989C51.2916 23.5753 52.4221 21.9744 53.9275 20.7968C55.4329 19.6191 57.2461 18.917 59.1401 18.7784C62.5465 18.5312 63.0477 13.664 59.7632 12.7277C57.9456 12.2097 56.3196 11.1613 55.0869 9.71282C53.8542 8.2643 53.069 6.47935 52.8289 4.57945L52.7934 4.25945L52.7757 4.09944Z" fill="url(#paint0_linear_7889_127369)"/>
<path fill-rule="evenodd" clip-rule="evenodd" d="M26.8041 11.3019C24.1259 6.51409 16.9146 8.6995 17.3383 14.1734L17.3597 14.3968L17.3929 14.8333C17.6235 17.9731 16.9287 21.1042 15.3966 23.8301C13.8645 26.5559 11.5641 28.754 8.78649 30.146C3.79252 32.6478 6.08501 40.3279 11.6332 39.6828C14.7308 39.3237 18.2973 40.1297 20.6537 41.3592C23.4363 42.8112 25.735 45.0656 27.2567 47.835L27.5429 48.3602C30.1873 53.1646 37.4124 51.0473 37.034 45.573L36.9882 44.8776C36.7744 41.7303 37.4825 38.5964 39.0236 35.8683C40.5648 33.1403 42.8706 30.9393 45.6522 29.5412C50.6563 27.0298 48.362 19.3437 42.8001 19.9863C39.7223 20.3419 36.6019 19.7742 33.8261 18.3537C31.0504 16.9332 28.7415 14.7223 27.1859 11.9955L26.9314 11.5331L26.8041 11.3019Z" fill="url(#paint1_linear_7889_127369)"/>
<defs>
<linearGradient id="paint0_linear_7889_127369" x1="49.6575" y1="9.31064" x2="38.4847" y2="32.8976" gradientUnits="userSpaceOnUse">
<stop offset="0.00157268" stop-color="#F2F8FF"/>
<stop offset="1" stop-color="#C0DEFF"/>
</linearGradient>
<linearGradient id="paint1_linear_7889_127369" x1="40.1288" y1="12.2932" x2="-0.0523926" y2="51.3978" gradientUnits="userSpaceOnUse">
<stop offset="0.000639323" stop-color="#94D2FF"/>
<stop offset="1" stop-color="#6198FF"/>
</linearGradient>
</defs>
</svg>
