<svg width="3" height="15" viewBox="0 0 3 15" fill="currentColor" xmlns="http://www.w3.org/2000/svg">
<path d="M0.0335369 13.5306C0.0290697 13.3303 0.0641141 13.1312 0.136613 12.9449C0.209113 12.7586 0.317605 12.5889 0.455721 12.4457C0.593837 12.3025 0.758793 12.1887 0.940904 12.111C1.12302 12.0332 1.31861 11.9932 1.51621 11.9931C1.71381 11.9931 1.90942 12.033 2.09157 12.1107C2.27372 12.1883 2.43873 12.302 2.57692 12.4452C2.7151 12.5883 2.82368 12.758 2.89627 12.9442C2.96886 13.1305 3.00401 13.3296 2.99964 13.5298C2.99107 13.9226 2.8311 14.2964 2.55399 14.5712C2.27688 14.846 1.90463 14.9999 1.51695 15C1.12927 15.0001 0.756949 14.8464 0.4797 14.5717C0.20245 14.2971 0.0423017 13.9234 0.0335369 13.5306ZM1.51696 3.00649C1.31941 3.01102 1.12296 2.9755 0.939147 2.90202C0.755331 2.82855 0.587851 2.71859 0.446541 2.57861C0.305231 2.43863 0.192939 2.27145 0.116257 2.08688C0.0395753 1.90231 4.93526e-05 1.70408 0 1.50381C-4.93526e-05 1.30355 0.0393784 1.1053 0.115969 0.920688C0.19256 0.736081 0.30477 0.568842 0.446011 0.428791C0.587252 0.28874 0.754677 0.178698 0.938457 0.105128C1.12224 0.0315573 1.31867 -0.00405992 1.51622 0.000367479C1.90381 0.009054 2.27264 0.171176 2.54376 0.452029C2.81488 0.732882 2.96675 1.11015 2.96684 1.50306C2.96694 1.89598 2.81526 2.27332 2.54428 2.55431C2.2733 2.8353 1.90454 2.99761 1.51696 3.00649ZM1.51696 9.02024C1.31941 9.02477 1.12296 8.98925 0.939147 8.91577C0.755331 8.8423 0.587851 8.73234 0.446541 8.59236C0.305231 8.45238 0.192939 8.2852 0.116257 8.10063C0.0395753 7.91606 4.93526e-05 7.71783 0 7.51756C-4.93526e-05 7.3173 0.0393784 7.11904 0.115969 6.93444C0.19256 6.74983 0.30477 6.58259 0.446011 6.44254C0.587252 6.30249 0.754677 6.19245 0.938457 6.11888C1.12224 6.04531 1.31867 6.00969 1.51622 6.01412C1.90381 6.0228 2.27264 6.18493 2.54376 6.46578C2.81488 6.74663 2.96675 7.1239 2.96684 7.51681C2.96694 7.90973 2.81526 8.28707 2.54428 8.56806C2.2733 8.84905 1.90454 9.01136 1.51696 9.02024Z" />
</svg>
