<svg width="24" height="25" viewBox="0 0 24 25" fill="currentColor" xmlns="http://www.w3.org/2000/svg">
<path d="M21 11.5H18V4.5C18 4.23478 17.8946 3.98043 17.7071 3.79289C17.5196 3.60536 17.2652 3.5 17 3.5H3C2.73478 3.5 2.48043 3.60536 2.29289 3.79289C2.10536 3.98043 2 4.23478 2 4.5V18.5C2 20.154 3.346 21.5 5 21.5H19C20.654 21.5 22 20.154 22 18.5V12.5C22 12.2348 21.8946 11.9804 21.7071 11.7929C21.5196 11.6054 21.2652 11.5 21 11.5ZM5 19.5C4.73478 19.5 4.48043 19.3946 4.29289 19.2071C4.10536 19.0196 4 18.7652 4 18.5V5.5H16V18.5C16 18.851 16.061 19.188 16.171 19.5H5ZM20 18.5C20 18.7652 19.8946 19.0196 19.7071 19.2071C19.5196 19.3946 19.2652 19.5 19 19.5C18.7348 19.5 18.4804 19.3946 18.2929 19.2071C18.1054 19.0196 18 18.7652 18 18.5V13.5H20V18.5Z" />
<path d="M6 7.5H14V9.5H6V7.5ZM6 11.5H14V13.5H6V11.5ZM11 15.5H14V17.5H11V15.5Z"/>
</svg>
