<svg width="18" height="18" viewBox="0 0 18 18" fill="none" xmlns="http://www.w3.org/2000/svg">
<path fill-rule="evenodd" clip-rule="evenodd" d="M12.2279 2.20323C13.0257 2.04258 13.8397 1.97679 14.6529 2.00723C14.8408 2.01453 15.019 2.09242 15.1519 2.22536C15.2848 2.3583 15.3627 2.5365 15.37 2.72436C15.3887 3.16492 15.3909 4.093 15.174 5.14957C15.0465 5.77275 14.297 5.94169 13.8839 5.52821L13.2875 4.9321C13.0552 5.14222 12.8257 5.35536 12.599 5.57146C12.0107 6.13179 11.2728 6.87257 10.6503 7.61211C10.1208 8.24121 9.105 8.23685 8.60785 7.54056C8.29348 7.0991 7.96691 6.66647 7.6285 6.24317C6.93349 6.71888 5.49059 7.81372 3.86849 9.66864C3.76769 9.78375 3.66648 9.90177 3.56485 10.0227C3.45854 10.1489 3.30643 10.2278 3.14199 10.2419C2.97755 10.256 2.81425 10.2042 2.68801 10.0978C2.56177 9.99151 2.48293 9.8394 2.46884 9.67494C2.45475 9.51049 2.50656 9.34718 2.61288 9.22093C2.7199 9.09441 2.82609 8.97069 2.93145 8.84976C4.67052 6.86106 6.22511 5.69124 6.97362 5.18348C7.49721 4.82849 8.18413 4.95076 8.56834 5.42616C8.93228 5.87961 9.28304 6.34348 9.62019 6.81719C9.62244 6.82003 9.62518 6.82245 9.62828 6.82435C9.63547 6.82742 9.64317 6.82911 9.65099 6.82933C9.65976 6.82993 9.66856 6.82857 9.67674 6.82534C9.68492 6.82211 9.69228 6.81709 9.69827 6.81066C10.3628 6.02134 11.1374 5.24509 11.7404 4.67044C11.9995 4.42372 12.2288 4.21216 12.4064 4.05131L11.8496 3.49315C11.4361 3.07998 11.605 2.33079 12.2282 2.20292M12.0378 14.8252C11.9967 14.2621 11.9556 13.2574 11.9556 11.4884C11.9556 9.71935 11.9967 8.71505 12.0378 8.15129C12.0832 7.52593 12.5399 7.03809 13.1895 6.99827C13.3961 6.98582 13.6552 6.97711 13.9778 6.97711C14.3004 6.97711 14.5596 6.98582 14.7662 6.99827C15.4157 7.03809 15.8724 7.52593 15.9179 8.15129C15.9589 8.71505 16 9.71935 16 11.4884C16 13.2574 15.9589 14.2618 15.9179 14.8255C15.8724 15.4509 15.4157 15.9387 14.7662 15.9785C14.5596 15.991 14.3004 15.9997 13.9778 15.9997C13.6552 15.9997 13.3961 15.991 13.1895 15.9785C12.5399 15.9387 12.0832 15.4506 12.0378 14.8252ZM2.05289 14.9951C2.02271 14.7014 2 14.2782 2 13.6666C2 13.0549 2.02271 12.6318 2.05258 12.3381C2.11511 11.7189 2.61194 11.364 3.15606 11.3456C3.44468 11.3367 3.73342 11.3325 4.02218 11.3331C4.39146 11.3331 4.67456 11.3384 4.88829 11.3456C5.43241 11.364 5.92925 11.7189 5.99178 12.3381C6.02164 12.6318 6.04435 13.0549 6.04435 13.6666C6.04435 14.2782 6.02164 14.7014 5.99209 14.9951C5.92925 15.6142 5.4321 15.9692 4.88829 15.9876C4.67456 15.9947 4.39146 16 4.02218 16C3.6529 16 3.36979 15.9947 3.15606 15.9876C2.61194 15.9692 2.11542 15.6142 2.05289 14.9951ZM6.97767 12.7332C6.97767 13.7944 7.00847 14.4643 7.04393 14.8852C7.09744 15.5224 7.58525 15.9577 8.20124 15.9848C8.40781 15.9938 8.66976 16 8.99984 16C9.32993 16 9.59188 15.9938 9.79845 15.9844C10.4144 15.9577 10.9022 15.5224 10.9558 14.8852C10.9912 14.4643 11.022 13.7944 11.022 12.7332C11.022 11.672 10.9912 11.0021 10.9561 10.5812C10.9022 9.94398 10.4147 9.50872 9.79845 9.48165C9.59188 9.47263 9.32993 9.46641 8.99984 9.46641C8.66976 9.46641 8.40781 9.47263 8.20155 9.48197C7.58525 9.50872 7.09713 9.94398 7.04362 10.5812C7.00878 11.0021 6.97767 11.672 6.97767 12.7332Z" fill="#2979FF"/>
</svg>
