<svg width="16" height="16" viewBox="0 0 16 16" fill="none" xmlns="http://www.w3.org/2000/svg">
<path d="M8.0013 4.00014V5.19347C8.0013 5.49347 8.3613 5.64014 8.56797 5.42681L10.428 3.56681C10.5613 3.43348 10.5613 3.22681 10.428 3.09347L8.56797 1.23348C8.52097 1.18741 8.46139 1.15628 8.39673 1.14402C8.33207 1.13176 8.26523 1.13891 8.20463 1.16458C8.14403 1.19024 8.09239 1.23327 8.0562 1.28824C8.02002 1.34321 8.00092 1.40767 8.0013 1.47348V2.66681C5.05464 2.66681 2.66797 5.05347 2.66797 8.00014C2.66797 8.69347 2.8013 9.36014 3.04797 9.96681C3.22797 10.4135 3.8013 10.5335 4.1413 10.1935C4.3213 10.0135 4.39464 9.74014 4.29464 9.50014C4.1013 9.04014 4.0013 8.52681 4.0013 8.00014C4.0013 5.79347 5.79464 4.00014 8.0013 4.00014ZM11.8613 5.80681C11.6813 5.98681 11.608 6.26681 11.708 6.50014C11.8946 6.96681 12.0013 7.47347 12.0013 8.00014C12.0013 10.2068 10.208 12.0001 8.0013 12.0001V10.8068C8.0013 10.5068 7.6413 10.3601 7.43464 10.5735L5.57464 12.4335C5.4413 12.5668 5.4413 12.7735 5.57464 12.9068L7.43464 14.7668C7.48123 14.8125 7.5402 14.8435 7.60424 14.856C7.66829 14.8685 7.73458 14.8619 7.79492 14.837C7.85525 14.8122 7.90697 14.7702 7.94366 14.7162C7.98034 14.6623 8.00039 14.5987 8.0013 14.5335V13.3335C10.948 13.3335 13.3346 10.9468 13.3346 8.00014C13.3346 7.30681 13.2013 6.64014 12.9546 6.03347C12.7746 5.58681 12.2013 5.46681 11.8613 5.80681Z" fill="#6B7280"/>
</svg>
