<svg width="32" height="33" viewBox="0 0 32 33" fill="none" xmlns="http://www.w3.org/2000/svg">
<path d="M5.33317 27.1654C4.59984 27.1654 3.97206 26.9043 3.44984 26.382C2.92762 25.8598 2.6665 25.232 2.6665 24.4987V8.4987C2.6665 7.76536 2.92762 7.13759 3.44984 6.61536C3.97206 6.09314 4.59984 5.83203 5.33317 5.83203H26.6665C27.3998 5.83203 28.0276 6.09314 28.5498 6.61536C29.0721 7.13759 29.3332 7.76536 29.3332 8.4987V24.4987C29.3332 25.232 29.0721 25.8598 28.5498 26.382C28.0276 26.9043 27.3998 27.1654 26.6665 27.1654H5.33317ZM15.9998 17.832L5.33317 11.1654V24.4987H26.6665V11.1654L15.9998 17.832ZM15.9998 15.1654L26.6665 8.4987H5.33317L15.9998 15.1654ZM5.33317 11.1654V8.4987V24.4987V11.1654Z" fill="#121212"/>
</svg>
