<svg width="20" height="20" viewBox="0 0 20 20" fill="none" xmlns="http://www.w3.org/2000/svg">
<path d="M4.51603 12.3245L3.02603 18.7765C2.97989 18.9718 2.99374 19.1766 3.06577 19.364C3.1378 19.5513 3.26467 19.7126 3.4298 19.8268C3.59492 19.9409 3.79064 20.0026 3.99138 20.0038C4.19212 20.005 4.38855 19.9457 4.55503 19.8335L10 16.2035L15.445 19.8335C15.6154 19.9466 15.8162 20.0048 16.0207 20.0003C16.2251 19.9958 16.4232 19.9288 16.5884 19.8084C16.7536 19.6879 16.878 19.5198 16.9448 19.3265C17.0116 19.1333 17.0176 18.9242 16.962 18.7275L15.133 12.3275L19.669 8.24547C19.8143 8.11466 19.9181 7.94413 19.9674 7.75498C20.0168 7.56583 20.0097 7.36635 19.9469 7.18121C19.8841 6.99607 19.7685 6.83339 19.6142 6.71329C19.46 6.59319 19.2739 6.52094 19.079 6.50547L13.378 6.05147L10.911 0.590467C10.8324 0.414623 10.7045 0.265302 10.5428 0.160527C10.3812 0.055752 10.1927 0 10 0C9.80739 0 9.61887 0.055752 9.45722 0.160527C9.29556 0.265302 9.16769 0.414623 9.08903 0.590467L6.62203 6.05147L0.921026 6.50447C0.729482 6.51964 0.546364 6.58968 0.393581 6.7062C0.240798 6.82272 0.124819 6.98079 0.0595194 7.1615C-0.00578038 7.34221 -0.0176359 7.5379 0.0253712 7.72517C0.0683784 7.91244 0.164427 8.08335 0.302026 8.21747L4.51603 12.3245ZM7.36903 7.99847C7.54752 7.98441 7.71895 7.92258 7.86533 7.81948C8.01171 7.71638 8.12766 7.5758 8.20103 7.41247L10 3.43147L11.799 7.41247C11.8724 7.5758 11.9883 7.71638 12.1347 7.81948C12.2811 7.92258 12.4525 7.98441 12.631 7.99847L16.603 8.31347L13.332 11.2575C13.048 11.5135 12.935 11.9075 13.039 12.2755L14.292 16.6605L10.556 14.1695C10.392 14.0594 10.199 14.0006 10.0015 14.0006C9.80403 14.0006 9.61101 14.0594 9.44703 14.1695L5.54303 16.7725L6.59303 12.2265C6.63153 12.0593 6.62636 11.885 6.57802 11.7204C6.52969 11.5557 6.43981 11.4063 6.31703 11.2865L3.27903 8.32447L7.36903 7.99847Z" fill="#999898"/>
</svg>
