<svg width="18" height="18" viewBox="0 0 18 18" fill="none" xmlns="http://www.w3.org/2000/svg">
<path d="M2 18C1.45 18 0.979167 17.8042 0.5875 17.4125C0.195833 17.0208 0 16.55 0 16V2C0 1.45 0.195833 0.979167 0.5875 0.5875C0.979167 0.195833 1.45 0 2 0H10C10.2833 0 10.5208 0.0958333 10.7125 0.2875C10.9042 0.479167 11 0.716667 11 1C11 1.28333 10.9042 1.52083 10.7125 1.7125C10.5208 1.90417 10.2833 2 10 2H2V16H16V8C16 7.71667 16.0958 7.47917 16.2875 7.2875C16.4792 7.09583 16.7167 7 17 7C17.2833 7 17.5208 7.09583 17.7125 7.2875C17.9042 7.47917 18 7.71667 18 8V16C18 16.55 17.8042 17.0208 17.4125 17.4125C17.0208 17.8042 16.55 18 16 18H2ZM6 14C5.71667 14 5.47917 13.9042 5.2875 13.7125C5.09583 13.5208 5 13.2833 5 13C5 12.7167 5.09583 12.4792 5.2875 12.2875C5.47917 12.0958 5.71667 12 6 12H12C12.2833 12 12.5208 12.0958 12.7125 12.2875C12.9042 12.4792 13 12.7167 13 13C13 13.2833 12.9042 13.5208 12.7125 13.7125C12.5208 13.9042 12.2833 14 12 14H6ZM6 11C5.71667 11 5.47917 10.9042 5.2875 10.7125C5.09583 10.5208 5 10.2833 5 10C5 9.71667 5.09583 9.47917 5.2875 9.2875C5.47917 9.09583 5.71667 9 6 9H12C12.2833 9 12.5208 9.09583 12.7125 9.2875C12.9042 9.47917 13 9.71667 13 10C13 10.2833 12.9042 10.5208 12.7125 10.7125C12.5208 10.9042 12.2833 11 12 11H6ZM6 8C5.71667 8 5.47917 7.90417 5.2875 7.7125C5.09583 7.52083 5 7.28333 5 7C5 6.71667 5.09583 6.47917 5.2875 6.2875C5.47917 6.09583 5.71667 6 6 6H12C12.2833 6 12.5208 6.09583 12.7125 6.2875C12.9042 6.47917 13 6.71667 13 7C13 7.28333 12.9042 7.52083 12.7125 7.7125C12.5208 7.90417 12.2833 8 12 8H6ZM15 6C14.7167 6 14.4792 5.90417 14.2875 5.7125C14.0958 5.52083 14 5.28333 14 5V4H13C12.7167 4 12.4792 3.90417 12.2875 3.7125C12.0958 3.52083 12 3.28333 12 3C12 2.71667 12.0958 2.47917 12.2875 2.2875C12.4792 2.09583 12.7167 2 13 2H14V1C14 0.716667 14.0958 0.479167 14.2875 0.2875C14.4792 0.0958333 14.7167 0 15 0C15.2833 0 15.5208 0.0958333 15.7125 0.2875C15.9042 0.479167 16 0.716667 16 1V2H17C17.2833 2 17.5208 2.09583 17.7125 2.2875C17.9042 2.47917 18 2.71667 18 3C18 3.28333 17.9042 3.52083 17.7125 3.7125C17.5208 3.90417 17.2833 4 17 4H16V5C16 5.28333 15.9042 5.52083 15.7125 5.7125C15.5208 5.90417 15.2833 6 15 6Z" fill="#2979FF"/>
</svg>
