<svg width="16" height="16" viewBox="0 0 16 16" fill="none" xmlns="http://www.w3.org/2000/svg">
<path d="M2 16C1.45 16 0.979167 15.8042 0.5875 15.4125C0.195833 15.0208 0 14.55 0 14V12C0 11.7167 0.0958333 11.4792 0.2875 11.2875C0.479167 11.0958 0.716667 11 1 11C1.28333 11 1.52083 11.0958 1.7125 11.2875C1.90417 11.4792 2 11.7167 2 12V14H14V12C14 11.7167 14.0958 11.4792 14.2875 11.2875C14.4792 11.0958 14.7167 11 15 11C15.2833 11 15.5208 11.0958 15.7125 11.2875C15.9042 11.4792 16 11.7167 16 12V14C16 14.55 15.8042 15.0208 15.4125 15.4125C15.0208 15.8042 14.55 16 14 16H2ZM7 3.84999L5.125 5.72499C4.925 5.92499 4.6875 6.02082 4.4125 6.01249C4.1375 6.00415 3.9 5.89999 3.7 5.69999C3.51667 5.49999 3.42083 5.26665 3.4125 4.99999C3.40417 4.73332 3.5 4.49999 3.7 4.29999L7.3 0.699988C7.4 0.599988 7.50833 0.529154 7.625 0.487488C7.74167 0.445821 7.86667 0.424988 8 0.424988C8.13333 0.424988 8.25833 0.445821 8.375 0.487488C8.49167 0.529154 8.6 0.599988 8.7 0.699988L12.3 4.29999C12.5 4.49999 12.5958 4.73332 12.5875 4.99999C12.5792 5.26665 12.4833 5.49999 12.3 5.69999C12.1 5.89999 11.8625 6.00415 11.5875 6.01249C11.3125 6.02082 11.075 5.92499 10.875 5.72499L9 3.84999V11C9 11.2833 8.90417 11.5208 8.7125 11.7125C8.52083 11.9042 8.28333 12 8 12C7.71667 12 7.47917 11.9042 7.2875 11.7125C7.09583 11.5208 7 11.2833 7 11V3.84999Z" fill="#FFFEFB"/>
</svg>
