<svg width="37" height="35" viewBox="0 0 37 35" fill="none" xmlns="http://www.w3.org/2000/svg">
<path fill-rule="evenodd" clip-rule="evenodd" d="M29.9325 2.02357C30.5564 0.908264 32.2363 1.41735 32.1376 2.69249L32.1326 2.74453L32.1249 2.84622C32.0712 3.57762 32.233 4.307 32.5899 4.94199C32.9468 5.57699 33.4827 6.08903 34.1297 6.41328C35.2931 6.99607 34.759 8.78514 33.4666 8.63488C32.745 8.55122 31.9142 8.73897 31.3653 9.02539C30.7171 9.36361 30.1816 9.88878 29.8271 10.5339L29.7604 10.6562C29.1444 11.7754 27.4613 11.2822 27.5495 10.007L27.5602 9.84499C27.61 9.11182 27.445 8.38178 27.086 7.74629C26.727 7.11079 26.1899 6.59809 25.5419 6.2724C24.3762 5.68737 24.9107 3.8969 26.2063 4.04659C26.9233 4.12943 27.6502 3.99719 28.2968 3.66628C28.9434 3.33537 29.4812 2.82036 29.8436 2.18514L29.9029 2.07742L29.9325 2.02357Z" fill="url(#paint0_linear_7889_126409)"/>
<path fill-rule="evenodd" clip-rule="evenodd" d="M16.3094 7.15709C14.6798 4.24402 10.2922 5.57371 10.55 8.90426L10.563 9.04019L10.5832 9.30579C10.7235 11.2162 10.3008 13.1212 9.36857 14.7798C8.43639 16.4383 7.03669 17.7757 5.34669 18.6226C2.30816 20.1448 3.703 24.8177 7.07875 24.4253C8.96346 24.2068 11.1335 24.6971 12.5672 25.4453C14.2603 26.3287 15.6589 27.7003 16.5848 29.3854L16.7589 29.7049C18.3678 32.6281 22.7639 31.3399 22.5336 28.0091L22.5058 27.586C22.3757 25.671 22.8065 23.7642 23.7442 22.1043C24.6819 20.4445 26.0849 19.1054 27.7773 18.2547C30.822 16.7266 29.4261 12.0501 26.042 12.441C24.1693 12.6574 22.2707 12.312 20.5819 11.4477C18.893 10.5834 17.4882 9.23824 16.5417 7.5791L16.3868 7.29776L16.3094 7.15709Z" fill="url(#paint1_linear_7889_126409)"/>
<defs>
<linearGradient id="paint0_linear_7889_126409" x1="26.8286" y1="2.25449" x2="36.1887" y2="11.3639" gradientUnits="userSpaceOnUse">
<stop offset="0.000639323" stop-color="#94D2FF"/>
<stop offset="1" stop-color="#6198FF"/>
</linearGradient>
<linearGradient id="paint1_linear_7889_126409" x1="24.4167" y1="7.76024" x2="-0.0312521" y2="31.5532" gradientUnits="userSpaceOnUse">
<stop offset="0.000639323" stop-color="#94D2FF"/>
<stop offset="1" stop-color="#6198FF"/>
</linearGradient>
</defs>
</svg>
