<svg width="16" height="16" viewBox="0 0 16 16" fill="none" xmlns="http://www.w3.org/2000/svg">
<path d="M8.79948 8.00085L6.19948 10.6008C6.07726 10.7231 6.01615 10.8786 6.01615 11.0675C6.01615 11.2564 6.07726 11.412 6.19948 11.5342C6.3217 11.6564 6.47726 11.7175 6.66615 11.7175C6.85503 11.7175 7.01059 11.6564 7.13281 11.5342L10.1995 8.46751C10.2661 8.40085 10.3134 8.32862 10.3411 8.25085C10.3689 8.17307 10.3828 8.08974 10.3828 8.00085C10.3828 7.91196 10.3689 7.82862 10.3411 7.75085C10.3134 7.67307 10.2661 7.60085 10.1995 7.53418L7.13281 4.46751C7.01059 4.34529 6.85503 4.28418 6.66615 4.28418C6.47726 4.28418 6.3217 4.34529 6.19948 4.46751C6.07726 4.58974 6.01615 4.74529 6.01615 4.93418C6.01615 5.12307 6.07726 5.27862 6.19948 5.40085L8.79948 8.00085Z" fill="#030712"/>
</svg>
