<svg width="6" height="20" viewBox="0 0 6 20" fill="none" xmlns="http://www.w3.org/2000/svg">
<path d="M2.99984 19.3327C2.35817 19.3327 1.80887 19.1042 1.35192 18.6473C0.894976 18.1903 0.666504 17.641 0.666504 16.9993C0.666504 16.3577 0.894976 15.8084 1.35192 15.3514C1.80887 14.8945 2.35817 14.666 2.99984 14.666C3.6415 14.666 4.19081 14.8945 4.64775 15.3514C5.1047 15.8084 5.33317 16.3577 5.33317 16.9993C5.33317 17.641 5.1047 18.1903 4.64775 18.6473C4.19081 19.1042 3.6415 19.3327 2.99984 19.3327ZM2.99984 12.3327C2.35817 12.3327 1.80887 12.1042 1.35192 11.6473C0.894976 11.1903 0.666504 10.641 0.666504 9.99935C0.666504 9.35768 0.894976 8.80838 1.35192 8.35143C1.80887 7.89449 2.35817 7.66602 2.99984 7.66602C3.6415 7.66602 4.19081 7.89449 4.64775 8.35143C5.1047 8.80838 5.33317 9.35768 5.33317 9.99935C5.33317 10.641 5.1047 11.1903 4.64775 11.6473C4.19081 12.1042 3.6415 12.3327 2.99984 12.3327ZM2.99984 5.33268C2.35817 5.33268 1.80887 5.10421 1.35192 4.64727C0.894976 4.19032 0.666504 3.64102 0.666504 2.99935C0.666504 2.35768 0.894976 1.80838 1.35192 1.35143C1.80887 0.894488 2.35817 0.666016 2.99984 0.666016C3.6415 0.666016 4.19081 0.894488 4.64775 1.35143C5.1047 1.80838 5.33317 2.35768 5.33317 2.99935C5.33317 3.64102 5.1047 4.19032 4.64775 4.64727C4.19081 5.10421 3.6415 5.33268 2.99984 5.33268Z" fill="#1D1B20"/>
</svg>
