<svg width="20" height="20" viewBox="0 0 20 20" fill="none" xmlns="http://www.w3.org/2000/svg">
<path fill-rule="evenodd" clip-rule="evenodd" d="M8.45343 1.53596C7.54515 1.53596 6.64576 1.71487 5.80662 2.06247C4.96748 2.41007 4.20502 2.91956 3.56277 3.56185C2.92051 4.20414 2.41105 4.96664 2.06347 5.80583C1.71589 6.64502 1.53699 7.54445 1.53699 8.45279C1.53699 9.36112 1.71589 10.2606 2.06347 11.0997C2.41105 11.9389 2.92051 12.7014 3.56277 13.3437C4.20502 13.986 4.96748 14.4955 5.80662 14.8431C6.64576 15.1907 7.54515 15.3696 8.45343 15.3696C10.2878 15.3696 12.047 14.6409 13.3441 13.3437C14.6412 12.0466 15.3699 10.2872 15.3699 8.45279C15.3699 6.61833 14.6412 4.85901 13.3441 3.56185C12.047 2.26469 10.2878 1.53596 8.45343 1.53596ZM5.11124e-08 8.45279C0.000179286 7.09514 0.327317 5.7575 0.953741 4.55303C1.58016 3.34855 2.48745 2.31267 3.59884 1.53301C4.71024 0.753345 5.99305 0.252835 7.33877 0.073817C8.68449 -0.105201 10.0535 0.042538 11.3301 0.504537C12.6066 0.966537 13.7531 1.7292 14.6726 2.72803C15.5921 3.72685 16.2575 4.93245 16.6126 6.24284C16.9677 7.55324 17.0019 8.92987 16.7125 10.2563C16.4231 11.5827 15.8184 12.8199 14.9498 13.8633L19.7554 18.6692C19.8309 18.7396 19.8915 18.8244 19.9335 18.9187C19.9755 19.0129 19.9981 19.1147 19.9999 19.2179C20.0017 19.3211 19.9827 19.4236 19.9441 19.5193C19.9054 19.615 19.8479 19.7019 19.7749 19.7749C19.7019 19.8479 19.615 19.9054 19.5193 19.9441C19.4236 19.9827 19.3211 20.0017 19.2179 19.9999C19.1148 19.9981 19.013 19.9755 18.9187 19.9335C18.8245 19.8915 18.7396 19.8309 18.6693 19.7554L13.8636 14.9495C12.6291 15.9778 11.1272 16.633 9.53375 16.8383C7.9403 17.0436 6.32134 16.7906 4.86652 16.1088C3.4117 15.4271 2.18128 14.3449 1.31938 12.9889C0.457489 11.633 -0.000176589 10.0595 5.11124e-08 8.45279Z" fill="#9CA3AF"/>
</svg>
