<svg width="28" height="28" viewBox="0 0 28 28" fill="none" xmlns="http://www.w3.org/2000/svg">
<path d="M28.0014 14.3109C28.0014 13.1598 27.9061 12.3198 27.6998 11.4487H14.2871V16.6442H22.1601C22.0014 17.9354 21.1442 19.8798 19.2394 21.1864L19.2127 21.3604L23.4536 24.58L23.7474 24.6087C26.4458 22.1665 28.0014 18.5731 28.0014 14.3109Z" fill="#4285F4"/>
<path d="M14.2863 28C18.1434 28 21.3814 26.7555 23.7466 24.6089L19.2386 21.1865C18.0323 22.011 16.4132 22.5865 14.2863 22.5865C10.5086 22.5865 7.30225 20.1444 6.15929 16.7688L5.99176 16.7827L1.58208 20.1272L1.52441 20.2843C3.87359 24.8577 8.699 28 14.2863 28Z" fill="#34A853"/>
<path d="M6.16013 16.7689C5.85855 15.8978 5.68401 14.9644 5.68401 14C5.68401 13.0355 5.85856 12.1022 6.14427 11.2311L6.13627 11.0455L1.67132 7.6474L1.52524 7.7155C0.557035 9.61333 0.00146484 11.7444 0.00146484 14C0.00146484 16.2555 0.557035 18.3866 1.52524 20.2844L6.16013 16.7689Z" fill="#FBBC05"/>
<path d="M14.2864 5.4133C16.9689 5.4133 18.7784 6.54885 19.8102 7.4978L23.8419 3.64C21.3658 1.38445 18.1435 0 14.2864 0C8.699 0 3.8736 3.1422 1.52441 7.71549L6.14345 11.2311C7.30229 7.85555 10.5086 5.4133 14.2864 5.4133Z" fill="#EB4335"/>
</svg>
