<svg width="28" height="20" viewBox="0 0 28 20" fill="none" xmlns="http://www.w3.org/2000/svg">
<path d="M0.24451 3.94111C0.37304 1.96233 1.96395 0.41157 3.94447 0.31345C6.81239 0.17136 10.9115 0 14 0C17.0885 0 21.1876 0.17136 24.0555 0.31345C26.0361 0.41157 27.627 1.96233 27.7555 3.94111C27.8786 5.8369 28 8.1697 28 10C28 11.8303 27.8786 14.1631 27.7555 16.0589C27.627 18.0377 26.0361 19.5884 24.0555 19.6866C21.1876 19.8286 17.0885 20 14 20C10.9115 20 6.81239 19.8286 3.94447 19.6866C1.96395 19.5884 0.37304 18.0377 0.24451 16.0589C0.12136 14.1631 0 11.8303 0 10C0 8.1697 0.12136 5.8369 0.24451 3.94111Z" fill="#FC0D1B"/>
<path d="M11 6V14L19 10L11 6Z" fill="white"/>
</svg>
