<svg width="13" height="10" viewBox="0 0 13 10" fill="none" xmlns="http://www.w3.org/2000/svg">
<path d="M10.7128 0.445458C10.9241 0.244292 11.2053 0.133079 11.497 0.135286C11.7888 0.137494 12.0682 0.252949 12.2765 0.45729C12.4847 0.661631 12.6054 0.938874 12.6131 1.23052C12.6208 1.52216 12.5149 1.8054 12.3178 2.02046L6.33281 9.50546C6.22989 9.61631 6.10568 9.70526 5.9676 9.76701C5.82952 9.82875 5.68041 9.86202 5.52918 9.86482C5.37795 9.86762 5.22771 9.8399 5.08744 9.78331C4.94717 9.72672 4.81975 9.64242 4.7128 9.53546L0.743805 5.56646C0.633275 5.46347 0.544621 5.33927 0.483133 5.20127C0.421645 5.06327 0.388582 4.9143 0.385917 4.76324C0.383252 4.61219 0.411039 4.46214 0.467621 4.32206C0.524202 4.18198 0.608419 4.05473 0.715247 3.9479C0.822076 3.84107 0.949326 3.75686 1.08941 3.70027C1.22949 3.64369 1.37953 3.61591 1.53059 3.61857C1.68164 3.62124 1.83061 3.6543 1.96861 3.71579C2.10661 3.77728 2.23081 3.86593 2.3338 3.97646L5.47481 7.11596L10.6843 0.478459L10.7128 0.445458Z" fill="#FFFEFB"/>
</svg>
