<svg width="40" height="40" viewBox="0 0 40 40" fill="none" xmlns="http://www.w3.org/2000/svg">
<path d="M10.8568 23.8709L8.37346 34.6242C8.29656 34.9498 8.31964 35.291 8.4397 35.6033C8.55975 35.9156 8.77119 36.1845 9.0464 36.3747C9.32162 36.565 9.64781 36.6678 9.98238 36.6698C10.3169 36.6718 10.6443 36.5728 10.9218 36.3859L19.9968 30.3359L29.0718 36.3859C29.3557 36.5743 29.6905 36.6714 30.0312 36.6639C30.3719 36.6564 30.7021 36.5448 30.9774 36.3441C31.2528 36.1433 31.4601 35.863 31.5714 35.541C31.6827 35.2189 31.6927 34.8705 31.6001 34.5425L28.5518 23.8759L36.1118 17.0725C36.3539 16.8545 36.5268 16.5703 36.6092 16.255C36.6915 15.9398 36.6796 15.6073 36.575 15.2988C36.4703 14.9902 36.2775 14.7191 36.0205 14.5189C35.7634 14.3187 35.4533 14.1983 35.1285 14.1725L25.6268 13.4159L21.5151 4.31419C21.384 4.02112 21.1709 3.77225 20.9015 3.59762C20.6321 3.423 20.3179 3.33008 19.9968 3.33008C19.6757 3.33008 19.3615 3.423 19.0921 3.59762C18.8227 3.77225 18.6096 4.02112 18.4785 4.31419L14.3668 13.4159L4.86512 14.1709C4.54588 14.1961 4.24069 14.3129 3.98605 14.5071C3.73141 14.7013 3.53811 14.9647 3.42928 15.2659C3.32044 15.5671 3.30068 15.8932 3.37236 16.2054C3.44404 16.5175 3.60412 16.8023 3.83346 17.0259L10.8568 23.8709ZM15.6118 16.6609C15.9093 16.6374 16.195 16.5344 16.439 16.3625C16.6829 16.1907 16.8762 15.9564 16.9985 15.6842L19.9968 9.04919L22.9951 15.6842C23.1174 15.9564 23.3106 16.1907 23.5546 16.3625C23.7986 16.5344 24.0843 16.6374 24.3818 16.6609L31.0018 17.1859L25.5501 22.0925C25.0768 22.5192 24.8885 23.1759 25.0618 23.7892L27.1501 31.0975L20.9235 26.9459C20.6502 26.7624 20.3284 26.6645 19.9993 26.6645C19.6701 26.6645 19.3484 26.7624 19.0751 26.9459L12.5685 31.2842L14.3185 23.7075C14.3826 23.4289 14.374 23.1384 14.2934 22.864C14.2129 22.5896 14.0631 22.3406 13.8585 22.1409L8.79512 17.2042L15.6118 16.6609Z" fill="#999898"/>
</svg>
