<svg width="28" height="26" viewBox="0 0 28 26" fill="none" xmlns="http://www.w3.org/2000/svg">
<path d="M13.9947 0C6.26662 0 0 4.97177 0 11.1072C0 15.074 2.6181 18.5489 6.56102 20.5218L5.14157 25.6258C5.14157 25.6258 5.11528 25.8638 5.26774 25.9537C5.4202 26.0436 5.60421 25.9749 5.60421 25.9749C6.04581 25.9114 10.7037 22.6163 11.5186 22.045C12.3229 22.1614 13.1588 22.2196 14.0053 22.2196C21.7334 22.2196 28 17.2478 28 11.1124C28 4.97706 21.7229 0 13.9947 0Z" fill="black"/>
<path d="M6.25593 14.9787C5.80906 14.9787 5.44632 14.6296 5.44632 14.2012V9.3722H4.18458C3.74823 9.3722 3.396 9.0179 3.396 8.5789C3.396 8.1399 3.75349 7.7855 4.18458 7.7855H8.322C8.7584 7.7855 9.1106 8.1399 9.1106 8.5789C9.1106 9.0179 8.7531 9.3722 8.322 9.3722H7.06028V14.2012C7.06028 14.6243 6.69228 14.9787 6.25067 14.9787H6.25593ZM13.3374 14.9681C13.001 14.9681 12.7433 14.8306 12.6645 14.6085L12.2649 13.5506H9.8046L9.405 14.6085C9.3261 14.8306 9.0685 14.9681 8.7321 14.9681C8.5533 14.9681 8.3798 14.9311 8.2169 14.8623C7.99607 14.7566 7.78052 14.4762 8.0276 13.7093L9.957 8.5947C10.0937 8.2033 10.509 7.8014 11.0347 7.7908C11.5605 7.7802 11.981 8.2033 12.1125 8.5947L14.0419 13.7093C14.289 14.4762 14.0734 14.7671 13.8526 14.8623C13.6949 14.9364 13.5162 14.9681 13.3374 14.9681ZM11.8391 12.112L11.0347 9.8059L10.2304 12.112H11.8391ZM15.3404 14.8623C14.9198 14.8623 14.5676 14.5291 14.5676 14.1219V8.5947C14.5676 8.1452 14.9356 7.7802 15.393 7.7802C15.8504 7.7802 16.2184 8.1505 16.2184 8.5947V13.3655H17.9322C18.3528 13.3655 18.705 13.6987 18.705 14.106C18.705 14.5133 18.3581 14.8465 17.9322 14.8465L15.3404 14.8623ZM19.0152 14.1536V8.6C19.0152 8.1505 19.3832 7.7855 19.8248 7.7855C20.2664 7.7855 20.6344 8.1557 20.6344 8.6V10.3454L22.8951 8.0711C23.1439 7.8208 23.6143 7.8427 23.8992 8.1293C24.1668 8.3985 24.2363 8.8535 23.957 9.1395L22.1065 10.9907L24.0937 13.6353C24.3607 13.9791 24.2959 14.5147 23.936 14.7671C23.5811 15.0316 23.0598 14.9434 22.8057 14.6085L20.9131 12.0856L20.6344 12.3659V14.1377C20.6344 15.1931 19.0152 15.2338 19.0152 14.1536Z" fill="#FFE812"/>
</svg>
