<svg width="180" height="180" viewBox="0 0 180 180" fill="none" xmlns="http://www.w3.org/2000/svg">
<g clip-path="url(#clip0_8520_23444)">
<path fill-rule="evenodd" clip-rule="evenodd" d="M46.2176 17.6047C48.9837 8.97839 61.3709 10.1527 62.4786 19.1509L62.5172 19.5195L62.6064 20.2369C63.262 25.394 65.4122 30.2339 68.7849 34.1437C72.1576 38.0535 76.601 40.8573 81.5525 42.2001C90.4547 44.613 89.2606 57.7941 80.0697 58.5678C74.9386 59.0015 69.4305 61.4744 66.0195 64.2365C61.9916 67.498 59.0098 71.8999 57.4543 76.8806L57.1632 77.8244C54.4574 86.4666 42.0701 85.407 40.8891 76.4231L40.7353 75.2826C40.0501 70.1187 37.8774 65.2785 34.4893 61.3682C31.1012 57.4579 26.6483 54.6512 21.6882 53.2997C12.7665 50.8747 13.9616 37.6832 23.1739 36.901C28.2718 36.4681 33.1361 34.527 37.1631 31.3185C41.1902 28.11 44.2027 23.7753 45.827 18.8524L46.0874 18.0206L46.2176 17.6047Z" fill="url(#paint0_linear_8520_23444)"/>
<path fill-rule="evenodd" clip-rule="evenodd" d="M112.092 44.1149C121.693 32.7851 139.717 42.3349 135.75 56.658L135.577 57.2405L135.263 58.383C133.02 66.605 133.24 75.2843 135.896 83.3218C138.551 91.3593 143.522 98.3934 150.179 103.533C162.148 112.773 152.07 131.987 137.665 127.393C129.622 124.831 119.728 125.121 112.829 127.164C104.682 129.577 97.4047 134.373 91.9242 140.941L90.8912 142.188C81.3715 153.58 63.275 144.204 67.1223 129.856L67.6049 128.032C69.8067 119.781 69.5525 111.088 66.8741 103.04C64.1957 94.9916 59.2123 87.9473 52.5479 82.7886C40.5568 73.5186 50.6424 54.2891 65.0856 58.8837C73.0782 61.4263 81.6632 61.538 89.7752 59.2049C97.8872 56.8718 105.169 52.1966 110.718 45.7594L111.634 44.6631L112.092 44.1149Z" fill="url(#paint1_linear_8520_23444)"/>
</g>
<defs>
<linearGradient id="paint0_linear_8520_23444" x1="51.7968" y1="33.0686" x2="69.2359" y2="101.535" gradientUnits="userSpaceOnUse">
<stop offset="0.00157268" stop-color="#C0DEFF" stop-opacity="0.2"/>
<stop offset="1" stop-color="#C0DEFF"/>
</linearGradient>
<linearGradient id="paint1_linear_8520_23444" x1="76.1764" y1="39.8313" x2="162.63" y2="164.584" gradientUnits="userSpaceOnUse">
<stop offset="0.000639323" stop-color="#94D2FF"/>
<stop offset="1" stop-color="#6198FF"/>
</linearGradient>
<clipPath id="clip0_8520_23444">
<rect width="180" height="180" fill="white"/>
</clipPath>
</defs>
</svg>
