<svg width="24" height="24" viewBox="0 0 24 24" fill="none" xmlns="http://www.w3.org/2000/svg">
<path d="M12.0004 13.2734L14.9004 16.1734C15.0837 16.3568 15.2962 16.4443 15.5379 16.4359C15.7796 16.4276 15.9921 16.3318 16.1754 16.1484C16.3587 15.9651 16.4504 15.7526 16.4504 15.5109C16.4504 15.2693 16.3587 15.0571 16.1754 14.8744L13.2754 11.9859L16.1754 9.09744C16.3587 8.91477 16.4504 8.7026 16.4504 8.46094C16.4504 8.21927 16.3587 8.00677 16.1754 7.82344C15.9921 7.6401 15.7796 7.54844 15.5379 7.54844C15.2962 7.54844 15.0837 7.6401 14.9004 7.82344L12.0004 10.7234L9.10039 7.82344C8.91706 7.6401 8.70872 7.54844 8.47539 7.54844C8.24206 7.54844 8.03372 7.6401 7.85039 7.82344C7.66706 8.00677 7.57539 8.21927 7.57539 8.46094C7.57539 8.7026 7.66631 8.9151 7.84814 9.09844L10.7254 11.9984L7.82539 14.8984C7.64206 15.0818 7.55456 15.2901 7.56289 15.5234C7.57122 15.7568 7.66706 15.9651 7.85039 16.1484C8.03372 16.3318 8.24622 16.4234 8.48789 16.4234C8.72956 16.4234 8.94131 16.3325 9.12314 16.1507L12.0004 13.2734ZM12.0074 21.5984C10.6861 21.5984 9.44206 21.3484 8.27539 20.8484C7.10872 20.3484 6.08789 19.6609 5.21289 18.7859C4.33789 17.9109 3.65039 16.8904 3.15039 15.7244C2.65039 14.5584 2.40039 13.3126 2.40039 11.9869C2.40039 10.6613 2.65039 9.41927 3.15039 8.26094C3.65039 7.1026 4.33789 6.08594 5.21289 5.21094C6.08789 4.33594 7.10839 3.64844 8.27439 3.14844C9.44039 2.64844 10.6862 2.39844 12.0119 2.39844C13.3376 2.39844 14.5796 2.64844 15.7379 3.14844C16.8962 3.64844 17.9129 4.33594 18.7879 5.21094C19.6629 6.08594 20.3504 7.10444 20.8504 8.26644C21.3504 9.4286 21.6004 10.6703 21.6004 11.9914C21.6004 13.3128 21.3504 14.5568 20.8504 15.7234C20.3504 16.8901 19.6629 17.9109 18.7879 18.7859C17.9129 19.6609 16.8944 20.3484 15.7324 20.8484C14.5702 21.3484 13.3286 21.5984 12.0074 21.5984ZM12.0004 19.7984C14.1671 19.7984 16.0087 19.0401 17.5254 17.5234C19.0421 16.0068 19.8004 14.1651 19.8004 11.9984C19.8004 9.83177 19.0421 7.9901 17.5254 6.47344C16.0087 4.95677 14.1671 4.19844 12.0004 4.19844C9.83372 4.19844 7.99206 4.95677 6.47539 6.47344C4.95872 7.9901 4.20039 9.83177 4.20039 11.9984C4.20039 14.1651 4.95872 16.0068 6.47539 17.5234C7.99206 19.0401 9.83372 19.7984 12.0004 19.7984Z" fill="#F87171"/>
</svg>
