<svg width="73" height="72" viewBox="0 0 73 72" fill="none" xmlns="http://www.w3.org/2000/svg">
<rect x="0.5" width="72" height="72" rx="15" fill="url(#paint0_linear_1693_22748)"/>
<path d="M19.5 56.7129L26.4086 15.4953H34.6053L33.7661 20.5304H34.1369C34.6313 19.7237 35.2884 18.9041 36.108 18.0714C36.9407 17.2257 37.9751 16.5231 39.2111 15.9637C40.4471 15.3912 41.8978 15.105 43.5631 15.105C45.7619 15.105 47.681 15.6774 49.3203 16.8224C50.9596 17.9543 52.1436 19.6652 52.8722 21.9551C53.6138 24.2319 53.6984 27.0877 53.1259 30.5225C52.5795 33.8663 51.5711 36.6896 50.1009 38.9924C48.6438 41.2823 46.8938 43.0192 44.8512 44.2032C42.8215 45.3741 40.6683 45.9596 38.3914 45.9596C36.7781 45.9596 35.451 45.6929 34.4102 45.1595C33.3823 44.626 32.5822 43.956 32.0097 43.1493C31.4372 42.3297 31.0339 41.5035 30.7997 40.6708H30.4875L27.8333 56.7129H19.5Z" fill="#FFFEFB"/>
<path d="M53.2752 50.5979L52.4499 56.895H31.5215L32.3312 50.5979H53.2752Z" fill="#FFFEFB"/>
<defs>
<linearGradient id="paint0_linear_1693_22748" x1="36.5" y1="1.19805e-06" x2="-3.7" y2="77.7" gradientUnits="userSpaceOnUse">
<stop stop-color="#2979FF"/>
<stop offset="1" stop-color="#55BBFF"/>
</linearGradient>
</defs>
</svg>
