<svg width="200" height="200" viewBox="0 0 200 200" fill="none" xmlns="http://www.w3.org/2000/svg">
<g clip-path="url(#clip0_8509_43979)">
<path fill-rule="evenodd" clip-rule="evenodd" d="M48.8683 33.2604C44.7669 8.84736 76.3136 -3.83718 90.2861 16.6202L90.8419 17.4667L91.9582 19.0965C100.016 30.7954 111.306 39.8494 124.397 45.1121C137.488 50.3748 151.792 51.6094 165.497 48.6596C190.136 43.3528 203.765 76.853 182.421 90.2587C170.507 97.7467 160.235 110.659 155.417 121.643C149.728 134.613 148.009 149.04 150.478 163.084L150.954 165.741C155.222 190.117 123.819 203.08 109.686 182.749L107.883 180.173C99.7441 168.495 88.3999 159.468 75.2708 154.224C62.1417 148.979 47.8114 147.749 34.0745 150.689C9.37312 155.99 -4.26681 122.464 17.1182 109.011C28.9524 101.566 38.328 90.7529 44.0818 77.9123C49.8355 65.0717 51.714 50.7692 49.4843 36.7795L49.0736 34.4335L48.8683 33.2604Z" fill="url(#paint0_linear_8509_43979)"/>
</g>
<defs>
<linearGradient id="paint0_linear_8509_43979" x1="-13.2054" y1="60.7209" x2="155.192" y2="172.609" gradientUnits="userSpaceOnUse">
<stop stop-color="#B1D6FF" stop-opacity="0.32"/>
<stop offset="1" stop-color="#B1D6FF" stop-opacity="0.9"/>
</linearGradient>
<clipPath id="clip0_8509_43979">
<rect width="200" height="200" fill="white"/>
</clipPath>
</defs>
</svg>
