<svg width="28" height="28" viewBox="0 0 28 28" fill="none" xmlns="http://www.w3.org/2000/svg">
<path d="M9.8026 19.832L14.0026 15.632L18.2026 19.832L19.8359 18.1987L15.6359 13.9987L19.8359 9.7987L18.2026 8.16536L14.0026 12.3654L9.8026 8.16536L8.16927 9.7987L12.3693 13.9987L8.16927 18.1987L9.8026 19.832ZM14.0026 25.6654C12.3887 25.6654 10.872 25.3591 9.4526 24.7466C8.03316 24.1341 6.79844 23.3029 5.74844 22.2529C4.69844 21.2029 3.86719 19.9681 3.25469 18.5487C2.64219 17.1293 2.33594 15.6126 2.33594 13.9987C2.33594 12.3848 2.64219 10.8681 3.25469 9.4487C3.86719 8.02925 4.69844 6.79453 5.74844 5.74453C6.79844 4.69453 8.03316 3.86328 9.4526 3.25078C10.872 2.63828 12.3887 2.33203 14.0026 2.33203C15.6165 2.33203 17.1332 2.63828 18.5526 3.25078C19.972 3.86328 21.2068 4.69453 22.2568 5.74453C23.3068 6.79453 24.138 8.02925 24.7505 9.4487C25.363 10.8681 25.6693 12.3848 25.6693 13.9987C25.6693 15.6126 25.363 17.1293 24.7505 18.5487C24.138 19.9681 23.3068 21.2029 22.2568 22.2529C21.2068 23.3029 19.972 24.1341 18.5526 24.7466C17.1332 25.3591 15.6165 25.6654 14.0026 25.6654ZM14.0026 23.332C16.6082 23.332 18.8151 22.4279 20.6234 20.6195C22.4318 18.8112 23.3359 16.6043 23.3359 13.9987C23.3359 11.3931 22.4318 9.1862 20.6234 7.37786C18.8151 5.56953 16.6082 4.66536 14.0026 4.66536C11.397 4.66536 9.1901 5.56953 7.38177 7.37786C5.57344 9.1862 4.66927 11.3931 4.66927 13.9987C4.66927 16.6043 5.57344 18.8112 7.38177 20.6195C9.1901 22.4279 11.397 23.332 14.0026 23.332Z" fill="#E90000"/>
</svg>
