<svg width="26" height="28" viewBox="0 0 26 28" fill="none" xmlns="http://www.w3.org/2000/svg">
<path d="M5.03167 10.7869C5.01625 11.0431 5.00854 11.309 5.00854 11.5844C5.00854 17 3.8748 18 2.27042 19.9644C1.60542 20.7781 2.1873 22 3.35105 22H16.9998V23C16.9998 24.0609 16.5784 25.0783 15.8282 25.8284C15.0781 26.5786 14.0607 27 12.9998 27C11.9389 27 10.9215 26.5786 10.1714 25.8284C9.42122 25.0783 8.99979 24.0609 8.99979 23V22M22.906 18.9562C21.751 17.4906 20.9923 16.0156 20.9923 11.5813C20.9923 6.625 18.4598 4.85812 16.3748 4C16.0979 3.88625 15.8373 3.625 15.7529 3.34062C15.3879 2.09625 14.3635 1 12.9998 1C11.636 1 10.6123 2.09688 10.2498 3.34188C10.1654 3.62938 9.90479 3.88625 9.62479 4C9.23794 4.15778 8.8621 4.34132 8.49979 4.54938" stroke="#999898" stroke-width="2" stroke-linecap="round" stroke-linejoin="round"/>
<path d="M25 26L1 2" stroke="#999898" stroke-width="2" stroke-miterlimit="10" stroke-linecap="round"/>
</svg>
