<svg width="28" height="28" viewBox="0 0 28 28" fill="none" xmlns="http://www.w3.org/2000/svg">
<path d="M15.75 10.5C15.2859 10.5 14.8408 10.3156 14.5126 9.98744C14.1844 9.65925 14 9.21413 14 8.75C14 8.28587 14.1844 7.84075 14.5126 7.51256C14.8408 7.18437 15.2859 7 15.75 7C16.2141 7 16.6592 7.18437 16.9874 7.51256C17.3156 7.84075 17.5 8.28587 17.5 8.75C17.5 9.21413 17.3156 9.65925 16.9874 9.98744C16.6592 10.3156 16.2141 10.5 15.75 10.5Z" fill="#D8EFFF"/>
<path d="M22.1654 2.33203H5.83203C4.90463 2.3348 4.016 2.70444 3.36022 3.36022C2.70444 4.016 2.3348 4.90463 2.33203 5.83203V16.1687L6.8587 11.642C7.52568 11.0072 8.41123 10.6531 9.33203 10.6531C10.2528 10.6531 11.1384 11.0072 11.8054 11.642L15.1549 15.0102L16.1909 13.9742C16.8484 13.3203 17.738 12.9533 18.6654 12.9533C19.5927 12.9533 20.4823 13.3203 21.1399 13.9742L25.6654 18.502V5.83203C25.6626 4.90463 25.293 4.016 24.6372 3.36022C23.9814 2.70444 23.0928 2.3348 22.1654 2.33203ZM15.7487 10.4987C15.2846 10.4987 14.8394 10.3143 14.5113 9.98614C14.1831 9.65795 13.9987 9.21283 13.9987 8.7487C13.9987 8.28457 14.1831 7.83945 14.5113 7.51126C14.8394 7.18307 15.2846 6.9987 15.7487 6.9987C16.2128 6.9987 16.6579 7.18307 16.9861 7.51126C17.3143 7.83945 17.4987 8.28457 17.4987 8.7487C17.4987 9.21283 17.3143 9.65795 16.9861 9.98614C16.6579 10.3143 16.2128 10.4987 15.7487 10.4987Z" fill="url(#paint0_linear_8493_26219)"/>
<path d="M11.8054 11.6451C11.1384 11.0103 10.2528 10.6562 9.33203 10.6562C8.41123 10.6562 7.52568 11.0103 6.8587 11.6451L2.33203 16.1718V22.1685C2.3348 23.0959 2.70444 23.9845 3.36022 24.6403C4.016 25.2961 4.90463 25.6657 5.83203 25.6685H22.1654C23.1162 25.6685 24.0262 25.28 24.6854 24.5951L11.8054 11.6451Z" fill="#6198FF"/>
<path d="M25.6667 18.5034L21.1412 13.9779C20.4837 13.3241 19.5941 12.957 18.6667 12.957C17.7394 12.957 16.8498 13.3241 16.1922 13.9779L15.1562 15.0139L24.6821 24.5911C25.3144 23.9436 25.6679 23.0744 25.6667 22.1691V18.5034Z" fill="#D8EFFF"/>
<defs>
<linearGradient id="paint0_linear_8493_26219" x1="22.1542" y1="4.77168" x2="-5.48762" y2="20.0411" gradientUnits="userSpaceOnUse">
<stop stop-color="#94D2FF"/>
<stop offset="1" stop-color="#6198FF"/>
</linearGradient>
</defs>
</svg>
