<svg width="20" height="18" viewBox="0 0 20 18" fill="none" xmlns="http://www.w3.org/2000/svg">
<path d="M2 18C1.45 18 0.979167 17.8042 0.5875 17.4125C0.195833 17.0208 0 16.55 0 16V4C0 3.45 0.195833 2.97917 0.5875 2.5875C0.979167 2.19583 1.45 2 2 2H11C11.2833 2 11.5208 2.09583 11.7125 2.2875C11.9042 2.47917 12 2.71667 12 3C12 3.28333 11.9042 3.52083 11.7125 3.7125C11.5208 3.90417 11.2833 4 11 4H2V16H18V9C18 8.71667 18.0958 8.47917 18.2875 8.2875C18.4792 8.09583 18.7167 8 19 8C19.2833 8 19.5208 8.09583 19.7125 8.2875C19.9042 8.47917 20 8.71667 20 9V16C20 16.55 19.8042 17.0208 19.4125 17.4125C19.0208 17.8042 18.55 18 18 18H2ZM10 9L13.225 7C13.4583 6.85 13.6792 6.8125 13.8875 6.8875C14.0958 6.9625 14.2583 7.09167 14.375 7.275C14.4917 7.45833 14.5333 7.65833 14.5 7.875C14.4667 8.09167 14.3333 8.275 14.1 8.425L10.525 10.675C10.3583 10.775 10.1833 10.825 10 10.825C9.81667 10.825 9.64167 10.775 9.475 10.675L2 6V4L10 9ZM17 6C16.1667 6 15.4583 5.70833 14.875 5.125C14.2917 4.54167 14 3.83333 14 3C14 2.16667 14.2917 1.45833 14.875 0.875C15.4583 0.291667 16.1667 0 17 0C17.8333 0 18.5417 0.291667 19.125 0.875C19.7083 1.45833 20 2.16667 20 3C20 3.83333 19.7083 4.54167 19.125 5.125C18.5417 5.70833 17.8333 6 17 6Z" fill="#121212"/>
</svg>
