<svg width="18" height="20" viewBox="0 0 18 20" fill="none" xmlns="http://www.w3.org/2000/svg">
<path d="M3 20C2.16667 20 1.45833 19.7083 0.875 19.125C0.291667 18.5417 0 17.8333 0 17V15C0 14.7167 0.0958333 14.4792 0.2875 14.2875C0.479167 14.0958 0.716667 14 1 14H3V0.600012C3 0.483346 3.05 0.404179 3.15 0.362512C3.25 0.320846 3.34167 0.341679 3.425 0.425012L4.15 1.15001C4.25 1.25001 4.36667 1.30001 4.5 1.30001C4.63333 1.30001 4.75 1.25001 4.85 1.15001L5.65 0.350012C5.75 0.250012 5.86667 0.200012 6 0.200012C6.13333 0.200012 6.25 0.250012 6.35 0.350012L7.15 1.15001C7.25 1.25001 7.36667 1.30001 7.5 1.30001C7.63333 1.30001 7.75 1.25001 7.85 1.15001L8.65 0.350012C8.75 0.250012 8.86667 0.200012 9 0.200012C9.13333 0.200012 9.25 0.250012 9.35 0.350012L10.15 1.15001C10.25 1.25001 10.3667 1.30001 10.5 1.30001C10.6333 1.30001 10.75 1.25001 10.85 1.15001L11.65 0.350012C11.75 0.250012 11.8667 0.200012 12 0.200012C12.1333 0.200012 12.25 0.250012 12.35 0.350012L13.15 1.15001C13.25 1.25001 13.3667 1.30001 13.5 1.30001C13.6333 1.30001 13.75 1.25001 13.85 1.15001L14.65 0.350012C14.75 0.250012 14.8667 0.200012 15 0.200012C15.1333 0.200012 15.25 0.250012 15.35 0.350012L16.15 1.15001C16.25 1.25001 16.3667 1.30001 16.5 1.30001C16.6333 1.30001 16.75 1.25001 16.85 1.15001L17.575 0.425012C17.6583 0.341679 17.75 0.320846 17.85 0.362512C17.95 0.404179 18 0.483346 18 0.600012V17C18 17.8333 17.7083 18.5417 17.125 19.125C16.5417 19.7083 15.8333 20 15 20H3ZM15 18C15.2833 18 15.5208 17.9042 15.7125 17.7125C15.9042 17.5208 16 17.2833 16 17V3.00001H5V14H13C13.2833 14 13.5208 14.0958 13.7125 14.2875C13.9042 14.4792 14 14.7167 14 15V17C14 17.2833 14.0958 17.5208 14.2875 17.7125C14.4792 17.9042 14.7167 18 15 18ZM7 5.00001H11C11.2833 5.00001 11.5208 5.09585 11.7125 5.28751C11.9042 5.47918 12 5.71668 12 6.00001C12 6.28335 11.9042 6.52085 11.7125 6.71251C11.5208 6.90418 11.2833 7.00001 11 7.00001H7C6.71667 7.00001 6.47917 6.90418 6.2875 6.71251C6.09583 6.52085 6 6.28335 6 6.00001C6 5.71668 6.09583 5.47918 6.2875 5.28751C6.47917 5.09585 6.71667 5.00001 7 5.00001ZM7 8.00001H11C11.2833 8.00001 11.5208 8.09585 11.7125 8.28751C11.9042 8.47918 12 8.71668 12 9.00001C12 9.28335 11.9042 9.52085 11.7125 9.71251C11.5208 9.90418 11.2833 10 11 10H7C6.71667 10 6.47917 9.90418 6.2875 9.71251C6.09583 9.52085 6 9.28335 6 9.00001C6 8.71668 6.09583 8.47918 6.2875 8.28751C6.47917 8.09585 6.71667 8.00001 7 8.00001ZM14 7.00001C13.7167 7.00001 13.4792 6.90418 13.2875 6.71251C13.0958 6.52085 13 6.28335 13 6.00001C13 5.71668 13.0958 5.47918 13.2875 5.28751C13.4792 5.09585 13.7167 5.00001 14 5.00001C14.2833 5.00001 14.5208 5.09585 14.7125 5.28751C14.9042 5.47918 15 5.71668 15 6.00001C15 6.28335 14.9042 6.52085 14.7125 6.71251C14.5208 6.90418 14.2833 7.00001 14 7.00001ZM14 10C13.7167 10 13.4792 9.90418 13.2875 9.71251C13.0958 9.52085 13 9.28335 13 9.00001C13 8.71668 13.0958 8.47918 13.2875 8.28751C13.4792 8.09585 13.7167 8.00001 14 8.00001C14.2833 8.00001 14.5208 8.09585 14.7125 8.28751C14.9042 8.47918 15 8.71668 15 9.00001C15 9.28335 14.9042 9.52085 14.7125 9.71251C14.5208 9.90418 14.2833 10 14 10ZM3 18H12V16H2V17C2 17.2833 2.09583 17.5208 2.2875 17.7125C2.47917 17.9042 2.71667 18 3 18Z" fill="#121212"/>
</svg>
