<svg width="10" height="10" viewBox="0 0 10 10" fill="none" xmlns="http://www.w3.org/2000/svg">
<path d="M4.99995 5.63745L6.44995 7.08745C6.54162 7.17912 6.64787 7.22287 6.7687 7.2187C6.88953 7.21453 6.99578 7.16662 7.08745 7.07495C7.17912 6.98328 7.22495 6.87703 7.22495 6.7562C7.22495 6.63537 7.17912 6.52928 7.08745 6.43795L5.63745 4.9937L7.08745 3.54945C7.17912 3.45812 7.22495 3.35203 7.22495 3.2312C7.22495 3.11037 7.17912 3.00412 7.08745 2.91245C6.99578 2.82078 6.88953 2.77495 6.7687 2.77495C6.64787 2.77495 6.54162 2.82078 6.44995 2.91245L4.99995 4.36245L3.54995 2.91245C3.45828 2.82078 3.35412 2.77495 3.23745 2.77495C3.12078 2.77495 3.01662 2.82078 2.92495 2.91245C2.83328 3.00412 2.78745 3.11037 2.78745 3.2312C2.78745 3.35203 2.83291 3.45828 2.92383 3.54995L4.36245 4.99995L2.91245 6.44995C2.82078 6.54162 2.77703 6.64578 2.7812 6.76245C2.78537 6.87912 2.83328 6.98328 2.92495 7.07495C3.01662 7.16662 3.12287 7.21245 3.2437 7.21245C3.36453 7.21245 3.47041 7.16699 3.56133 7.07608L4.99995 5.63745ZM5.00345 9.79995C4.34278 9.79995 3.72078 9.67495 3.13745 9.42495C2.55412 9.17495 2.0437 8.8312 1.6062 8.3937C1.1687 7.9562 0.824951 7.44595 0.574951 6.86295C0.324951 6.27995 0.199951 5.65703 0.199951 4.9942C0.199951 4.33137 0.324951 3.71037 0.574951 3.1312C0.824951 2.55203 1.1687 2.0437 1.6062 1.6062C2.0437 1.1687 2.55395 0.824951 3.13695 0.574951C3.71995 0.324951 4.34287 0.199951 5.0057 0.199951C5.66853 0.199951 6.28953 0.324951 6.8687 0.574951C7.44787 0.824951 7.9562 1.1687 8.3937 1.6062C8.8312 2.0437 9.17495 2.55295 9.42495 3.13395C9.67495 3.71503 9.79995 4.33587 9.79995 4.99645C9.79995 5.65712 9.67495 6.27912 9.42495 6.86245C9.17495 7.44578 8.8312 7.9562 8.3937 8.3937C7.9562 8.8312 7.44695 9.17495 6.86595 9.42495C6.28487 9.67495 5.66403 9.79995 5.00345 9.79995ZM4.99995 8.89995C6.08328 8.89995 7.00412 8.52078 7.76245 7.76245C8.52078 7.00412 8.89995 6.08328 8.89995 4.99995C8.89995 3.91662 8.52078 2.99578 7.76245 2.23745C7.00412 1.47912 6.08328 1.09995 4.99995 1.09995C3.91662 1.09995 2.99578 1.47912 2.23745 2.23745C1.47912 2.99578 1.09995 3.91662 1.09995 4.99995C1.09995 6.08328 1.47912 7.00412 2.23745 7.76245C2.99578 8.52078 3.91662 8.89995 4.99995 8.89995Z" fill="#121212"/>
</svg>
