<svg width="13" height="24" viewBox="0 0 13 24" fill="none" xmlns="http://www.w3.org/2000/svg">
<path d="M6.41667 23.6668C4.62778 23.6668 3.11111 23.0446 1.86667 21.8002C0.622222 20.5557 0 19.0391 0 17.2502V5.00016C0 3.71683 0.456945 2.61822 1.37083 1.70433C2.28472 0.790441 3.38333 0.333496 4.66667 0.333496C5.95 0.333496 7.04861 0.790441 7.9625 1.70433C8.87639 2.61822 9.33333 3.71683 9.33333 5.00016V16.0835C9.33333 16.9002 9.05139 17.5904 8.4875 18.1543C7.92361 18.7182 7.23333 19.0002 6.41667 19.0002C5.6 19.0002 4.90972 18.7182 4.34583 18.1543C3.78194 17.5904 3.5 16.9002 3.5 16.0835V5.00016H5.25V16.0835C5.25 16.4141 5.36181 16.6911 5.58542 16.9147C5.80903 17.1384 6.08611 17.2502 6.41667 17.2502C6.74722 17.2502 7.02431 17.1384 7.24792 16.9147C7.47153 16.6911 7.58333 16.4141 7.58333 16.0835V5.00016C7.58333 4.1835 7.30139 3.49322 6.7375 2.92933C6.17361 2.36544 5.48333 2.0835 4.66667 2.0835C3.85 2.0835 3.15972 2.36544 2.59583 2.92933C2.03194 3.49322 1.75 4.1835 1.75 5.00016V17.2502C1.75 18.5335 2.20694 19.6321 3.12083 20.546C4.03472 21.4599 5.13333 21.9168 6.41667 21.9168C7.7 21.9168 8.79861 21.4599 9.7125 20.546C10.6264 19.6321 11.0833 18.5335 11.0833 17.2502V5.00016H12.8333V17.2502C12.8333 19.0391 12.2111 20.5557 10.9667 21.8002C9.72222 23.0446 8.20556 23.6668 6.41667 23.6668Z" fill="#121212"/>
</svg>
