<svg width="16" height="16" viewBox="0 0 16 16" fill="none" xmlns="http://www.w3.org/2000/svg">
<path d="M11.9998 10.4987C11.9998 11.6543 11.5943 12.6376 10.7832 13.4487C9.97206 14.2598 8.98873 14.6654 7.83317 14.6654C6.67761 14.6654 5.69428 14.2598 4.88317 13.4487C4.07206 12.6376 3.6665 11.6543 3.6665 10.4987V4.33203C3.6665 3.4987 3.95817 2.79036 4.5415 2.20703C5.12484 1.6237 5.83317 1.33203 6.6665 1.33203C7.49984 1.33203 8.20817 1.6237 8.7915 2.20703C9.37484 2.79036 9.6665 3.4987 9.6665 4.33203V10.1654C9.6665 10.6765 9.48873 11.1098 9.13317 11.4654C8.77761 11.8209 8.34428 11.9987 7.83317 11.9987C7.32206 11.9987 6.88873 11.8209 6.53317 11.4654C6.17761 11.1098 5.99984 10.6765 5.99984 10.1654V4.66536C5.99984 4.47648 6.06373 4.31814 6.1915 4.19036C6.31928 4.06259 6.47761 3.9987 6.6665 3.9987C6.85539 3.9987 7.01373 4.06259 7.1415 4.19036C7.26928 4.31814 7.33317 4.47648 7.33317 4.66536V10.1654C7.33317 10.3098 7.38039 10.4293 7.47484 10.5237C7.56928 10.6181 7.68873 10.6654 7.83317 10.6654C7.97761 10.6654 8.09706 10.6181 8.1915 10.5237C8.28595 10.4293 8.33317 10.3098 8.33317 10.1654V4.33203C8.32206 3.86536 8.15817 3.47092 7.8415 3.1487C7.52484 2.82648 7.13317 2.66536 6.6665 2.66536C6.19984 2.66536 5.80539 2.82648 5.48317 3.1487C5.16095 3.47092 4.99984 3.86536 4.99984 4.33203V10.4987C4.98873 11.2876 5.26095 11.957 5.8165 12.507C6.37206 13.057 7.04428 13.332 7.83317 13.332C8.61095 13.332 9.27206 13.057 9.8165 12.507C10.3609 11.957 10.6443 11.2876 10.6665 10.4987V4.66536C10.6665 4.47648 10.7304 4.31814 10.8582 4.19036C10.9859 4.06259 11.1443 3.9987 11.3332 3.9987C11.5221 3.9987 11.6804 4.06259 11.8082 4.19036C11.9359 4.31814 11.9998 4.47648 11.9998 4.66536V10.4987Z" fill="#9CA3AF"/>
</svg>
