<svg viewBox="0 0 26 24" fill="currentColor" xmlns="http://www.w3.org/2000/svg">
<path d="M24.901 10.7928L2.23435 0.126133C2.00613 0.0181541 1.75192 -0.0227379 1.50135 0.00822253C1.25077 0.039183 1.01416 0.140721 0.819086 0.301002C0.62401 0.461283 0.478505 0.673705 0.399529 0.913512C0.320553 1.15332 0.311358 1.41063 0.373017 1.65547L2.95835 11.9995L0.373017 22.3435C0.310781 22.5884 0.319574 22.846 0.398366 23.0861C0.477159 23.3262 0.622693 23.5389 0.817946 23.6993C1.0132 23.8597 1.2501 23.9613 1.50093 23.992C1.75176 24.0227 2.00615 23.9814 2.23435 23.8728L24.901 13.2061C25.1301 13.0985 25.3238 12.9278 25.4594 12.7141C25.5951 12.5005 25.6671 12.2526 25.6671 11.9995C25.6671 11.7464 25.5951 11.4985 25.4594 11.2848C25.3238 11.0711 25.1301 10.9005 24.901 10.7928ZM3.64102 20.2621L4.75968 15.7861L12.333 11.9995L4.75968 8.2128L3.64102 3.7368L21.201 11.9995L3.64102 20.2621Z" fill="currentColor"/>
</svg>
