<svg width="18" height="18" viewBox="0 0 18 18" fill="none" xmlns="http://www.w3.org/2000/svg">
<path fill-rule="evenodd" clip-rule="evenodd" d="M15.7465 0.898074C15.747 0.898238 15.7475 0.898496 15.7485 0.899457L17.1006 2.25157C17.1015 2.25253 17.1018 2.25297 17.102 2.25353C17.1021 2.25406 17.1021 2.25462 17.102 2.25515C17.1018 2.25569 17.1015 2.25614 17.1006 2.2571L10.3575 9.00014L17.1006 15.7432C17.1015 15.7441 17.1018 15.7446 17.102 15.7451C17.1021 15.7457 17.1021 15.7462 17.102 15.7468C17.1018 15.7473 17.1015 15.7477 17.1006 15.7487L15.7485 17.1008C15.7475 17.1018 15.7471 17.102 15.7465 17.1022C15.746 17.1024 15.7454 17.1024 15.7449 17.1022C15.7443 17.102 15.7439 17.1018 15.7429 17.1008L8.99989 10.3578L2.25685 17.1008C2.25592 17.1018 2.25545 17.102 2.25491 17.1022C2.25437 17.1024 2.2538 17.1024 2.25327 17.1022C2.25275 17.102 2.25228 17.1018 2.25132 17.1008L0.899212 15.7487C0.898252 15.7477 0.897994 15.7473 0.89783 15.7467C0.897668 15.7462 0.897668 15.7456 0.89783 15.7451C0.897994 15.7446 0.898252 15.7441 0.899212 15.7432L7.64223 9.00014L0.899212 2.2571C0.898252 2.25616 0.897994 2.25569 0.89783 2.25515C0.897664 2.25462 0.897664 2.25405 0.89783 2.25351C0.897994 2.253 0.898252 2.25253 0.899212 2.25157L2.25132 0.899457C2.25228 0.898496 2.25273 0.898238 2.25329 0.898074C2.25382 0.897913 2.25438 0.897913 2.25491 0.898074C2.25545 0.898238 2.25589 0.898496 2.25685 0.899457L8.99989 7.64247L15.7429 0.899457C15.7439 0.898496 15.7443 0.898238 15.7449 0.898074C15.7454 0.897908 15.746 0.897908 15.7465 0.898074H15.7465Z" fill="black"/>
</svg>
