<svg width="24" height="25" fill="currentColor" viewBox="0 0 24 25" xmlns="http://www.w3.org/2000/svg">
<path d="M12 18.5L16 14.5L14.6 13.1L13 14.7V10.5H11V14.7L9.4 13.1L8 14.5L12 18.5ZM5 8.5V19.5H19V8.5H5ZM5 21.5C4.45 21.5 3.975 21.3083 3.575 20.925C3.19167 20.525 3 20.05 3 19.5V7.025C3 6.79167 3.03333 6.56667 3.1 6.35C3.18333 6.13333 3.3 5.93333 3.45 5.75L4.7 4.225C4.88333 3.99167 5.10833 3.81667 5.375 3.7C5.65833 3.56667 5.95 3.5 6.25 3.5H17.75C18.05 3.5 18.3333 3.56667 18.6 3.7C18.8833 3.81667 19.1167 3.99167 19.3 4.225L20.55 5.75C20.7 5.93333 20.8083 6.13333 20.875 6.35C20.9583 6.56667 21 6.79167 21 7.025V19.5C21 20.05 20.8 20.525 20.4 20.925C20.0167 21.3083 19.55 21.5 19 21.5H5ZM5.4 6.5H18.6L17.75 5.5H6.25L5.4 6.5Z"/>
</svg>
