<svg width="22" height="19" viewBox="0 0 22 19" fill="none" xmlns="http://www.w3.org/2000/svg">
<path d="M11 3.6325C13.76 3.6325 16 5.8725 16 8.6325C16 9.1425 15.9 9.6325 15.76 10.0925L18.82 13.1525C20.21 11.9225 21.31 10.3825 22 8.6225C20.27 4.2425 16 1.1325 11 1.1325C9.73 1.1325 8.51 1.3325 7.36 1.7025L9.53 3.8725C10 3.7325 10.49 3.6325 11 3.6325ZM1.71 0.2925C1.6173 0.385014 1.54375 0.494902 1.49357 0.615876C1.44339 0.736849 1.41756 0.866531 1.41756 0.9975C1.41756 1.12847 1.44339 1.25815 1.49357 1.37912C1.54375 1.5001 1.6173 1.60999 1.71 1.7025L3.68 3.6725C2.03819 4.97315 0.768774 6.68411 0 8.6325C1.73 13.0225 6 16.1325 11 16.1325C12.52 16.1325 13.97 15.8325 15.31 15.3125L18.03 18.0325C18.217 18.2195 18.4706 18.3245 18.735 18.3245C18.9994 18.3245 19.253 18.2195 19.44 18.0325C19.627 17.8455 19.732 17.5919 19.732 17.3275C19.732 17.0631 19.627 16.8095 19.44 16.6225L3.13 0.2925C2.74 -0.0975 2.1 -0.0975 1.71 0.2925ZM11 13.6325C8.24 13.6325 6 11.3925 6 8.6325C6 7.8625 6.18 7.1325 6.49 6.4925L8.06 8.0625C8.03 8.2425 8 8.4325 8 8.6325C8 10.2925 9.34 11.6325 11 11.6325C11.2 11.6325 11.38 11.6025 11.57 11.5625L13.14 13.1325C12.49 13.4525 11.77 13.6325 11 13.6325ZM13.97 8.3025C13.8983 7.62686 13.5971 6.99624 13.1167 6.51581C12.6363 6.03538 12.0056 5.7342 11.33 5.6625L13.97 8.3025Z" fill="#6B7280"/>
</svg>
