<svg width="24" height="21" viewBox="0 0 24 21" fill="none" xmlns="http://www.w3.org/2000/svg">
<path d="M12 20.7125C11.7278 20.7125 11.4507 20.6639 11.1688 20.5667C10.8868 20.4695 10.6389 20.3139 10.425 20.1L8.41254 18.2625C6.35143 16.3764 4.48962 14.5049 2.82712 12.6479C1.16462 10.791 0.333374 8.74445 0.333374 6.50834C0.333374 4.68056 0.945874 3.15418 2.17087 1.92917C3.39587 0.704175 4.92226 0.0916748 6.75004 0.0916748C7.7806 0.0916748 8.75282 0.310425 9.66671 0.747925C10.5806 1.18542 11.3584 1.78334 12 2.54167C12.6417 1.78334 13.4195 1.18542 14.3334 0.747925C15.2473 0.310425 16.2195 0.0916748 17.25 0.0916748C19.0778 0.0916748 20.6042 0.704175 21.8292 1.92917C23.0542 3.15418 23.6667 4.68056 23.6667 6.50834C23.6667 8.74445 22.8403 10.7958 21.1875 12.6625C19.5348 14.5292 17.6584 16.4056 15.5584 18.2917L13.575 20.1C13.3612 20.3139 13.1132 20.4695 12.8313 20.5667C12.5493 20.6639 12.2723 20.7125 12 20.7125Z" fill="#2979FF"/>
</svg>
