<svg width="12" height="12" viewBox="0 0 12 12" fill="none" xmlns="http://www.w3.org/2000/svg">
<path d="M1.33333 12C0.966667 12 0.652778 11.8694 0.391667 11.6083C0.130556 11.3472 0 11.0333 0 10.6667V1.33333C0 0.966667 0.130556 0.652778 0.391667 0.391667C0.652778 0.130556 0.966667 0 1.33333 0H5.33333C5.52222 0 5.68056 0.0638889 5.80833 0.191667C5.93611 0.319444 6 0.477778 6 0.666667C6 0.855556 5.93611 1.01389 5.80833 1.14167C5.68056 1.26944 5.52222 1.33333 5.33333 1.33333H1.33333V10.6667H5.33333C5.52222 10.6667 5.68056 10.7306 5.80833 10.8583C5.93611 10.9861 6 11.1444 6 11.3333C6 11.5222 5.93611 11.6806 5.80833 11.8083C5.68056 11.9361 5.52222 12 5.33333 12H1.33333ZM9.45 6.66667H4.66667C4.47778 6.66667 4.31944 6.60278 4.19167 6.475C4.06389 6.34722 4 6.18889 4 6C4 5.81111 4.06389 5.65278 4.19167 5.525C4.31944 5.39722 4.47778 5.33333 4.66667 5.33333H9.45L8.2 4.08333C8.07778 3.96111 8.01667 3.81111 8.01667 3.63333C8.01667 3.45556 8.07778 3.3 8.2 3.16667C8.32222 3.03333 8.47778 2.96389 8.66667 2.95833C8.85556 2.95278 9.01667 3.01667 9.15 3.15L11.5333 5.53333C11.6667 5.66667 11.7333 5.82222 11.7333 6C11.7333 6.17778 11.6667 6.33333 11.5333 6.46667L9.15 8.85C9.01667 8.98333 8.85833 9.04722 8.675 9.04167C8.49167 9.03611 8.33333 8.96667 8.2 8.83333C8.07778 8.7 8.01944 8.54167 8.025 8.35833C8.03056 8.175 8.09445 8.02222 8.21667 7.9L9.45 6.66667Z" fill="#374151"/>
</svg>
