<svg width="30" height="27" viewBox="0 0 30 27" fill="none" xmlns="http://www.w3.org/2000/svg">
<path d="M29.1667 12H24.6667V1.5C24.6667 1.10218 24.5087 0.720644 24.2274 0.43934C23.9461 0.158035 23.5646 0 23.1667 0H2.16675C1.76892 0 1.38739 0.158035 1.10609 0.43934C0.824783 0.720644 0.666748 1.10218 0.666748 1.5V22.5C0.666748 24.981 2.68575 27 5.16675 27H26.1667C28.6477 27 30.6667 24.981 30.6667 22.5V13.5C30.6667 13.1022 30.5087 12.7206 30.2274 12.4393C29.9461 12.158 29.5646 12 29.1667 12ZM5.16675 24C4.76892 24 4.38739 23.842 4.10609 23.5607C3.82478 23.2794 3.66675 22.8978 3.66675 22.5V3H21.6667V22.5C21.6667 23.0265 21.7582 23.532 21.9232 24H5.16675ZM27.6667 22.5C27.6667 22.8978 27.5087 23.2794 27.2274 23.5607C26.9461 23.842 26.5646 24 26.1667 24C25.7689 24 25.3874 23.842 25.1061 23.5607C24.8248 23.2794 24.6667 22.8978 24.6667 22.5V15H27.6667V22.5Z" fill="#1565D8"/>
<path d="M6 5.33334H16.6667V8.00001H6V5.33334ZM6 10.6667H16.6667V13.3333H6V10.6667ZM12.6667 16H16.6667V18.6667H12.6667V16Z" fill="#1565D8"/>
</svg>
