<svg width="28" height="28" viewBox="0 0 28 28" fill="none" xmlns="http://www.w3.org/2000/svg">
<path d="M12.0667 16.8224L8.93342 13.689C8.71853 13.4741 8.45186 13.3667 8.13342 13.3667C7.81497 13.3667 7.54086 13.4815 7.31108 13.711C7.09641 13.9259 6.98908 14.1926 6.98908 14.511C6.98908 14.8297 7.09641 15.0964 7.31108 15.311L11.2891 19.311C11.5113 19.5332 11.7705 19.6444 12.0667 19.6444C12.363 19.6444 12.6222 19.5332 12.8444 19.311L20.6667 11.489C20.8963 11.2592 21.0111 10.9851 21.0111 10.6667C21.0111 10.3482 20.8963 10.0741 20.6667 9.84435C20.4372 9.62969 20.1594 9.52602 19.8334 9.53335C19.5074 9.54069 19.2371 9.6518 19.0224 9.86669L12.0667 16.8224ZM14.0001 27.3334C12.1705 27.3334 10.4446 26.9834 8.82242 26.2834C7.20019 25.5834 5.7853 24.6297 4.57775 23.4224C3.37041 22.2148 2.41675 20.7999 1.71675 19.1777C1.01675 17.5555 0.666748 15.8296 0.666748 14C0.666748 12.1556 1.01675 10.4222 1.71675 8.80002C2.41675 7.1778 3.37041 5.76669 4.57775 4.56669C5.7853 3.36669 7.20019 2.41669 8.82242 1.71669C10.4446 1.01669 12.1705 0.666687 14.0001 0.666687C15.8445 0.666687 17.5779 1.01669 19.2001 1.71669C20.8223 2.41669 22.2334 3.36669 23.4334 4.56669C24.6334 5.76669 25.5834 7.1778 26.2834 8.80002C26.9834 10.4222 27.3334 12.1556 27.3334 14C27.3334 15.8296 26.9834 17.5555 26.2834 19.1777C25.5834 20.7999 24.6334 22.2148 23.4334 23.4224C22.2334 24.6297 20.8223 25.5834 19.2001 26.2834C17.5779 26.9834 15.8445 27.3334 14.0001 27.3334ZM14.0001 25.111C17.0963 25.111 19.7222 24.0296 21.8778 21.8667C24.0333 19.7038 25.1111 17.0816 25.1111 14C25.1111 10.9038 24.0333 8.27791 21.8778 6.12235C19.7222 3.9668 17.0963 2.88902 14.0001 2.88902C10.9185 2.88902 8.2963 3.9668 6.13342 6.12235C3.97053 8.27791 2.88908 10.9038 2.88908 14C2.88908 17.0816 3.97053 19.7038 6.13342 21.8667C8.2963 24.0296 10.9185 25.111 14.0001 25.111Z" fill="#1565D8"/>
</svg>
