<svg width="13" height="24" viewBox="0 0 13 24" fill="none" xmlns="http://www.w3.org/2000/svg">
<path d="M6.41667 23.3333C4.62778 23.3333 3.11111 22.7111 1.86667 21.4667C0.622222 20.2222 0 18.7056 0 16.9167V4.66667C0 3.38333 0.456945 2.28472 1.37083 1.37083C2.28472 0.456944 3.38333 0 4.66667 0C5.95 0 7.04861 0.456944 7.9625 1.37083C8.87639 2.28472 9.33333 3.38333 9.33333 4.66667V15.75C9.33333 16.5667 9.05139 17.2569 8.4875 17.8208C7.92361 18.3847 7.23333 18.6667 6.41667 18.6667C5.6 18.6667 4.90972 18.3847 4.34583 17.8208C3.78194 17.2569 3.5 16.5667 3.5 15.75V4.66667H5.25V15.75C5.25 16.0806 5.36181 16.3576 5.58542 16.5812C5.80903 16.8049 6.08611 16.9167 6.41667 16.9167C6.74722 16.9167 7.02431 16.8049 7.24792 16.5812C7.47153 16.3576 7.58333 16.0806 7.58333 15.75V4.66667C7.58333 3.85 7.30139 3.15972 6.7375 2.59583C6.17361 2.03194 5.48333 1.75 4.66667 1.75C3.85 1.75 3.15972 2.03194 2.59583 2.59583C2.03194 3.15972 1.75 3.85 1.75 4.66667V16.9167C1.75 18.2 2.20694 19.2986 3.12083 20.2125C4.03472 21.1264 5.13333 21.5833 6.41667 21.5833C7.7 21.5833 8.79861 21.1264 9.7125 20.2125C10.6264 19.2986 11.0833 18.2 11.0833 16.9167V4.66667H12.8333V16.9167C12.8333 18.7056 12.2111 20.2222 10.9667 21.4667C9.72222 22.7111 8.20556 23.3333 6.41667 23.3333Z" fill="currentColor"/>
</svg>
