<svg width="24" height="24" viewBox="0 0 24 24" fill="none" xmlns="http://www.w3.org/2000/svg">
<path d="M13.1758 12.075L9.27578 15.975C9.09245 16.1583 9.00078 16.3917 9.00078 16.675C9.00078 16.9583 9.09245 17.1917 9.27578 17.375C9.45911 17.5583 9.69245 17.65 9.97578 17.65C10.2591 17.65 10.4924 17.5583 10.6758 17.375L15.2758 12.775C15.3758 12.675 15.4466 12.5667 15.4883 12.45C15.5299 12.3333 15.5508 12.2083 15.5508 12.075C15.5508 11.9417 15.5299 11.8167 15.4883 11.7C15.4466 11.5833 15.3758 11.475 15.2758 11.375L10.6758 6.775C10.4924 6.59167 10.2591 6.5 9.97578 6.5C9.69245 6.5 9.45911 6.59167 9.27578 6.775C9.09245 6.95833 9.00078 7.19167 9.00078 7.475C9.00078 7.75833 9.09245 7.99167 9.27578 8.175L13.1758 12.075Z" fill="#6B7280"/>
</svg>
