<svg width="31" height="31" viewBox="0 0 31 31" fill="none" xmlns="http://www.w3.org/2000/svg">
<path fill-rule="evenodd" clip-rule="evenodd" d="M15.8359 3.06126C14.2243 3.06126 12.6284 3.3787 11.1394 3.99546C9.65037 4.61223 8.29744 5.51623 7.15781 6.65586C6.01818 7.79548 5.11418 9.14842 4.49742 10.6374C3.88065 12.1264 3.56321 13.7223 3.56321 15.334C3.56321 16.9457 3.88065 18.5416 4.49742 20.0306C5.11418 21.5196 6.01818 22.8725 7.15781 24.0121C8.29744 25.1517 9.65037 26.0557 11.1394 26.6725C12.6284 27.2893 14.2243 27.6067 15.8359 27.6067C19.0909 27.6067 22.2125 26.3137 24.5141 24.0121C26.8156 21.7105 28.1087 18.5889 28.1087 15.334C28.1087 12.0791 26.8156 8.95744 24.5141 6.65586C22.2125 4.35427 19.0909 3.06126 15.8359 3.06126ZM0.835938 15.334C0.835938 7.04989 7.55185 0.333984 15.8359 0.333984C24.12 0.333984 30.8359 7.04989 30.8359 15.334C30.8359 23.6181 24.12 30.334 15.8359 30.334C7.55185 30.334 0.835938 23.6181 0.835938 15.334Z" fill="#1565D8"/>
<path fill-rule="evenodd" clip-rule="evenodd" d="M23.4814 11.2431L12.946 21.7786L7.65234 15.4609L9.7128 13.6745L13.0892 17.779L21.5533 9.31494L23.4814 11.2431Z" fill="#1565D8"/>
</svg>
