<svg width="24" height="22" viewBox="0 0 24 22" fill="none" xmlns="http://www.w3.org/2000/svg">
<path d="M12 21.5L10.3084 19.9833C8.34449 18.2139 6.72087 16.6875 5.43754 15.4042C4.15421 14.1208 3.13337 12.9688 2.37504 11.9479C1.61671 10.9271 1.08685 9.9889 0.785457 9.13334C0.484069 8.27779 0.333374 7.40279 0.333374 6.50834C0.333374 4.68056 0.945874 3.15417 2.17087 1.92917C3.39587 0.704175 4.92226 0.0916748 6.75004 0.0916748C7.76115 0.0916748 8.72365 0.305564 9.63754 0.733341C10.5514 1.16112 11.3389 1.7639 12 2.54167C12.6612 1.7639 13.4487 1.16112 14.3625 0.733341C15.2764 0.305564 16.2389 0.0916748 17.25 0.0916748C19.0778 0.0916748 20.6042 0.704175 21.8292 1.92917C23.0542 3.15417 23.6667 4.68056 23.6667 6.50834C23.6667 7.40279 23.516 8.27779 23.2146 9.13334C22.9132 9.9889 22.3834 10.9271 21.625 11.9479C20.8667 12.9688 19.8459 14.1208 18.5625 15.4042C17.2792 16.6875 15.6556 18.2139 13.6917 19.9833L12 21.5ZM12 18.35C13.8667 16.6778 15.4028 15.2438 16.6084 14.0479C17.8139 12.8521 18.7667 11.8118 19.4667 10.9271C20.1667 10.0424 20.6528 9.25487 20.925 8.56459C21.1973 7.87431 21.3334 7.1889 21.3334 6.50834C21.3334 5.34167 20.9445 4.36945 20.1667 3.59167C19.3889 2.8139 18.4167 2.42501 17.25 2.42501C16.3362 2.42501 15.4903 2.68265 14.7125 3.19792C13.9348 3.7132 13.4 4.36945 13.1084 5.16667H10.8917C10.6 4.36945 10.0653 3.7132 9.28754 3.19792C8.50976 2.68265 7.66393 2.42501 6.75004 2.42501C5.58337 2.42501 4.61115 2.8139 3.83337 3.59167C3.0556 4.36945 2.66671 5.34167 2.66671 6.50834C2.66671 7.1889 2.80282 7.87431 3.07504 8.56459C3.34726 9.25487 3.83337 10.0424 4.53337 10.9271C5.23337 11.8118 6.18615 12.8521 7.39171 14.0479C8.59726 15.2438 10.1334 16.6778 12 18.35Z" fill="#999898"/>
</svg>
