<svg width="22" height="28" viewBox="0 0 22 28" fill="none" xmlns="http://www.w3.org/2000/svg">
<path d="M1.66659 23.3333C1.28881 23.3333 0.972141 23.2055 0.716585 22.95C0.46103 22.6944 0.333252 22.3777 0.333252 22C0.333252 21.6222 0.46103 21.3055 0.716585 21.05C0.972141 20.7944 1.28881 20.6666 1.66659 20.6666H2.99992V11.3333C2.99992 9.48885 3.55547 7.84996 4.66659 6.41663C5.7777 4.98329 7.22214 4.0444 8.99992 3.59996V2.66663C8.99992 2.11107 9.19436 1.63885 9.58325 1.24996C9.97214 0.86107 10.4444 0.666626 10.9999 0.666626C11.5555 0.666626 12.0277 0.86107 12.4166 1.24996C12.8055 1.63885 12.9999 2.11107 12.9999 2.66663V3.59996C14.7777 4.0444 16.2221 4.98329 17.3333 6.41663C18.4444 7.84996 18.9999 9.48885 18.9999 11.3333V20.6666H20.3333C20.711 20.6666 21.0277 20.7944 21.2833 21.05C21.5388 21.3055 21.6666 21.6222 21.6666 22C21.6666 22.3777 21.5388 22.6944 21.2833 22.95C21.0277 23.2055 20.711 23.3333 20.3333 23.3333H1.66659ZM10.9999 27.3333C10.2666 27.3333 9.63881 27.0722 9.11659 26.55C8.59436 26.0277 8.33325 25.4 8.33325 24.6666H13.6666C13.6666 25.4 13.4055 26.0277 12.8833 26.55C12.361 27.0722 11.7333 27.3333 10.9999 27.3333ZM5.66659 20.6666H16.3333V11.3333C16.3333 9.86663 15.811 8.61107 14.7666 7.56663C13.7221 6.52218 12.4666 5.99996 10.9999 5.99996C9.53325 5.99996 8.2777 6.52218 7.23325 7.56663C6.18881 8.61107 5.66659 9.86663 5.66659 11.3333V20.6666Z" fill="#1565D8"/>
</svg>
