<svg width="12" height="12" viewBox="0 0 12 12" fill="none" xmlns="http://www.w3.org/2000/svg">
<path d="M0.75 6.44402H9.1275L5.4675 10.104C5.175 10.3965 5.175 10.8765 5.4675 11.169C5.76 11.4615 6.2325 11.4615 6.525 11.169L11.4675 6.22652C11.537 6.15713 11.5922 6.07471 11.6298 5.98398C11.6675 5.89325 11.6868 5.79599 11.6868 5.69777C11.6868 5.59954 11.6675 5.50228 11.6298 5.41155C11.5922 5.32082 11.537 5.2384 11.4675 5.16902L6.5325 0.219015C6.46306 0.149579 6.38063 0.0944988 6.28991 0.0569201C6.19918 0.0193413 6.10195 1.46326e-09 6.00375 0C5.90555 -1.46326e-09 5.80832 0.0193413 5.71759 0.0569201C5.62687 0.0944988 5.54444 0.149579 5.475 0.219015C5.40556 0.288452 5.35048 0.370885 5.3129 0.461608C5.27533 0.552331 5.25598 0.649568 5.25598 0.747766C5.25598 0.845963 5.27533 0.9432 5.3129 1.03392C5.35048 1.12465 5.40556 1.20708 5.475 1.27652L9.1275 4.94402H0.75C0.3375 4.94402 0 5.28152 0 5.69402C0 6.10652 0.3375 6.44402 0.75 6.44402Z" fill="#030712"/>
</svg>
