<svg width="48" height="48" viewBox="0 0 48 48" fill="none" xmlns="http://www.w3.org/2000/svg">
<rect x="0.5" y="0.5" width="47" height="47" rx="23.5" fill="#FFFEFB"/>
<rect x="0.5" y="0.5" width="47" height="47" rx="23.5" stroke="#1565D8"/>
<path d="M14.6666 33.3333C14.2888 33.3333 13.9721 33.2055 13.7166 32.95C13.461 32.6944 13.3333 32.3777 13.3333 32C13.3333 31.6222 13.461 31.3055 13.7166 31.05C13.9721 30.7944 14.2888 30.6666 14.6666 30.6666H15.9999V21.3333C15.9999 19.4888 16.5555 17.85 17.6666 16.4166C18.7777 14.9833 20.2221 14.0444 21.9999 13.6V12.6666C21.9999 12.1111 22.1944 11.6388 22.5833 11.25C22.9721 10.8611 23.4444 10.6666 23.9999 10.6666C24.5555 10.6666 25.0277 10.8611 25.4166 11.25C25.8055 11.6388 25.9999 12.1111 25.9999 12.6666V13.6C27.7777 14.0444 29.2221 14.9833 30.3333 16.4166C31.4444 17.85 31.9999 19.4888 31.9999 21.3333V30.6666H33.3333C33.711 30.6666 34.0277 30.7944 34.2833 31.05C34.5388 31.3055 34.6666 31.6222 34.6666 32C34.6666 32.3777 34.5388 32.6944 34.2833 32.95C34.0277 33.2055 33.711 33.3333 33.3333 33.3333H14.6666ZM23.9999 37.3333C23.2666 37.3333 22.6388 37.0722 22.1166 36.55C21.5944 36.0277 21.3333 35.4 21.3333 34.6666H26.6666C26.6666 35.4 26.4055 36.0277 25.8833 36.55C25.361 37.0722 24.7333 37.3333 23.9999 37.3333ZM18.6666 30.6666H29.3333V21.3333C29.3333 19.8666 28.811 18.6111 27.7666 17.5666C26.7221 16.5222 25.4666 16 23.9999 16C22.5333 16 21.2777 16.5222 20.2333 17.5666C19.1888 18.6111 18.6666 19.8666 18.6666 21.3333V30.6666Z" fill="#1565D8"/>
</svg>
