<svg width="32" height="32" viewBox="0 0 32 32" fill="none" xmlns="http://www.w3.org/2000/svg">
<path d="M21.6182 5.14282C23.5648 5.14282 25.1618 5.78899 26.4482 7.07544C27.7345 8.36179 28.3808 9.95816 28.3809 11.9045C28.3809 14.3042 27.4982 16.5181 25.6904 18.5598C23.8178 20.6747 21.6894 22.8038 19.3037 24.9465L19.2998 24.9495L17.0332 27.0159L17.0234 27.0247L17.0146 27.0344C16.8306 27.2184 16.6209 27.3485 16.3818 27.4309C16.1139 27.5233 15.8601 27.5667 15.6182 27.5667C15.3763 27.5666 15.1224 27.5233 14.8545 27.4309C14.6157 27.3485 14.4065 27.2183 14.2227 27.0344L14.2041 27.0159L11.9033 24.9163H11.9043C9.56115 22.772 7.44645 20.6468 5.56055 18.5403C3.74292 16.51 2.85645 14.3029 2.85645 11.9045C2.85652 9.95808 3.50268 8.36182 4.78906 7.07544C6.07544 5.78906 7.6717 5.14289 9.61816 5.14282C10.7121 5.14282 11.739 5.37468 12.7051 5.83716C13.6782 6.30303 14.5025 6.93669 15.1826 7.74048L15.6182 8.2561L16.0547 7.74048C16.7348 6.9367 17.5591 6.30302 18.5322 5.83716C19.4981 5.37479 20.5245 5.14287 21.6182 5.14282Z" fill="#121212" fill-opacity="0.4" stroke="#F9FAFB" stroke-width="1.14286"/>
</svg>
