<svg width="228" height="35" viewBox="0 0 228 35" fill="none" xmlns="http://www.w3.org/2000/svg">
<path d="M9.92427 6.28C14.4883 6.28 18.0443 7.848 18.0443 12.776C18.0443 17.508 14.4883 19.636 10.0363 19.636H7.26427V27H3.12027V6.28H9.92427ZM9.75627 16.36C12.5843 16.36 13.9843 15.156 13.9843 12.776C13.9843 10.34 12.5003 9.556 9.61627 9.556H7.26427V16.36H9.75627ZM29.02 11.32L29.3 14.092H29.412C30.56 12.048 32.184 10.928 33.864 10.928C34.732 10.928 35.236 11.068 35.712 11.264L34.984 14.82C34.452 14.624 34.004 14.568 33.36 14.568C32.128 14.568 30.644 15.38 29.748 17.648V27H25.66V11.32H29.02ZM48.6074 27.392C44.6874 27.392 41.0754 24.34 41.0754 19.188C41.0754 13.952 44.6874 10.928 48.6074 10.928C52.5274 10.928 56.1394 13.952 56.1394 19.188C56.1394 24.34 52.5274 27.392 48.6074 27.392ZM48.6074 24.032C50.7354 24.032 51.9394 22.128 51.9394 19.188C51.9394 16.164 50.7354 14.288 48.6074 14.288C46.4794 14.288 45.2754 16.164 45.2754 19.188C45.2754 22.128 46.4794 24.032 48.6074 24.032ZM67.1427 11.32L67.4227 13.42H67.5347C68.8507 12.048 70.3067 10.928 72.3507 10.928C74.5907 10.928 75.9067 11.88 76.6627 13.672C78.0907 12.104 79.6027 10.928 81.6467 10.928C85.0067 10.928 86.5187 13.28 86.5187 17.228V27H82.4027V17.732C82.4027 15.268 81.7027 14.456 80.2187 14.456C79.3227 14.456 78.3147 15.044 77.1947 16.22V27H73.0787V17.732C73.0787 15.268 72.3787 14.456 70.8947 14.456C69.9987 14.456 68.9907 15.044 67.8707 16.22V27H63.7827V11.32H67.1427ZM98.331 11.32L98.611 12.944H98.723C100.039 11.824 101.663 10.928 103.343 10.928C107.207 10.928 109.503 14.092 109.503 18.908C109.503 24.284 106.283 27.392 102.839 27.392C101.467 27.392 100.151 26.776 98.947 25.684L99.059 28.26V33.02H94.971V11.32H98.331ZM101.915 24.004C103.819 24.004 105.275 22.436 105.275 18.964C105.275 15.94 104.323 14.316 102.167 14.316C101.075 14.316 100.151 14.848 99.059 15.94V22.828C100.067 23.696 101.047 24.004 101.915 24.004ZM122.138 27.392C118.414 27.392 116.986 25.04 116.986 21.512V14.568H114.774V11.516L117.182 11.32L117.658 7.12H121.102V11.32H124.966V14.568H121.102V21.512C121.102 23.276 121.802 24.144 123.23 24.144C123.762 24.144 124.35 24.004 124.77 23.808L125.442 26.804C124.574 27.112 123.51 27.392 122.138 27.392Z" fill="#A0CDFD"/>
<path d="M132.023 30.3557L136.234 5.23786H141.229L140.717 8.30623H140.943C141.244 7.81465 141.645 7.31515 142.144 6.80772C142.652 6.29236 143.282 5.86422 144.035 5.52329C144.788 5.17443 145.673 5 146.687 5C148.027 5 149.197 5.34886 150.196 6.04658C151.195 6.73636 151.916 7.77898 152.36 9.17441C152.812 10.5619 152.864 12.3022 152.515 14.3954C152.182 16.433 151.567 18.1535 150.672 19.5569C149.784 20.9523 148.717 22.0108 147.472 22.7323C146.235 23.4459 144.923 23.8027 143.536 23.8027C142.553 23.8027 141.744 23.6401 141.11 23.3151C140.483 22.99 139.996 22.5817 139.647 22.0901C139.298 21.5906 139.052 21.0871 138.909 20.5797H138.719L137.102 30.3557H132.023Z" fill="url(#paint0_linear_90_16212)"/>
<path d="M152.608 26.6289L152.105 30.4663H139.352L139.845 26.6289H152.608Z" fill="url(#paint1_linear_90_16212)"/>
<path d="M161.373 4.656H165.461V27H161.373V4.656ZM178.269 27.28C175.469 27.28 173.621 25.46 173.621 22.744C173.425 18.908 176.141 17.144 182.637 16.948C182.721 16.276 182.581 15.604 182.273 14.96C181.937 14.484 181.181 14.232 179.977 14.232C178.521 14.232 176.869 14.792 175.441 15.716L174.209 12.776C175.917 11.74 178.269 10.928 180.733 10.928C184.737 10.928 186.753 13.224 186.753 17.844V27H183.393L183.085 25.404H183.001C181.657 26.552 180.061 27.28 178.269 27.28ZM179.529 24.144C180.733 24.116 181.657 23.612 182.637 22.632V19.468C181.657 19.552 180.705 19.636 179.809 19.776C178.017 20.028 177.373 20.924 177.401 22.044C177.429 23.36 178.325 24.144 179.529 24.144ZM201.812 27.392C197.472 27.392 194.168 24.34 194.168 19.188C194.168 13.952 197.92 10.928 202.176 10.928C204.108 10.928 205.592 11.684 206.74 12.664L204.78 15.324C203.996 14.652 203.268 14.288 202.372 14.288C199.992 14.288 198.368 16.164 198.368 19.188C198.368 21.568 199.544 24.032 202.26 24.032C203.38 24.032 204.444 23.528 205.312 22.772L206.936 25.488C205.452 26.804 203.604 27.392 201.812 27.392ZM220.07 27.392C215.702 27.392 212.286 24.34 212.286 19.188C212.286 14.12 215.87 10.928 219.594 10.928C223.906 10.928 226.146 14.092 226.146 18.432C226.146 19.188 226.062 19.944 225.95 20.308H216.29C216.626 22.884 218.278 24.228 220.63 24.228C221.946 24.228 223.038 23.836 224.158 23.136L225.558 25.656C223.99 26.748 222.086 27.392 220.07 27.392ZM222.618 17.592C222.618 15.464 221.666 14.12 219.65 14.12C217.998 14.12 216.542 15.324 216.234 17.592H222.618Z" fill="url(#paint2_linear_90_16212)"/>
<defs>
<linearGradient id="paint0_linear_90_16212" x1="142.383" y1="5" x2="126.706" y2="29.7613" gradientUnits="userSpaceOnUse">
<stop stop-color="#2979FF"/>
<stop offset="1" stop-color="#55BBFF"/>
</linearGradient>
<linearGradient id="paint1_linear_90_16212" x1="145.98" y1="26.6289" x2="145.211" y2="31.7635" gradientUnits="userSpaceOnUse">
<stop stop-color="#2979FF"/>
<stop offset="1" stop-color="#55BBFF"/>
</linearGradient>
<linearGradient id="paint2_linear_90_16212" x1="193.242" y1="5.82387e-07" x2="181.486" y2="44.796" gradientUnits="userSpaceOnUse">
<stop stop-color="#2979FF"/>
<stop offset="1" stop-color="#55BBFF"/>
</linearGradient>
</defs>
</svg>
