<svg width="24" height="25" viewBox="0 0 24 25" fill="none" xmlns="http://www.w3.org/2000/svg">
<path d="M11.9998 14.267L7.0998 19.167C6.91647 19.3503 6.68314 19.442 6.3998 19.442C6.11647 19.442 5.88314 19.3503 5.6998 19.167C5.51647 18.9837 5.4248 18.7503 5.4248 18.467C5.4248 18.1837 5.51647 17.9503 5.6998 17.767L10.5998 12.867L5.6998 7.96699C5.51647 7.78366 5.4248 7.55033 5.4248 7.26699C5.4248 6.98366 5.51647 6.75033 5.6998 6.56699C5.88314 6.38366 6.11647 6.29199 6.3998 6.29199C6.68314 6.29199 6.91647 6.38366 7.0998 6.56699L11.9998 11.467L16.8998 6.56699C17.0831 6.38366 17.3165 6.29199 17.5998 6.29199C17.8831 6.29199 18.1165 6.38366 18.2998 6.56699C18.4831 6.75033 18.5748 6.98366 18.5748 7.26699C18.5748 7.55033 18.4831 7.78366 18.2998 7.96699L13.3998 12.867L18.2998 17.767C18.4831 17.9503 18.5748 18.1837 18.5748 18.467C18.5748 18.7503 18.4831 18.9837 18.2998 19.167C18.1165 19.3503 17.8831 19.442 17.5998 19.442C17.3165 19.442 17.0831 19.3503 16.8998 19.167L11.9998 14.267Z" fill="#121212"/>
</svg>
