<svg width="28" height="14" viewBox="0 0 28 14" fill="none" xmlns="http://www.w3.org/2000/svg">
<path d="M7.33341 13.6667C5.48897 13.6667 3.91675 13.0167 2.61675 11.7167C1.31675 10.4167 0.666748 8.84448 0.666748 7.00004C0.666748 5.1556 1.31675 3.58337 2.61675 2.28337C3.91675 0.983374 5.48897 0.333374 7.33341 0.333374H11.3334C11.7112 0.333374 12.0279 0.461152 12.2834 0.716707C12.539 0.972263 12.6667 1.28893 12.6667 1.66671C12.6667 2.04448 12.539 2.36115 12.2834 2.61671C12.0279 2.87226 11.7112 3.00004 11.3334 3.00004H7.33341C6.2223 3.00004 5.27786 3.38893 4.50008 4.16671C3.7223 4.94448 3.33341 5.88893 3.33341 7.00004C3.33341 8.11115 3.7223 9.0556 4.50008 9.83337C5.27786 10.6112 6.2223 11 7.33341 11H11.3334C11.7112 11 12.0279 11.1278 12.2834 11.3834C12.539 11.6389 12.6667 11.9556 12.6667 12.3334C12.6667 12.7112 12.539 13.0278 12.2834 13.2834C12.0279 13.5389 11.7112 13.6667 11.3334 13.6667H7.33341ZM10.0001 8.33337C9.6223 8.33337 9.30564 8.2056 9.05008 7.95004C8.79453 7.69448 8.66675 7.37782 8.66675 7.00004C8.66675 6.62226 8.79453 6.3056 9.05008 6.05004C9.30564 5.79448 9.6223 5.66671 10.0001 5.66671H18.0001C18.3779 5.66671 18.6945 5.79448 18.9501 6.05004C19.2056 6.3056 19.3334 6.62226 19.3334 7.00004C19.3334 7.37782 19.2056 7.69448 18.9501 7.95004C18.6945 8.2056 18.3779 8.33337 18.0001 8.33337H10.0001ZM16.6667 13.6667C16.289 13.6667 15.9723 13.5389 15.7167 13.2834C15.4612 13.0278 15.3334 12.7112 15.3334 12.3334C15.3334 11.9556 15.4612 11.6389 15.7167 11.3834C15.9723 11.1278 16.289 11 16.6667 11H20.6667C21.7779 11 22.7223 10.6112 23.5001 9.83337C24.2779 9.0556 24.6667 8.11115 24.6667 7.00004C24.6667 5.88893 24.2779 4.94448 23.5001 4.16671C22.7223 3.38893 21.7779 3.00004 20.6667 3.00004H16.6667C16.289 3.00004 15.9723 2.87226 15.7167 2.61671C15.4612 2.36115 15.3334 2.04448 15.3334 1.66671C15.3334 1.28893 15.4612 0.972263 15.7167 0.716707C15.9723 0.461152 16.289 0.333374 16.6667 0.333374H20.6667C22.5112 0.333374 24.0834 0.983374 25.3834 2.28337C26.6834 3.58337 27.3334 5.1556 27.3334 7.00004C27.3334 8.84448 26.6834 10.4167 25.3834 11.7167C24.0834 13.0167 22.5112 13.6667 20.6667 13.6667H16.6667Z" fill="#121212"/>
</svg>
