<svg width="28" height="26" viewBox="0 0 28 26" fill="none" xmlns="http://www.w3.org/2000/svg">
<path d="M6.00008 22L2.93341 25.0666C2.51119 25.4888 2.02786 25.5833 1.48341 25.35C0.93897 25.1166 0.666748 24.7 0.666748 24.1V3.33329C0.666748 2.59996 0.927859 1.97218 1.45008 1.44996C1.9723 0.927737 2.60008 0.666626 3.33341 0.666626H24.6667C25.4001 0.666626 26.0279 0.927737 26.5501 1.44996C27.0723 1.97218 27.3334 2.59996 27.3334 3.33329V19.3333C27.3334 20.0666 27.0723 20.6944 26.5501 21.2166C26.0279 21.7388 25.4001 22 24.6667 22H6.00008ZM4.86675 19.3333H24.6667V3.33329H3.33341V20.8333L4.86675 19.3333Z" fill="#1565D8"/>
</svg>
