<svg width="28" height="28" viewBox="0 0 28 28" fill="none" xmlns="http://www.w3.org/2000/svg">
<path d="M12.6001 14L17.1501 18.55C17.3639 18.7639 17.4709 19.0361 17.4709 19.3667C17.4709 19.6972 17.3639 19.9695 17.1501 20.1833C16.9362 20.3972 16.6639 20.5042 16.3334 20.5042C16.0028 20.5042 15.7306 20.3972 15.5167 20.1833L10.1501 14.8167C10.0334 14.7 9.95075 14.5736 9.90214 14.4375C9.85353 14.3014 9.82922 14.1556 9.82922 14C9.82922 13.8445 9.85353 13.6986 9.90214 13.5625C9.95075 13.4264 10.0334 13.3 10.1501 13.1833L15.5167 7.81668C15.7306 7.60279 16.0028 7.49585 16.3334 7.49585C16.6639 7.49585 16.9362 7.60279 17.1501 7.81668C17.3639 8.03057 17.4709 8.30279 17.4709 8.63335C17.4709 8.96391 17.3639 9.23613 17.1501 9.45002L12.6001 14Z" fill="#121212"/>
</svg>
