<svg width="9" height="14" viewBox="0 0 9 14" fill="none" xmlns="http://www.w3.org/2000/svg">
<path d="M3.60006 7.00002L8.15006 11.55C8.36395 11.7639 8.47089 12.0361 8.47089 12.3667C8.47089 12.6972 8.36395 12.9695 8.15006 13.1834C7.93617 13.3972 7.66395 13.5042 7.33339 13.5042C7.00283 13.5042 6.73061 13.3972 6.51672 13.1834L1.15006 7.81668C1.03339 7.70002 0.950751 7.57363 0.90214 7.43752C0.853529 7.30141 0.829224 7.15557 0.829224 7.00002C0.829224 6.84446 0.853529 6.69863 0.90214 6.56252C0.950751 6.42641 1.03339 6.30002 1.15006 6.18335L6.51672 0.816683C6.73061 0.602794 7.00283 0.49585 7.33339 0.49585C7.66395 0.49585 7.93617 0.602794 8.15006 0.816683C8.36395 1.03057 8.47089 1.30279 8.47089 1.63335C8.47089 1.96391 8.36395 2.23613 8.15006 2.45002L3.60006 7.00002Z" fill="#2979FF"/>
</svg>
