<svg width="72" height="72" viewBox="0 0 72 72" fill="none" xmlns="http://www.w3.org/2000/svg">
<g clip-path="url(#clip0_7231_81046)">
<path fill-rule="evenodd" clip-rule="evenodd" d="M56.6214 20.4979C56.2297 17.1745 51.6555 16.7227 50.6165 19.9065L50.5764 20.0374L50.4932 20.2912C49.8902 22.1144 48.7677 23.7168 47.268 24.8954C45.7683 26.074 43.9587 26.7757 42.0684 26.9118C38.67 27.1559 38.1691 32.0194 41.4465 32.951C43.276 33.4717 45.0978 34.7584 46.1388 36.0015C47.3681 37.4693 48.1373 39.2764 48.3484 41.1924L48.3871 41.5551C48.7559 44.8801 53.3219 45.3734 54.3865 42.2L54.5231 41.7974C55.1373 39.9738 56.2679 38.3729 57.7733 37.1952C59.2786 36.0175 61.0919 35.3154 62.9859 35.1768C66.3922 34.9296 66.8935 30.0624 63.609 29.1262C61.7914 28.6081 60.1653 27.5598 58.9326 26.1113C57.6999 24.6627 56.9148 22.8778 56.6747 20.9779L56.6392 20.6579L56.6214 20.4979Z" fill="url(#paint0_linear_7231_81046)"/>
<path fill-rule="evenodd" clip-rule="evenodd" d="M30.6489 27.7003C27.9707 22.9125 20.7594 25.0979 21.1831 30.5718L21.2045 30.7952L21.2377 31.2318C21.4682 34.3715 20.7735 37.5026 19.2414 40.2285C17.7093 42.9544 15.4088 45.1525 12.6313 46.5444C7.6373 49.0462 9.92979 56.7263 15.478 56.0813C18.5756 55.7221 22.1421 56.5281 24.4985 57.7577C27.2811 59.2096 29.5798 61.464 31.1015 64.2334L31.3877 64.7586C34.0321 69.563 41.2572 67.4457 40.8787 61.9715L40.833 61.276C40.6192 58.1287 41.3273 54.9948 42.8684 52.2667C44.4096 49.5387 46.7154 47.3378 49.497 45.9396C54.5011 43.4283 52.2068 35.7421 46.6449 36.3847C43.567 36.7403 40.4466 36.1727 37.6709 34.7521C34.8952 33.3316 32.5863 31.1208 31.0307 28.3939L30.7762 27.9315L30.6489 27.7003Z" fill="url(#paint1_linear_7231_81046)"/>
</g>
<defs>
<linearGradient id="paint0_linear_7231_81046" x1="53.5032" y1="25.7091" x2="42.3305" y2="49.296" gradientUnits="userSpaceOnUse">
<stop offset="0.00157268" stop-color="#F2F8FF"/>
<stop offset="1" stop-color="#C0DEFF"/>
</linearGradient>
<linearGradient id="paint1_linear_7231_81046" x1="43.9736" y1="28.6916" x2="3.79239" y2="67.7963" gradientUnits="userSpaceOnUse">
<stop offset="0.000639323" stop-color="#94D2FF"/>
<stop offset="1" stop-color="#6198FF"/>
</linearGradient>
<clipPath id="clip0_7231_81046">
<rect width="71.2" height="72" fill="white"/>
</clipPath>
</defs>
</svg>
