<svg width="129" height="123" viewBox="0 0 129 123" fill="none" xmlns="http://www.w3.org/2000/svg">
<g clip-path="url(#clip0_9512_45249)">
<g filter="url(#filter0_d_9512_45249)">
<path d="M25.3103 45.5988C24.8061 45.5988 24.2929 45.5088 23.7708 45.3287C23.2486 45.1487 22.7894 44.8606 22.3933 44.4645L18.6661 41.0613C14.8488 37.5682 11.4007 34.102 8.32165 30.6629C5.24263 27.2238 3.70312 23.4335 3.70312 19.2921C3.70312 15.907 4.8375 13.0801 7.10625 10.8113C9.375 8.54258 12.2019 7.4082 15.5871 7.4082C17.4957 7.4082 19.2963 7.81334 20.9888 8.62361C22.6814 9.43387 24.1219 10.5412 25.3103 11.9457C26.4987 10.5412 27.9391 9.43387 29.6317 8.62361C31.3243 7.81334 33.1249 7.4082 35.0335 7.4082C38.4186 7.4082 41.2455 8.54258 43.5143 10.8113C45.783 13.0801 46.9174 15.907 46.9174 19.2921C46.9174 23.4335 45.3869 27.2328 42.3259 30.6899C39.2649 34.147 35.7897 37.6222 31.9004 41.1153L28.2272 44.4645C27.8311 44.8606 27.372 45.1487 26.8498 45.3287C26.3276 45.5088 25.8144 45.5988 25.3103 45.5988Z" fill="#121212" fill-opacity="0.4" shape-rendering="crispEdges"/>
<path d="M35.0332 8.33398C38.1876 8.33398 40.7747 9.38122 42.8594 11.4658C44.9441 13.5505 45.9912 16.1375 45.9912 19.292C45.9912 23.1807 44.5624 26.7675 41.6328 30.0762C38.598 33.5037 35.1476 36.9542 31.2812 40.4268L31.2764 40.4307L27.6035 43.7803L27.5723 43.8096C27.2741 44.1078 26.9352 44.3196 26.5479 44.4531C26.1137 44.6028 25.7026 44.6728 25.3105 44.6729C24.9185 44.6729 24.5066 44.6029 24.0723 44.4531C23.6851 44.3195 23.346 44.1077 23.0479 43.8096L23.0332 43.7949L23.0176 43.7803L19.29 40.3779H19.291C15.4938 36.9032 12.0679 33.4586 9.01172 30.0449C6.06603 26.7547 4.62891 23.1788 4.62891 19.292C4.62894 16.1375 5.67603 13.5505 7.76074 11.4658C9.84545 9.38111 12.4324 8.33402 15.5869 8.33398C17.3596 8.33398 19.0233 8.70954 20.5889 9.45898C22.1659 10.2139 23.5013 11.2413 24.6035 12.5439L25.3105 13.3789L26.0176 12.5439C27.1197 11.2415 28.4544 10.2139 30.0312 9.45898C31.5967 8.70956 33.2606 8.33402 35.0332 8.33398Z" stroke="#F9FAFB" stroke-width="1.85204" shape-rendering="crispEdges"/>
</g>
</g>
<g clip-path="url(#clip1_9512_45249)">
<g filter="url(#filter1_d_9512_45249)">
<path d="M86.2333 112.674C85.4358 112.674 84.624 112.532 83.798 112.247C82.9721 111.962 82.2458 111.507 81.6192 110.88L75.7233 105.497C69.6851 99.9713 64.2308 94.4884 59.3604 89.0484C54.4899 83.6083 52.0547 77.6128 52.0547 71.0619C52.0547 65.7072 53.8491 61.2355 57.4378 57.6468C61.0266 54.058 65.4983 52.2637 70.8529 52.2637C73.872 52.2637 76.7202 52.9045 79.3975 54.1862C82.0749 55.4679 84.3534 57.2196 86.2333 59.4412C88.1131 57.2196 90.3917 55.4679 93.069 54.1862C95.7463 52.9045 98.5945 52.2637 101.614 52.2637C106.968 52.2637 111.44 54.058 115.029 57.6468C118.617 61.2355 120.412 65.7072 120.412 71.0619C120.412 77.6128 117.991 83.6225 113.149 89.0911C108.307 94.5597 102.81 100.057 96.6577 105.582L90.8474 110.88C90.2208 111.507 89.4945 111.962 88.6685 112.247C87.8425 112.532 87.0308 112.674 86.2333 112.674Z" fill="url(#paint0_linear_9512_45249)"/>
</g>
</g>
<g filter="url(#filter2_d_9512_45249)">
<circle cx="59.4914" cy="24.9855" r="3.3" fill="url(#paint1_linear_9512_45249)"/>
</g>
<g filter="url(#filter3_d_9512_45249)">
<circle cx="72.6945" cy="24.9855" r="3.3" fill="url(#paint2_linear_9512_45249)"/>
</g>
<g filter="url(#filter4_d_9512_45249)">
<circle cx="85.8938" cy="24.9855" r="3.3" fill="url(#paint3_linear_9512_45249)"/>
</g>
<g filter="url(#filter5_d_9512_45249)">
<circle cx="85.8938" cy="38.1848" r="3.3" fill="url(#paint4_linear_9512_45249)"/>
</g>
<defs>
<filter id="filter0_d_9512_45249" x="-2.67929" y="3.41919" width="55.9797" height="50.9562" filterUnits="userSpaceOnUse" color-interpolation-filters="sRGB">
<feFlood flood-opacity="0" result="BackgroundImageFix"/>
<feColorMatrix in="SourceAlpha" type="matrix" values="0 0 0 0 0 0 0 0 0 0 0 0 0 0 0 0 0 0 127 0" result="hardAlpha"/>
<feOffset dy="2.39341"/>
<feGaussianBlur stdDeviation="3.19121"/>
<feComposite in2="hardAlpha" operator="out"/>
<feColorMatrix type="matrix" values="0 0 0 0 0 0 0 0 0 0 0 0 0 0 0 0 0 0 0.2 0"/>
<feBlend mode="normal" in2="BackgroundImageFix" result="effect1_dropShadow_9512_45249"/>
<feBlend mode="normal" in="SourceGraphic" in2="effect1_dropShadow_9512_45249" result="shape"/>
</filter>
<filter id="filter1_d_9512_45249" x="44.5118" y="47.5494" width="83.4412" height="75.4959" filterUnits="userSpaceOnUse" color-interpolation-filters="sRGB">
<feFlood flood-opacity="0" result="BackgroundImageFix"/>
<feColorMatrix in="SourceAlpha" type="matrix" values="0 0 0 0 0 0 0 0 0 0 0 0 0 0 0 0 0 0 127 0" result="hardAlpha"/>
<feOffset dy="2.82857"/>
<feGaussianBlur stdDeviation="3.77143"/>
<feComposite in2="hardAlpha" operator="out"/>
<feColorMatrix type="matrix" values="0 0 0 0 0 0 0 0 0 0 0 0 0 0 0 0 0 0 0.15 0"/>
<feBlend mode="normal" in2="BackgroundImageFix" result="effect1_dropShadow_9512_45249"/>
<feBlend mode="normal" in="SourceGraphic" in2="effect1_dropShadow_9512_45249" result="shape"/>
</filter>
<filter id="filter2_d_9512_45249" x="48.6485" y="16.9713" width="21.6873" height="21.6853" filterUnits="userSpaceOnUse" color-interpolation-filters="sRGB">
<feFlood flood-opacity="0" result="BackgroundImageFix"/>
<feColorMatrix in="SourceAlpha" type="matrix" values="0 0 0 0 0 0 0 0 0 0 0 0 0 0 0 0 0 0 127 0" result="hardAlpha"/>
<feOffset dy="2.82857"/>
<feGaussianBlur stdDeviation="3.77143"/>
<feComposite in2="hardAlpha" operator="out"/>
<feColorMatrix type="matrix" values="0 0 0 0 0 0 0 0 0 0 0 0 0 0 0 0 0 0 0.15 0"/>
<feBlend mode="normal" in2="BackgroundImageFix" result="effect1_dropShadow_9512_45249"/>
<feBlend mode="normal" in="SourceGraphic" in2="effect1_dropShadow_9512_45249" result="shape"/>
</filter>
<filter id="filter3_d_9512_45249" x="61.8517" y="16.9713" width="21.6873" height="21.6853" filterUnits="userSpaceOnUse" color-interpolation-filters="sRGB">
<feFlood flood-opacity="0" result="BackgroundImageFix"/>
<feColorMatrix in="SourceAlpha" type="matrix" values="0 0 0 0 0 0 0 0 0 0 0 0 0 0 0 0 0 0 127 0" result="hardAlpha"/>
<feOffset dy="2.82857"/>
<feGaussianBlur stdDeviation="3.77143"/>
<feComposite in2="hardAlpha" operator="out"/>
<feColorMatrix type="matrix" values="0 0 0 0 0 0 0 0 0 0 0 0 0 0 0 0 0 0 0.15 0"/>
<feBlend mode="normal" in2="BackgroundImageFix" result="effect1_dropShadow_9512_45249"/>
<feBlend mode="normal" in="SourceGraphic" in2="effect1_dropShadow_9512_45249" result="shape"/>
</filter>
<filter id="filter4_d_9512_45249" x="75.0509" y="16.9713" width="21.6873" height="21.6853" filterUnits="userSpaceOnUse" color-interpolation-filters="sRGB">
<feFlood flood-opacity="0" result="BackgroundImageFix"/>
<feColorMatrix in="SourceAlpha" type="matrix" values="0 0 0 0 0 0 0 0 0 0 0 0 0 0 0 0 0 0 127 0" result="hardAlpha"/>
<feOffset dy="2.82857"/>
<feGaussianBlur stdDeviation="3.77143"/>
<feComposite in2="hardAlpha" operator="out"/>
<feColorMatrix type="matrix" values="0 0 0 0 0 0 0 0 0 0 0 0 0 0 0 0 0 0 0.15 0"/>
<feBlend mode="normal" in2="BackgroundImageFix" result="effect1_dropShadow_9512_45249"/>
<feBlend mode="normal" in="SourceGraphic" in2="effect1_dropShadow_9512_45249" result="shape"/>
</filter>
<filter id="filter5_d_9512_45249" x="75.0509" y="30.1705" width="21.6873" height="21.6853" filterUnits="userSpaceOnUse" color-interpolation-filters="sRGB">
<feFlood flood-opacity="0" result="BackgroundImageFix"/>
<feColorMatrix in="SourceAlpha" type="matrix" values="0 0 0 0 0 0 0 0 0 0 0 0 0 0 0 0 0 0 127 0" result="hardAlpha"/>
<feOffset dy="2.82857"/>
<feGaussianBlur stdDeviation="3.77143"/>
<feComposite in2="hardAlpha" operator="out"/>
<feColorMatrix type="matrix" values="0 0 0 0 0 0 0 0 0 0 0 0 0 0 0 0 0 0 0.15 0"/>
<feBlend mode="normal" in2="BackgroundImageFix" result="effect1_dropShadow_9512_45249"/>
<feBlend mode="normal" in="SourceGraphic" in2="effect1_dropShadow_9512_45249" result="shape"/>
</filter>
<linearGradient id="paint0_linear_9512_45249" x1="110.126" y1="61.3781" x2="21.1337" y2="99.9269" gradientUnits="userSpaceOnUse">
<stop stop-color="#94D2FF"/>
<stop offset="1" stop-color="#6198FF"/>
</linearGradient>
<linearGradient id="paint1_linear_9512_45249" x1="61.7982" y1="22.6813" x2="52.898" y2="26.0885" gradientUnits="userSpaceOnUse">
<stop stop-color="#94D2FF"/>
<stop offset="1" stop-color="#6198FF"/>
</linearGradient>
<linearGradient id="paint2_linear_9512_45249" x1="75.0014" y1="22.6813" x2="66.1011" y2="26.0885" gradientUnits="userSpaceOnUse">
<stop stop-color="#94D2FF"/>
<stop offset="1" stop-color="#6198FF"/>
</linearGradient>
<linearGradient id="paint3_linear_9512_45249" x1="88.2006" y1="22.6813" x2="79.3003" y2="26.0885" gradientUnits="userSpaceOnUse">
<stop stop-color="#94D2FF"/>
<stop offset="1" stop-color="#6198FF"/>
</linearGradient>
<linearGradient id="paint4_linear_9512_45249" x1="88.2006" y1="35.8805" x2="79.3003" y2="39.2877" gradientUnits="userSpaceOnUse">
<stop stop-color="#94D2FF"/>
<stop offset="1" stop-color="#6198FF"/>
</linearGradient>
<clipPath id="clip0_9512_45249">
<rect width="51.8571" height="51.8571" fill="white"/>
</clipPath>
<clipPath id="clip1_9512_45249">
<rect width="82.0286" height="82.0286" fill="white" transform="translate(46.1992 40.541)"/>
</clipPath>
</defs>
</svg>
