<svg width="116" height="103" viewBox="0 0 116 103" fill="none" xmlns="http://www.w3.org/2000/svg">
<path fill-rule="evenodd" clip-rule="evenodd" d="M96.3631 7.48494C95.6478 1.41689 87.2961 0.592048 85.399 6.40517L85.3258 6.64417L85.1739 7.10751C84.0729 10.4365 82.0235 13.3622 79.2852 15.5141C76.5469 17.666 73.2429 18.9473 69.7916 19.1957C63.5865 19.6415 62.6721 28.5213 68.656 30.2223C71.9965 31.173 75.3228 33.5225 77.2235 35.792C79.4679 38.472 80.8724 41.7716 81.2578 45.2698L81.3285 45.9322C82.0018 52.003 90.3388 52.9038 92.2825 47.1096L92.5318 46.3745C93.6533 43.0448 95.7176 40.1218 98.4662 37.9716C101.215 35.8214 104.525 34.5394 107.984 34.2864C114.203 33.835 115.118 24.9482 109.121 23.2389C105.803 22.293 102.834 20.3789 100.583 17.7341C98.3323 15.0893 96.8987 11.8303 96.4603 8.36136L96.3955 7.77708L96.3631 7.48494Z" fill="url(#paint0_linear_9512_45237)"/>
<path fill-rule="evenodd" clip-rule="evenodd" d="M48.9426 20.5928C44.0525 11.8511 30.8859 15.8413 31.6594 25.8358L31.6985 26.2437L31.7592 27.0408C32.1801 32.7735 30.9116 38.4903 28.1142 43.4674C25.3169 48.4444 21.1166 52.4578 16.0452 54.9993C6.92699 59.5671 11.1127 73.5898 21.2428 72.412C26.8986 71.7563 33.4104 73.2279 37.7129 75.4729C42.7935 78.1238 46.9906 82.2401 49.7689 87.2966L50.2915 88.2555C55.1197 97.0276 68.3116 93.1617 67.6206 83.1666L67.5371 81.8969C67.1468 76.1503 68.4396 70.4283 71.2535 65.4473C74.0674 60.4663 78.2774 56.4478 83.3562 53.895C92.4929 49.3096 88.3038 35.2759 78.1487 36.4492C72.529 37.0985 66.8317 36.062 61.7636 33.4684C56.6956 30.8747 52.4799 26.838 49.6397 21.8592L49.1749 21.015L48.9426 20.5928Z" fill="url(#paint1_linear_9512_45237)"/>
<defs>
<linearGradient id="paint0_linear_9512_45237" x1="90.6698" y1="16.9998" x2="70.2701" y2="60.0658" gradientUnits="userSpaceOnUse">
<stop offset="0.00157268" stop-color="#F2F8FF"/>
<stop offset="1" stop-color="#C0DEFF"/>
</linearGradient>
<linearGradient id="paint1_linear_9512_45237" x1="73.2714" y1="22.4028" x2="-0.0932231" y2="93.8018" gradientUnits="userSpaceOnUse">
<stop offset="0.000639323" stop-color="#94D2FF"/>
<stop offset="1" stop-color="#6198FF"/>
</linearGradient>
</defs>
</svg>
